LondrinaSolid-Regular_ik.ufo
<glyph name="quotedbl" format="1">
  <advance width="378"/>
  <unicode hex="0022"/>
  <outline>
    <contour>
      <point x="40" y="704" type="line"/>
      <point x="44" y="704"/>
      <point x="77" y="708"/>
      <point x="115" y="711"/>
      <point x="146" y="710"/>
      <point x="148" y="706" type="qcurve"/>
      <point x="148" y="689"/>
      <point x="149" y="614"/>
      <point x="150" y="533"/>
      <point x="150" y="467"/>
      <point x="150" y="460" type="qcurve"/>
      <point x="150" y="460"/>
      <point x="123" y="460"/>
      <point x="85" y="459"/>
      <point x="47" y="459"/>
      <point x="37" y="459" type="qcurve"/>
      <point x="37" y="460" type="line"/>
      <point x="37" y="505"/>
      <point x="35" y="566"/>
      <point x="35" y="617"/>
      <point x="37" y="667"/>
      <point x="39" y="702" type="qcurve"/>
      <point x="39" y="704" type="line"/>
    </contour>
    <contour>
      <point x="233" y="704" type="line"/>
      <point x="237" y="704"/>
      <point x="270" y="708"/>
      <point x="308" y="711"/>
      <point x="339" y="710"/>
      <point x="341" y="706" type="qcurve"/>
      <point x="341" y="689"/>
      <point x="342" y="614"/>
      <point x="343" y="533"/>
      <point x="343" y="467"/>
      <point x="343" y="460" type="qcurve"/>
      <point x="343" y="460"/>
      <point x="316" y="460"/>
      <point x="278" y="459"/>
      <point x="240" y="459"/>
      <point x="230" y="459" type="qcurve"/>
      <point x="230" y="460" type="line"/>
      <point x="230" y="505"/>
      <point x="228" y="566"/>
      <point x="228" y="617"/>
      <point x="230" y="667"/>
      <point x="232" y="702" type="qcurve"/>
      <point x="232" y="704" type="line"/>
    </contour>
  </outline>
</glyph>
<glyph name="numbersign" format="1">
  <advance width="669"/>
  <unicode hex="0023"/>
  <outline>
    <contour>
      <point x="646" y="386" type="line"/>
      <point x="540" y="383" type="line"/>
      <point x="529" y="351"/>
      <point x="509" y="289"/>
      <point x="498" y="257" type="qcurve"/>
      <point x="509" y="256"/>
      <point x="577" y="257"/>
      <point x="628" y="253" type="qcurve"/>
      <point x="631" y="245"/>
      <point x="632" y="231"/>
      <point x="633" y="211"/>
      <point x="633" y="183"/>
      <point x="635" y="160" type="qcurve"/>
      <point x="635" y="158" type="line"/>
      <point x="619" y="156"/>
      <point x="591" y="155"/>
      <point x="555" y="155"/>
      <point x="504" y="155"/>
      <point x="464" y="154" type="qcurve"/>
      <point x="463" y="154" type="line"/>
      <point x="461" y="154" type="line"/>
      <point x="459" y="151"/>
      <point x="448" y="115"/>
      <point x="432" y="69"/>
      <point x="412" y="20"/>
      <point x="402" y="2" type="qcurve"/>
      <point x="401" y="1" type="line"/>
      <point x="399" y="1" type="line"/>
      <point x="397" y="1"/>
      <point x="346" y="-1"/>
      <point x="285" y="1" type="qcurve"/>
      <point x="296" y="45"/>
      <point x="326" y="120"/>
      <point x="336" y="157" type="qcurve"/>
      <point x="335" y="157" type="line"/>
      <point x="335" y="157"/>
      <point x="324" y="158"/>
      <point x="298" y="158"/>
      <point x="253" y="158"/>
      <point x="219" y="157" type="qcurve"/>
      <point x="211" y="134"/>
      <point x="203" y="114"/>
      <point x="196" y="96"/>
      <point x="184" y="68"/>
      <point x="172" y="37" type="qcurve"/>
      <point x="169" y="27"/>
      <point x="164" y="13"/>
      <point x="158" y="2" type="qcurve"/>
      <point x="156" y="0"/>
      <point x="150" y="0" type="qcurve"/>
      <point x="140" y="1"/>
      <point x="88" y="2"/>
      <point x="43" y="0" type="qcurve"/>
      <point x="51" y="42"/>
      <point x="80" y="117"/>
      <point x="94" y="155" type="qcurve"/>
      <point x="77" y="155"/>
      <point x="43" y="152"/>
      <point x="28" y="153" type="qcurve"/>
      <point x="26" y="179"/>
      <point x="26" y="235"/>
      <point x="25" y="262" type="qcurve"/>
      <point x="26" y="261"/>
      <point x="36" y="259"/>
      <point x="59" y="257"/>
      <point x="101" y="256"/>
      <point x="135" y="257" type="qcurve"/>
      <point x="138" y="260"/>
      <point x="142" y="274"/>
      <point x="150" y="302"/>
      <point x="164" y="348"/>
      <point x="176" y="383" type="qcurve"/>
      <point x="176" y="383"/>
      <point x="170" y="383"/>
      <point x="143" y="383"/>
      <point x="87" y="382"/>
      <point x="38" y="382" type="qcurve"/>
      <point x="36" y="490" type="line"/>
      <point x="36" y="490"/>
      <point x="43" y="488"/>
      <point x="70" y="485"/>
      <point x="128" y="484"/>
      <point x="179" y="485" type="qcurve"/>
      <point x="186" y="485"/>
      <point x="204" y="484"/>
      <point x="210" y="485" type="qcurve"/>
      <point x="210" y="486"/>
      <point x="211" y="486"/>
      <point x="211" y="487" type="qcurve"/>
      <point x="214" y="493"/>
      <point x="227" y="531"/>
      <point x="242" y="578"/>
      <point x="255" y="623"/>
      <point x="258" y="637" type="qcurve"/>
      <point x="258" y="638" type="line"/>
      <point x="261" y="637"/>
      <point x="274" y="636"/>
      <point x="301" y="636"/>
      <point x="345" y="634"/>
      <point x="377" y="633" type="qcurve"/>
      <point x="377" y="631"/>
      <point x="374" y="617"/>
      <point x="364" y="584"/>
      <point x="346" y="529"/>
      <point x="333" y="486" type="qcurve"/>
      <point x="360" y="485"/>
      <point x="416" y="487"/>
      <point x="452" y="486" type="qcurve"/>
      <point x="460" y="499"/>
      <point x="486" y="579"/>
      <point x="502" y="639" type="qcurve"/>
      <point x="503" y="639" type="line"/>
      <point x="504" y="639" type="line"/>
      <point x="532" y="634"/>
      <point x="589" y="640"/>
      <point x="617" y="635" type="qcurve"/>
      <point x="618" y="629"/>
      <point x="616" y="616"/>
      <point x="607" y="586"/>
      <point x="590" y="531"/>
      <point x="576" y="483" type="qcurve"/>
      <point x="592" y="483"/>
      <point x="623" y="482"/>
      <point x="639" y="482" type="qcurve"/>
      <point x="639" y="478" type="line"/>
    </contour>
    <contour>
      <point x="379" y="258" type="line"/>
      <point x="379" y="259"/>
      <point x="380" y="260"/>
      <point x="380" y="261" type="qcurve"/>
      <point x="387" y="292"/>
      <point x="411" y="350"/>
      <point x="420" y="383" type="qcurve"/>
      <point x="420" y="384" type="line"/>
      <point x="419" y="384" type="line"/>
      <point x="418" y="384" type="line"/>
      <point x="386" y="385"/>
      <point x="328" y="386"/>
      <point x="299" y="386" type="qcurve"/>
      <point x="297" y="386" type="line"/>
      <point x="297" y="385" type="line"/>
      <point x="286" y="353"/>
      <point x="265" y="289"/>
      <point x="254" y="257" type="qcurve"/>
    </contour>
  </outline>
</glyph>
<glyph name="dollar" format="1">
  <advance width="445"/>
  <unicode hex="0024"/>
  <outline>
    <contour>
      <point x="340" y="325" type="qcurve"/>
      <point x="360" y="311"/>
      <point x="390" y="272"/>
      <point x="411" y="227"/>
      <point x="422" y="181"/>
      <point x="422" y="160" type="qcurve"/>
      <point x="422" y="128"/>
      <point x="395" y="70"/>
      <point x="363" y="44" type="qcurve"/>
      <point x="360" y="41"/>
      <point x="341" y="29"/>
      <point x="320" y="16"/>
      <point x="302" y="6"/>
      <point x="300" y="6" type="qcurve"/>
      <point x="300" y="3"/>
      <point x="299" y="-18"/>
      <point x="299" y="-41"/>
      <point x="299" y="-62"/>
      <point x="299" y="-65" type="qcurve"/>
      <point x="299" y="-69" type="line"/>
      <point x="299" y="-81"/>
      <point x="282" y="-96"/>
      <point x="261" y="-96" type="qcurve"/>
      <point x="251" y="-96"/>
      <point x="230" y="-97"/>
      <point x="219" y="-97" type="qcurve"/>
      <point x="191" y="-97" type="line"/>
      <point x="173" y="-97"/>
      <point x="158" y="-84"/>
      <point x="155" y="-63"/>
      <point x="158" y="-38"/>
      <point x="155" y="-14"/>
      <point x="143" y="6"/>
      <point x="126" y="11" type="qcurve"/>
      <point x="90" y="23"/>
      <point x="47" y="57"/>
      <point x="26" y="102"/>
      <point x="20" y="158"/>
      <point x="20" y="191" type="qcurve"/>
      <point x="20" y="206"/>
      <point x="21" y="226"/>
      <point x="30" y="237"/>
      <point x="49" y="242"/>
      <point x="66" y="242" type="qcurve"/>
      <point x="77" y="242"/>
      <point x="96" y="240"/>
      <point x="105" y="239" type="qcurve"/>
      <point x="117" y="238"/>
      <point x="142" y="239"/>
      <point x="161" y="235"/>
      <point x="174" y="221"/>
      <point x="174" y="206" type="qcurve"/>
      <point x="174" y="198"/>
      <point x="175" y="183"/>
      <point x="175" y="175" type="qcurve"/>
      <point x="175" y="159"/>
      <point x="191" y="131"/>
      <point x="217" y="131" type="qcurve"/>
      <point x="233" y="131"/>
      <point x="263" y="151"/>
      <point x="263" y="167" type="qcurve"/>
      <point x="263" y="199"/>
      <point x="223" y="253"/>
      <point x="166" y="303"/>
      <point x="104" y="349"/>
      <point x="82" y="373" type="qcurve"/>
      <point x="59" y="399"/>
      <point x="28" y="471"/>
      <point x="28" y="507" type="qcurve"/>
      <point x="28" y="532"/>
      <point x="45" y="578"/>
      <point x="64" y="597" type="qcurve"/>
      <point x="81" y="614"/>
      <point x="131" y="642"/>
      <point x="154" y="649" type="qcurve"/>
      <point x="159" y="651"/>
      <point x="157" y="658"/>
      <point x="157" y="663" type="qcurve"/>
      <point x="157" y="665"/>
      <point x="155" y="687"/>
      <point x="154" y="713"/>
      <point x="152" y="735"/>
      <point x="152" y="737" type="qcurve"/>
      <point x="152" y="744"/>
      <point x="163" y="751"/>
      <point x="181" y="754"/>
      <point x="201" y="753"/>
      <point x="210" y="753" type="qcurve"/>
      <point x="208" y="753"/>
      <point x="232" y="753"/>
      <point x="264" y="752"/>
      <point x="293" y="746"/>
      <point x="296" y="740" type="qcurve"/>
      <point x="296" y="658" type="line"/>
      <point x="296" y="645"/>
      <point x="309" y="644" type="qcurve"/>
      <point x="328" y="642"/>
      <point x="360" y="624"/>
      <point x="387" y="600"/>
      <point x="406" y="573"/>
      <point x="412" y="561" type="qcurve"/>
      <point x="423" y="538"/>
      <point x="426" y="495"/>
      <point x="426" y="468" type="qcurve"/>
      <point x="426" y="453"/>
      <point x="408" y="442"/>
      <point x="392" y="442" type="qcurve"/>
      <point x="376" y="442" type="line"/>
      <point x="361" y="442"/>
      <point x="335" y="440"/>
      <point x="320" y="440" type="qcurve"/>
      <point x="288" y="440"/>
      <point x="271" y="465"/>
      <point x="267" y="496"/>
      <point x="258" y="521"/>
      <point x="234" y="521" type="qcurve"/>
      <point x="218" y="521"/>
      <point x="187" y="494"/>
      <point x="187" y="476" type="qcurve"/>
      <point x="187" y="454"/>
      <point x="219" y="413"/>
      <point x="266" y="374"/>
      <point x="319" y="340"/>
    </contour>
  </outline>
</glyph>
<glyph name="asterisk" format="1">
  <advance width="367"/>
  <unicode hex="002A"/>
  <outline>
    <contour>
      <point x="254" y="362" type="line"/>
      <point x="252" y="360"/>
      <point x="251" y="362" type="qcurve"/>
      <point x="249" y="365"/>
      <point x="234" y="380"/>
      <point x="232" y="381" type="qcurve"/>
      <point x="228" y="385"/>
      <point x="212" y="400"/>
      <point x="195" y="417"/>
      <point x="181" y="429"/>
      <point x="179" y="430" type="qcurve"/>
      <point x="175" y="428"/>
      <point x="159" y="412"/>
      <point x="140" y="394"/>
      <point x="120" y="376"/>
      <point x="113" y="371" type="qcurve"/>
      <point x="111" y="369"/>
      <point x="108" y="367"/>
      <point x="106" y="367" type="qcurve"/>
      <point x="80" y="392"/>
      <point x="42" y="428"/>
      <point x="20" y="446" type="qcurve"/>
      <point x="23" y="451"/>
      <point x="39" y="469"/>
      <point x="59" y="491"/>
      <point x="81" y="514"/>
      <point x="89" y="523" type="qcurve"/>
      <point x="90" y="524"/>
      <point x="88" y="528" type="qcurve"/>
      <point x="85" y="534"/>
      <point x="64" y="559"/>
      <point x="41" y="586"/>
      <point x="21" y="608"/>
      <point x="19" y="613" type="qcurve"/>
      <point x="23" y="614"/>
      <point x="46" y="637"/>
      <point x="73" y="665"/>
      <point x="99" y="691"/>
      <point x="106" y="696" type="qcurve"/>
      <point x="107" y="697" type="line"/>
      <point x="110" y="696"/>
      <point x="132" y="676"/>
      <point x="158" y="652"/>
      <point x="182" y="630"/>
      <point x="186" y="627" type="qcurve"/>
      <point x="187" y="628"/>
      <point x="211" y="650"/>
      <point x="239" y="676"/>
      <point x="261" y="696"/>
      <point x="260" y="695" type="qcurve"/>
      <point x="262" y="692"/>
      <point x="287" y="668"/>
      <point x="316" y="639"/>
      <point x="341" y="614"/>
      <point x="344" y="611" type="qcurve"/>
      <point x="343" y="602"/>
      <point x="325" y="580"/>
      <point x="302" y="558"/>
      <point x="281" y="537"/>
      <point x="278" y="529" type="qcurve"/>
      <point x="279" y="529"/>
      <point x="301" y="505"/>
      <point x="325" y="476"/>
      <point x="346" y="451"/>
      <point x="348" y="450" type="qcurve"/>
      <point x="349" y="446"/>
      <point x="342" y="436"/>
      <point x="331" y="425"/>
      <point x="321" y="417"/>
      <point x="319" y="414" type="qcurve"/>
    </contour>
  </outline>
</glyph>
<glyph name="plus" format="1">
  <advance width="445"/>
  <unicode hex="002B"/>
  <outline>
    <contour>
      <point x="142" y="114" type="qcurve"/>
      <point x="142" y="115"/>
      <point x="141" y="115"/>
      <point x="141" y="117" type="qcurve"/>
      <point x="139" y="132"/>
      <point x="139" y="155"/>
      <point x="140" y="177"/>
      <point x="140" y="201"/>
      <point x="139" y="219" type="qcurve"/>
      <point x="139" y="227"/>
      <point x="138" y="238"/>
      <point x="137" y="239" type="qcurve"/>
      <point x="135" y="239" type="line"/>
      <point x="129" y="239"/>
      <point x="97" y="241"/>
      <point x="60" y="243"/>
      <point x="28" y="247"/>
      <point x="24" y="249" type="qcurve"/>
      <point x="23" y="250"/>
      <point x="23" y="251" type="qcurve"/>
      <point x="24" y="262"/>
      <point x="23" y="304"/>
      <point x="21" y="347"/>
      <point x="19" y="381"/>
      <point x="19" y="384" type="qcurve"/>
      <point x="22" y="383"/>
      <point x="60" y="386"/>
      <point x="105" y="389"/>
      <point x="143" y="393"/>
      <point x="146" y="394" type="qcurve"/>
      <point x="146" y="405"/>
      <point x="147" y="436"/>
      <point x="148" y="457" type="qcurve"/>
      <point x="149" y="471"/>
      <point x="151" y="496"/>
      <point x="152" y="506" type="qcurve"/>
      <point x="153" y="512"/>
      <point x="154" y="519"/>
      <point x="155" y="524" type="qcurve"/>
      <point x="161" y="520"/>
      <point x="202" y="518"/>
      <point x="249" y="520"/>
      <point x="292" y="521"/>
      <point x="300" y="520" type="qcurve"/>
      <point x="300" y="509"/>
      <point x="300" y="471"/>
      <point x="300" y="432"/>
      <point x="300" y="401"/>
      <point x="302" y="396" type="qcurve"/>
      <point x="314" y="395"/>
      <point x="346" y="395"/>
      <point x="380" y="395"/>
      <point x="412" y="394"/>
      <point x="423" y="392" type="qcurve"/>
      <point x="421" y="350"/>
      <point x="423" y="284"/>
      <point x="419" y="247" type="qcurve"/>
      <point x="416" y="245"/>
      <point x="382" y="244"/>
      <point x="341" y="244"/>
      <point x="305" y="243"/>
      <point x="300" y="240" type="qcurve"/>
      <point x="301" y="231"/>
      <point x="299" y="197"/>
      <point x="296" y="159"/>
      <point x="293" y="125"/>
      <point x="293" y="118" type="qcurve"/>
      <point x="293" y="116" type="line"/>
      <point x="293" y="113"/>
      <point x="247" y="112"/>
      <point x="192" y="113"/>
      <point x="144" y="115"/>
    </contour>
  </outline>
</glyph>
<glyph name="slash" format="1">
  <advance width="412"/>
  <unicode hex="002F"/>
  <outline>
    <contour>
      <point x="151" y="7" type="line"/>
      <point x="149" y="3"/>
      <point x="148" y="2" type="qcurve"/>
      <point x="142" y="1"/>
      <point x="127" y="0"/>
      <point x="100" y="0"/>
      <point x="57" y="0"/>
      <point x="23" y="-1" type="qcurve"/>
      <point x="22" y="-1" type="line"/>
      <point x="18" y="-1"/>
      <point x="24" y="25"/>
      <point x="35" y="57"/>
      <point x="47" y="86"/>
      <point x="48" y="90" type="qcurve"/>
      <point x="55" y="112"/>
      <point x="70" y="156"/>
      <point x="80" y="178" type="qcurve"/>
      <point x="82" y="185"/>
      <point x="89" y="207"/>
      <point x="108" y="261"/>
      <point x="144" y="357"/>
      <point x="174" y="438" type="qcurve"/>
      <point x="185" y="467"/>
      <point x="202" y="525"/>
      <point x="212" y="554" type="qcurve"/>
      <point x="213" y="556"/>
      <point x="223" y="584"/>
      <point x="238" y="627"/>
      <point x="254" y="681"/>
      <point x="261" y="709" type="qcurve"/>
      <point x="275" y="706"/>
      <point x="311" y="707"/>
      <point x="347" y="709"/>
      <point x="381" y="707"/>
      <point x="393" y="701" type="qcurve"/>
      <point x="391" y="696"/>
      <point x="389" y="689"/>
      <point x="387" y="683" type="qcurve"/>
      <point x="383" y="669"/>
      <point x="363" y="604"/>
      <point x="343" y="538" type="qcurve"/>
      <point x="333" y="510"/>
      <point x="313" y="455"/>
      <point x="304" y="428" type="qcurve"/>
      <point x="285" y="373"/>
      <point x="250" y="265"/>
      <point x="230" y="211" type="qcurve"/>
      <point x="225" y="196"/>
      <point x="214" y="166"/>
      <point x="208" y="151" type="qcurve"/>
    </contour>
  </outline>
</glyph>
<glyph name="four" format="1">
  <advance width="469"/>
  <unicode hex="0034"/>
  <outline>
    <contour>
      <point x="391" y="330" type="line"/>
      <point x="404" y="332"/>
      <point x="440" y="328"/>
      <point x="452" y="328" type="qcurve"/>
      <point x="446" y="183" type="line"/>
      <point x="430" y="178"/>
      <point x="399" y="183"/>
      <point x="385" y="180" type="qcurve"/>
      <point x="385" y="181"/>
      <point x="383" y="158"/>
      <point x="380" y="121"/>
      <point x="377" y="78"/>
      <point x="374" y="38"/>
      <point x="372" y="8"/>
      <point x="371" y="4" type="qcurve"/>
      <point x="365" y="-3"/>
      <point x="296" y="-2"/>
      <point x="227" y="-3" type="qcurve"/>
      <point x="226" y="-2"/>
      <point x="228" y="26"/>
      <point x="230" y="67"/>
      <point x="233" y="115"/>
      <point x="236" y="157"/>
      <point x="238" y="187"/>
      <point x="238" y="189" type="qcurve"/>
      <point x="234" y="190"/>
      <point x="200" y="192"/>
      <point x="153" y="192"/>
      <point x="100" y="191"/>
      <point x="55" y="191"/>
      <point x="25" y="192"/>
      <point x="24" y="194" type="qcurve"/>
      <point x="22" y="201"/>
      <point x="12" y="279"/>
      <point x="14" y="339" type="qcurve"/>
      <point x="24" y="353"/>
      <point x="52" y="406"/>
      <point x="101" y="493"/>
      <point x="176" y="617"/>
      <point x="232" y="701" type="qcurve"/>
      <point x="232" y="702"/>
      <point x="233" y="702" type="qcurve"/>
      <point x="237" y="702"/>
      <point x="282" y="703"/>
      <point x="334" y="704"/>
      <point x="382" y="705"/>
      <point x="390" y="704" type="qcurve"/>
      <point x="392" y="704" type="line"/>
      <point x="392" y="703"/>
      <point x="390" y="651"/>
      <point x="388" y="572"/>
      <point x="385" y="479"/>
      <point x="384" y="397"/>
      <point x="384" y="336"/>
      <point x="385" y="329" type="qcurve"/>
    </contour>
    <contour>
      <point x="268" y="541" type="line"/>
      <point x="267" y="547"/>
      <point x="248" y="520"/>
      <point x="219" y="474"/>
      <point x="185" y="417"/>
      <point x="155" y="366"/>
      <point x="134" y="330"/>
      <point x="133" y="328" type="qcurve"/>
      <point x="133" y="328"/>
      <point x="169" y="327"/>
      <point x="215" y="326"/>
      <point x="258" y="326"/>
      <point x="265" y="327" type="qcurve"/>
    </contour>
  </outline>
</glyph>
<glyph name="five" format="1">
  <advance width="503"/>
  <unicode hex="0035"/>
  <outline>
    <contour>
      <point x="185" y="221" type="line"/>
      <point x="185" y="220" type="line"/>
      <point x="185" y="219"/>
      <point x="186" y="217"/>
      <point x="186" y="216" type="qcurve"/>
      <point x="190" y="179"/>
      <point x="226" y="153"/>
      <point x="249" y="158" type="qcurve"/>
      <point x="284" y="164"/>
      <point x="317" y="219"/>
      <point x="317" y="283"/>
      <point x="286" y="341"/>
      <point x="256" y="350" type="qcurve"/>
      <point x="230" y="354"/>
      <point x="173" y="353"/>
      <point x="115" y="350"/>
      <point x="61" y="348"/>
      <point x="40" y="350" type="qcurve"/>
      <point x="38" y="350"/>
      <point x="38" y="351" type="qcurve"/>
      <point x="38" y="401"/>
      <point x="38" y="486"/>
      <point x="37" y="567"/>
      <point x="36" y="649"/>
      <point x="36" y="696" type="qcurve"/>
      <point x="37" y="696" type="line"/>
      <point x="40" y="696"/>
      <point x="102" y="698"/>
      <point x="193" y="700"/>
      <point x="298" y="702"/>
      <point x="390" y="703"/>
      <point x="456" y="703"/>
      <point x="463" y="702" type="qcurve"/>
      <point x="464" y="701"/>
      <point x="464" y="679"/>
      <point x="464" y="647"/>
      <point x="462" y="609"/>
      <point x="461" y="577"/>
      <point x="460" y="554"/>
      <point x="460" y="554" type="qcurve"/>
      <point x="453" y="553"/>
      <point x="410" y="551"/>
      <point x="353" y="550"/>
      <point x="290" y="548"/>
      <point x="234" y="547"/>
      <point x="193" y="547"/>
      <point x="187" y="547" type="qcurve"/>
      <point x="186" y="547" type="line"/>
      <point x="186" y="545" type="line"/>
      <point x="186" y="544" type="line"/>
      <point x="186" y="543"/>
      <point x="187" y="542"/>
      <point x="187" y="541" type="qcurve"/>
      <point x="189" y="533"/>
      <point x="189" y="513"/>
      <point x="193" y="507" type="qcurve"/>
      <point x="194" y="506" type="line"/>
      <point x="195" y="505" type="line"/>
      <point x="196" y="505" type="line"/>
      <point x="252" y="516"/>
      <point x="301" y="507" type="qcurve"/>
      <point x="361" y="498"/>
      <point x="435" y="423"/>
      <point x="473" y="317"/>
      <point x="478" y="193"/>
      <point x="470" y="134" type="qcurve"/>
      <point x="460" y="88"/>
      <point x="388" y="23"/>
      <point x="291" y="-9"/>
      <point x="183" y="-9"/>
      <point x="94" y="27"/>
      <point x="36" y="100"/>
      <point x="37" y="156" type="qcurve"/>
      <point x="37" y="182"/>
      <point x="43" y="214" type="qcurve"/>
      <point x="43" y="216" type="line"/>
    </contour>
  </outline>
</glyph>
<glyph name="six" format="1">
  <advance width="503"/>
  <unicode hex="0036"/>
  <outline>
    <contour>
      <point x="481" y="203" type="line"/>
      <point x="487" y="143"/>
      <point x="441" y="60"/>
      <point x="359" y="11"/>
      <point x="252" y="-7"/>
      <point x="197" y="-1" type="qcurve"/>
      <point x="152" y="7"/>
      <point x="92" y="58"/>
      <point x="54" y="134"/>
      <point x="36" y="229"/>
      <point x="31" y="333"/>
      <point x="35" y="440"/>
      <point x="38" y="489" type="qcurve"/>
      <point x="40" y="510"/>
      <point x="40" y="551"/>
      <point x="46" y="571" type="qcurve"/>
      <point x="47" y="575"/>
      <point x="49" y="581"/>
      <point x="51" y="585" type="qcurve"/>
      <point x="64" y="615"/>
      <point x="115" y="661"/>
      <point x="180" y="692"/>
      <point x="253" y="708"/>
      <point x="289" y="708" type="qcurve"/>
      <point x="336" y="709"/>
      <point x="410" y="670"/>
      <point x="456" y="605"/>
      <point x="471" y="525"/>
      <point x="460" y="485" type="qcurve"/>
      <point x="431" y="480"/>
      <point x="363" y="480"/>
      <point x="328" y="478" type="qcurve"/>
      <point x="326" y="478" type="line"/>
      <point x="326" y="479" type="line"/>
      <point x="325" y="496"/>
      <point x="315" y="535"/>
      <point x="303" y="548" type="qcurve"/>
      <point x="289" y="564"/>
      <point x="244" y="561"/>
      <point x="230" y="547" type="qcurve"/>
      <point x="211" y="531"/>
      <point x="199" y="479"/>
      <point x="200" y="418"/>
      <point x="205" y="354"/>
      <point x="204" y="326" type="qcurve"/>
      <point x="204" y="325" type="line"/>
      <point x="228" y="339"/>
      <point x="255" y="347" type="qcurve"/>
      <point x="282" y="354"/>
      <point x="347" y="362"/>
      <point x="376" y="354" type="qcurve"/>
      <point x="419" y="340"/>
      <point x="445" y="311" type="qcurve"/>
      <point x="460" y="297"/>
      <point x="476" y="250"/>
      <point x="479" y="227" type="qcurve"/>
    </contour>
    <contour>
      <point x="362" y="204" type="line"/>
      <point x="362" y="213"/>
      <point x="361" y="217" type="qcurve"/>
      <point x="358" y="229"/>
      <point x="342" y="247"/>
      <point x="329" y="249" type="qcurve"/>
      <point x="309" y="252"/>
      <point x="269" y="238"/>
      <point x="255" y="219" type="qcurve"/>
      <point x="242" y="201"/>
      <point x="257" y="163"/>
      <point x="272" y="155" type="qcurve"/>
      <point x="283" y="150"/>
      <point x="318" y="150"/>
      <point x="333" y="158" type="qcurve"/>
      <point x="344" y="163"/>
      <point x="360" y="180"/>
      <point x="362" y="191" type="qcurve"/>
      <point x="362" y="200" type="line"/>
      <point x="362" y="202" type="line"/>
    </contour>
  </outline>
</glyph>
<glyph name="nine" format="1">
  <advance width="513"/>
  <unicode hex="0039"/>
  <outline>
    <contour>
      <point x="476" y="323" type="line"/>
      <point x="477" y="290"/>
      <point x="481" y="225"/>
      <point x="477" y="192" type="qcurve"/>
      <point x="472" y="155"/>
      <point x="448" y="86"/>
      <point x="427" y="57" type="qcurve"/>
      <point x="406" y="32"/>
      <point x="344" y="3"/>
      <point x="273" y="-7"/>
      <point x="197" y="2"/>
      <point x="128" y="26"/>
      <point x="71" y="64"/>
      <point x="54" y="89" type="qcurve"/>
      <point x="20" y="140"/>
      <point x="30" y="217" type="qcurve"/>
      <point x="30" y="222" type="line"/>
      <point x="65" y="223"/>
      <point x="150" y="229"/>
      <point x="187" y="224" type="qcurve"/>
      <point x="192" y="204"/>
      <point x="227" y="175"/>
      <point x="250" y="177" type="qcurve"/>
      <point x="268" y="179"/>
      <point x="291" y="203"/>
      <point x="302" y="239"/>
      <point x="304" y="281"/>
      <point x="303" y="300" type="qcurve"/>
      <point x="302" y="301" type="line"/>
      <point x="269" y="287"/>
      <point x="198" y="286"/>
      <point x="133" y="308"/>
      <point x="78" y="349"/>
      <point x="59" y="378" type="qcurve"/>
      <point x="45" y="399"/>
      <point x="30" y="457"/>
      <point x="27" y="518"/>
      <point x="35" y="576"/>
      <point x="44" y="598" type="qcurve"/>
      <point x="49" y="607"/>
      <point x="59" y="624"/>
      <point x="66" y="632" type="qcurve"/>
      <point x="99" y="671"/>
      <point x="201" y="707"/>
      <point x="256" y="709" type="qcurve"/>
      <point x="281" y="708"/>
      <point x="334" y="708"/>
      <point x="383" y="699"/>
      <point x="425" y="676"/>
      <point x="440" y="653" type="qcurve"/>
      <point x="463" y="618"/>
      <point x="473" y="522"/>
      <point x="474" y="471" type="qcurve"/>
    </contour>
    <contour>
      <point x="322" y="482" type="qcurve"/>
      <point x="323" y="487"/>
      <point x="323" y="495" type="qcurve"/>
      <point x="324" y="510"/>
      <point x="308" y="534"/>
      <point x="281" y="548"/>
      <point x="247" y="549"/>
      <point x="232" y="542" type="qcurve"/>
      <point x="219" y="537"/>
      <point x="201" y="519"/>
      <point x="201" y="504" type="qcurve"/>
      <point x="202" y="494"/>
      <point x="205" y="475"/>
      <point x="208" y="467" type="qcurve"/>
      <point x="208" y="466" type="line"/>
      <point x="215" y="451"/>
      <point x="244" y="435"/>
      <point x="275" y="433"/>
      <point x="304" y="445"/>
      <point x="312" y="457" type="qcurve"/>
      <point x="315" y="462"/>
      <point x="316" y="465"/>
      <point x="318" y="469" type="qcurve"/>
      <point x="320" y="474"/>
      <point x="320" y="477"/>
    </contour>
  </outline>
</glyph>
<glyph name="equal" format="1">
  <advance width="466"/>
  <unicode hex="003D"/>
  <outline>
    <contour>
      <point x="41" y="326" type="qcurve"/>
      <point x="41" y="336"/>
      <point x="42" y="379"/>
      <point x="43" y="424"/>
      <point x="44" y="460"/>
      <point x="44" y="463" type="qcurve"/>
      <point x="45" y="463"/>
      <point x="96" y="463"/>
      <point x="174" y="463"/>
      <point x="266" y="463"/>
      <point x="350" y="463"/>
      <point x="413" y="463"/>
      <point x="423" y="463" type="qcurve"/>
      <point x="424" y="428"/>
      <point x="420" y="354"/>
      <point x="426" y="320" type="qcurve"/>
      <point x="425" y="320" type="line"/>
      <point x="420" y="320"/>
      <point x="362" y="320"/>
      <point x="280" y="321"/>
      <point x="186" y="323"/>
      <point x="104" y="325"/>
      <point x="46" y="326"/>
    </contour>
    <contour>
      <point x="41" y="119" type="qcurve"/>
      <point x="41" y="129"/>
      <point x="42" y="172"/>
      <point x="43" y="217"/>
      <point x="44" y="253"/>
      <point x="44" y="256" type="qcurve"/>
      <point x="45" y="256"/>
      <point x="96" y="256"/>
      <point x="174" y="256"/>
      <point x="266" y="256"/>
      <point x="350" y="256"/>
      <point x="413" y="256"/>
      <point x="423" y="256" type="qcurve"/>
      <point x="424" y="221"/>
      <point x="420" y="147"/>
      <point x="426" y="113" type="qcurve"/>
      <point x="425" y="113" type="line"/>
      <point x="420" y="113"/>
      <point x="362" y="113"/>
      <point x="280" y="114"/>
      <point x="186" y="116"/>
      <point x="104" y="118"/>
      <point x="46" y="119"/>
    </contour>
  </outline>
</glyph>
<glyph name="greater" format="1">
  <advance width="363"/>
  <unicode hex="003E"/>
  <outline>
    <contour>
      <point x="20" y="93" type="line"/>
      <point x="68" y="132"/>
      <point x="158" y="226"/>
      <point x="205" y="267" type="qcurve"/>
      <point x="185" y="291"/>
      <point x="137" y="343"/>
      <point x="88" y="394"/>
      <point x="44" y="440"/>
      <point x="29" y="459" type="qcurve"/>
      <point x="38" y="465"/>
      <point x="58" y="484"/>
      <point x="77" y="504"/>
      <point x="96" y="523"/>
      <point x="105" y="528" type="qcurve"/>
      <point x="119" y="514"/>
      <point x="147" y="485"/>
      <point x="162" y="469" type="qcurve"/>
      <point x="185" y="445"/>
      <point x="235" y="394"/>
      <point x="285" y="343"/>
      <point x="331" y="294"/>
      <point x="350" y="270" type="qcurve"/>
      <point x="321" y="232"/>
      <point x="258" y="168"/>
      <point x="194" y="108"/>
      <point x="129" y="51"/>
      <point x="99" y="20" type="qcurve"/>
      <point x="98" y="19" type="line"/>
      <point x="83" y="32"/>
      <point x="65" y="49"/>
      <point x="54" y="59"/>
      <point x="49" y="65"/>
      <point x="47" y="67" type="qcurve"/>
      <point x="31" y="83" type="line"/>
    </contour>
  </outline>
</glyph>
<glyph name="at" format="1">
  <advance width="564"/>
  <unicode hex="0040"/>
  <outline>
    <contour>
      <point x="395" y="462" type="line"/>
      <point x="406" y="450"/>
      <point x="405" y="428" type="qcurve"/>
      <point x="405" y="422"/>
      <point x="404" y="407"/>
      <point x="404" y="399" type="qcurve"/>
      <point x="403" y="386"/>
      <point x="403" y="356"/>
      <point x="403" y="341" type="qcurve"/>
      <point x="403" y="322"/>
      <point x="405" y="286"/>
      <point x="409" y="256"/>
      <point x="418" y="238"/>
      <point x="424" y="237" type="qcurve"/>
      <point x="428" y="240"/>
      <point x="434" y="260"/>
      <point x="438" y="286"/>
      <point x="440" y="312"/>
      <point x="440" y="320" type="qcurve"/>
      <point x="441" y="337"/>
      <point x="440" y="366"/>
      <point x="439" y="380" type="qcurve"/>
      <point x="439" y="408" type="line"/>
      <point x="438" y="429"/>
      <point x="431" y="472"/>
      <point x="415" y="512"/>
      <point x="388" y="544"/>
      <point x="368" y="555" type="qcurve"/>
      <point x="369" y="555" type="line"/>
      <point x="355" y="562"/>
      <point x="314" y="570"/>
      <point x="297" y="572" type="qcurve"/>
      <point x="291" y="573"/>
      <point x="276" y="574"/>
      <point x="270" y="574" type="qcurve"/>
      <point x="243" y="574"/>
      <point x="191" y="558"/>
      <point x="171" y="538" type="qcurve"/>
      <point x="157" y="523"/>
      <point x="140" y="483"/>
      <point x="131" y="439"/>
      <point x="128" y="393"/>
      <point x="127" y="372" type="qcurve"/>
      <point x="126" y="361"/>
      <point x="126" y="338"/>
      <point x="126" y="327" type="qcurve"/>
      <point x="126" y="296"/>
      <point x="131" y="232"/>
      <point x="136" y="201" type="qcurve"/>
      <point x="142" y="161"/>
      <point x="166" y="105"/>
      <point x="193" y="88" type="qcurve"/>
      <point x="212" y="77"/>
      <point x="267" y="69"/>
      <point x="292" y="69" type="qcurve"/>
      <point x="300" y="69"/>
      <point x="316" y="70"/>
      <point x="322" y="70" type="qcurve"/>
      <point x="321" y="70" type="line"/>
      <point x="339" y="71"/>
      <point x="384" y="82"/>
      <point x="430" y="97"/>
      <point x="475" y="115"/>
      <point x="493" y="124" type="qcurve"/>
      <point x="531" y="42" type="line"/>
      <point x="517" y="33"/>
      <point x="481" y="15"/>
      <point x="443" y="-1"/>
      <point x="406" y="-13"/>
      <point x="392" y="-15" type="qcurve"/>
      <point x="369" y="-20"/>
      <point x="319" y="-23"/>
      <point x="293" y="-23" type="qcurve"/>
      <point x="257" y="-23"/>
      <point x="224" y="-20" type="qcurve"/>
      <point x="184" y="-15"/>
      <point x="114" y="21"/>
      <point x="90" y="53" type="qcurve"/>
      <point x="81" y="66"/>
      <point x="63" y="103"/>
      <point x="50" y="142"/>
      <point x="41" y="181"/>
      <point x="40" y="195" type="qcurve"/>
      <point x="37" y="246"/>
      <point x="33" y="328"/>
      <point x="33" y="376" type="qcurve"/>
      <point x="33" y="406" type="line"/>
      <point x="34" y="454"/>
      <point x="51" y="549"/>
      <point x="83" y="590" type="qcurve"/>
      <point x="111" y="625"/>
      <point x="187" y="651"/>
      <point x="229" y="656" type="qcurve"/>
      <point x="240" y="658"/>
      <point x="268" y="659"/>
      <point x="280" y="659" type="qcurve"/>
      <point x="301" y="659"/>
      <point x="343" y="655"/>
      <point x="363" y="652" type="qcurve"/>
      <point x="392" y="648"/>
      <point x="447" y="624"/>
      <point x="470" y="602" type="qcurve"/>
      <point x="493" y="581"/>
      <point x="518" y="527"/>
      <point x="530" y="468"/>
      <point x="533" y="408"/>
      <point x="533" y="380" type="qcurve"/>
      <point x="533" y="326" type="line"/>
      <point x="533" y="296"/>
      <point x="531" y="259"/>
      <point x="527" y="236" type="qcurve"/>
      <point x="520" y="198"/>
      <point x="461" y="155"/>
      <point x="418" y="154" type="qcurve"/>
      <point x="407" y="154"/>
      <point x="386" y="162"/>
      <point x="377" y="167" type="qcurve"/>
      <point x="375" y="169"/>
      <point x="364" y="180"/>
      <point x="359" y="187" type="qcurve"/>
      <point x="326" y="160"/>
      <point x="278" y="160" type="qcurve"/>
      <point x="226" y="160"/>
      <point x="193" y="196" type="qcurve"/>
      <point x="173" y="219"/>
      <point x="163" y="287"/>
      <point x="164" y="315" type="qcurve"/>
      <point x="166" y="380"/>
      <point x="206" y="426" type="qcurve"/>
      <point x="214" y="436"/>
      <point x="241" y="455"/>
      <point x="275" y="470"/>
      <point x="314" y="479"/>
      <point x="333" y="479" type="qcurve"/>
      <point x="349" y="479"/>
      <point x="379" y="472"/>
      <point x="392" y="464" type="qcurve"/>
    </contour>
    <contour>
      <point x="249" y="286" type="line"/>
      <point x="249" y="268"/>
      <point x="275" y="250"/>
      <point x="292" y="258" type="qcurve"/>
      <point x="309" y="265"/>
      <point x="319" y="300"/>
      <point x="319" y="320" type="qcurve"/>
      <point x="319" y="325"/>
      <point x="320" y="345"/>
      <point x="321" y="366"/>
      <point x="323" y="382"/>
      <point x="324" y="382" type="qcurve"/>
      <point x="304" y="384"/>
      <point x="272" y="377"/>
      <point x="263" y="359" type="qcurve"/>
      <point x="252" y="341"/>
      <point x="249" y="306"/>
      <point x="249" y="289" type="qcurve"/>
    </contour>
  </outline>
</glyph>
<glyph name="B" format="1">
  <advance width="477"/>
  <unicode hex="0042"/>
  <outline>
    <contour>
      <point x="395" y="331" type="qcurve"/>
      <point x="411" y="311"/>
      <point x="440" y="272"/>
      <point x="461" y="229"/>
      <point x="469" y="177"/>
      <point x="463" y="145" type="qcurve"/>
      <point x="455" y="98"/>
      <point x="410" y="39"/>
      <point x="346" y="7"/>
      <point x="268" y="-4"/>
      <point x="185" y="-5"/>
      <point x="102" y="1"/>
      <point x="66" y="2" type="qcurve"/>
      <point x="60" y="2"/>
      <point x="49" y="2"/>
      <point x="44" y="4" type="qcurve"/>
      <point x="38" y="177"/>
      <point x="44" y="518"/>
      <point x="41" y="692" type="qcurve"/>
      <point x="42" y="693" type="line"/>
      <point x="82" y="704"/>
      <point x="172" y="716"/>
      <point x="260" y="712"/>
      <point x="341" y="690"/>
      <point x="403" y="641"/>
      <point x="439" y="564"/>
      <point x="439" y="508" type="qcurve"/>
      <point x="439" y="466"/>
      <point x="410" y="386"/>
      <point x="390" y="352" type="qcurve"/>
      <point x="386" y="345"/>
      <point x="390" y="337"/>
    </contour>
    <contour>
      <point x="301" y="165" type="qcurve"/>
      <point x="312" y="180"/>
      <point x="311" y="222"/>
      <point x="304" y="239" type="qcurve"/>
      <point x="298" y="251"/>
      <point x="274" y="270"/>
      <point x="261" y="273" type="qcurve"/>
      <point x="242" y="278"/>
      <point x="202" y="279"/>
      <point x="183" y="281" type="qcurve"/>
      <point x="179" y="266"/>
      <point x="173" y="228"/>
      <point x="172" y="189"/>
      <point x="178" y="153"/>
      <point x="186" y="141" type="qcurve"/>
      <point x="188" y="140" type="line"/>
      <point x="202" y="140"/>
      <point x="233" y="139"/>
      <point x="264" y="142"/>
      <point x="291" y="153"/>
    </contour>
    <contour>
      <point x="300" y="450" type="qcurve"/>
      <point x="307" y="462"/>
      <point x="317" y="494"/>
      <point x="309" y="510" type="qcurve"/>
      <point x="301" y="526"/>
      <point x="276" y="543"/>
      <point x="260" y="547" type="qcurve"/>
      <point x="240" y="551"/>
      <point x="195" y="552"/>
      <point x="180" y="544" type="qcurve"/>
      <point x="182" y="521"/>
      <point x="175" y="455"/>
      <point x="184" y="420" type="qcurve"/>
      <point x="199" y="418"/>
      <point x="233" y="416"/>
      <point x="265" y="420"/>
      <point x="292" y="435"/>
    </contour>
  </outline>
</glyph>
<glyph name="D" format="1">
  <advance width="482"/>
  <unicode hex="0044"/>
  <outline>
    <contour>
      <point x="393" y="617" type="qcurve"/>
      <point x="415" y="583"/>
      <point x="444" y="510"/>
      <point x="453" y="470" type="qcurve"/>
      <point x="458" y="454"/>
      <point x="461" y="423"/>
      <point x="462" y="407" type="qcurve"/>
      <point x="460" y="360"/>
      <point x="457" y="265"/>
      <point x="448" y="219" type="qcurve"/>
      <point x="448" y="218"/>
      <point x="447" y="218"/>
      <point x="447" y="217" type="qcurve"/>
      <point x="427" y="158"/>
      <point x="358" y="52"/>
      <point x="320" y="5" type="qcurve"/>
      <point x="254" y="3"/>
      <point x="120" y="2"/>
      <point x="57" y="2" type="qcurve"/>
      <point x="57" y="2"/>
      <point x="56" y="1" type="qcurve"/>
      <point x="45" y="80"/>
      <point x="39" y="249"/>
      <point x="39" y="423"/>
      <point x="42" y="600"/>
      <point x="40" y="687" type="qcurve"/>
      <point x="41" y="688"/>
      <point x="42" y="690"/>
      <point x="43" y="691" type="qcurve"/>
      <point x="71" y="698"/>
      <point x="132" y="703"/>
      <point x="194" y="702"/>
      <point x="255" y="700"/>
      <point x="284" y="701" type="qcurve"/>
      <point x="316" y="693"/>
      <point x="375" y="646"/>
    </contour>
    <contour>
      <point x="301" y="254" type="qcurve"/>
      <point x="318" y="280"/>
      <point x="333" y="342"/>
      <point x="325" y="379" type="qcurve"/>
      <point x="322" y="394"/>
      <point x="314" y="427"/>
      <point x="299" y="457"/>
      <point x="277" y="480"/>
      <point x="260" y="486" type="qcurve"/>
      <point x="243" y="488"/>
      <point x="203" y="489"/>
      <point x="185" y="485" type="qcurve"/>
      <point x="183" y="485" type="line"/>
      <point x="182" y="485" type="line"/>
      <point x="182" y="481" type="line"/>
      <point x="184" y="454"/>
      <point x="184" y="392"/>
      <point x="182" y="325"/>
      <point x="182" y="256"/>
      <point x="184" y="222" type="qcurve"/>
      <point x="195" y="212"/>
      <point x="234" y="214"/>
      <point x="252" y="216" type="qcurve"/>
      <point x="257" y="215"/>
      <point x="265" y="220"/>
      <point x="270" y="222" type="qcurve"/>
      <point x="280" y="228"/>
      <point x="295" y="245"/>
    </contour>
  </outline>
</glyph>
<glyph name="F" format="1">
  <advance width="494"/>
  <unicode hex="0046"/>
  <outline>
    <contour>
      <point x="353" y="261" type="qcurve"/>
      <point x="322" y="256"/>
      <point x="255" y="251"/>
      <point x="225" y="246" type="qcurve"/>
      <point x="224" y="246" type="line"/>
      <point x="219" y="183"/>
      <point x="217" y="58"/>
      <point x="216" y="1" type="qcurve"/>
      <point x="196" y="-1"/>
      <point x="141" y="-3"/>
      <point x="87" y="-3"/>
      <point x="46" y="-1"/>
      <point x="42" y="1" type="qcurve"/>
      <point x="41" y="2" type="line"/>
      <point x="41" y="62"/>
      <point x="41" y="167"/>
      <point x="42" y="265"/>
      <point x="42" y="364"/>
      <point x="43" y="474"/>
      <point x="43" y="601"/>
      <point x="43" y="679" type="qcurve"/>
      <point x="43" y="680" type="line"/>
      <point x="60" y="683"/>
      <point x="124" y="689"/>
      <point x="205" y="695"/>
      <point x="296" y="698"/>
      <point x="384" y="697"/>
      <point x="462" y="689"/>
      <point x="490" y="682" type="qcurve"/>
      <point x="490" y="669"/>
      <point x="491" y="629"/>
      <point x="491" y="586"/>
      <point x="491" y="547"/>
      <point x="490" y="534" type="qcurve"/>
      <point x="463" y="532"/>
      <point x="396" y="528"/>
      <point x="325" y="525"/>
      <point x="254" y="521"/>
      <point x="223" y="518" type="qcurve"/>
      <point x="212" y="492"/>
      <point x="216" y="444"/>
      <point x="225" y="428" type="qcurve"/>
      <point x="226" y="427"/>
      <point x="227" y="427" type="qcurve"/>
      <point x="241" y="425"/>
      <point x="276" y="424"/>
      <point x="310" y="424"/>
      <point x="342" y="426"/>
      <point x="353" y="427" type="qcurve"/>
      <point x="356" y="420"/>
      <point x="357" y="380"/>
      <point x="355" y="331"/>
      <point x="354" y="281"/>
      <point x="356" y="263" type="qcurve"/>
      <point x="356" y="261"/>
    </contour>
  </outline>
</glyph>
<glyph name="G" format="1">
  <advance width="481"/>
  <unicode hex="0047"/>
  <outline>
    <contour>
      <point x="243" y="348" type="qcurve"/>
      <point x="256" y="356"/>
      <point x="315" y="359"/>
      <point x="381" y="357"/>
      <point x="438" y="352"/>
      <point x="448" y="352" type="qcurve"/>
      <point x="450" y="352" type="line"/>
      <point x="451" y="351" type="line"/>
      <point x="457" y="298"/>
      <point x="461" y="179"/>
      <point x="451" y="125" type="qcurve"/>
      <point x="446" y="74"/>
      <point x="394" y="20"/>
      <point x="356" y="6" type="qcurve"/>
      <point x="331" y="-1"/>
      <point x="277" y="-12"/>
      <point x="221" y="-17"/>
      <point x="168" y="-11"/>
      <point x="144" y="-1" type="qcurve"/>
      <point x="104" y="16"/>
      <point x="62" y="74"/>
      <point x="50" y="117" type="qcurve"/>
      <point x="47" y="128"/>
      <point x="40" y="167"/>
      <point x="38" y="187" type="qcurve"/>
      <point x="35" y="219"/>
      <point x="31" y="271"/>
      <point x="28" y="322"/>
      <point x="27" y="379"/>
      <point x="28" y="416" type="qcurve"/>
      <point x="29" y="448"/>
      <point x="33" y="515"/>
      <point x="38" y="547" type="qcurve"/>
      <point x="43" y="580"/>
      <point x="68" y="642"/>
      <point x="97" y="662" type="qcurve"/>
      <point x="117" y="679"/>
      <point x="167" y="695"/>
      <point x="194" y="699" type="qcurve"/>
      <point x="249" y="706"/>
      <point x="349" y="685"/>
      <point x="421" y="631"/>
      <point x="457" y="542"/>
      <point x="450" y="481" type="qcurve"/>
      <point x="449" y="475" type="line"/>
      <point x="447" y="472"/>
      <point x="433" y="472"/>
      <point x="417" y="471" type="qcurve"/>
      <point x="402" y="471"/>
      <point x="381" y="470"/>
      <point x="360" y="470"/>
      <point x="338" y="472"/>
      <point x="323" y="474" type="qcurve"/>
      <point x="320" y="484"/>
      <point x="309" y="513"/>
      <point x="292" y="538"/>
      <point x="270" y="557"/>
      <point x="255" y="557" type="qcurve"/>
      <point x="238" y="558"/>
      <point x="206" y="558"/>
      <point x="194" y="546" type="qcurve"/>
      <point x="192" y="544"/>
      <point x="185" y="527"/>
      <point x="183" y="519" type="qcurve"/>
      <point x="176" y="495"/>
      <point x="167" y="427"/>
      <point x="163" y="350"/>
      <point x="165" y="268"/>
      <point x="168" y="231" type="qcurve"/>
      <point x="170" y="209"/>
      <point x="182" y="157"/>
      <point x="201" y="142" type="qcurve"/>
      <point x="210" y="136"/>
      <point x="224" y="133" type="qcurve"/>
      <point x="239" y="131"/>
      <point x="272" y="137"/>
      <point x="286" y="142" type="qcurve"/>
      <point x="297" y="147"/>
      <point x="313" y="164"/>
      <point x="317" y="178" type="qcurve"/>
      <point x="318" y="182"/>
      <point x="321" y="201"/>
      <point x="322" y="221"/>
      <point x="321" y="237"/>
      <point x="318" y="238" type="qcurve"/>
      <point x="312" y="239"/>
      <point x="291" y="238"/>
      <point x="268" y="237"/>
      <point x="249" y="238"/>
      <point x="244" y="240" type="qcurve"/>
      <point x="242" y="256"/>
      <point x="241" y="280"/>
      <point x="242" y="303"/>
      <point x="242" y="327"/>
      <point x="240" y="345" type="qcurve"/>
      <point x="240" y="346" type="line"/>
      <point x="240" y="347"/>
      <point x="241" y="347" type="qcurve"/>
      <point x="241" y="347"/>
    </contour>
  </outline>
</glyph>
<glyph name="J" format="1">
  <advance width="463"/>
  <unicode hex="004A"/>
  <outline>
    <contour>
      <point x="425" y="712" type="line"/>
      <point x="423" y="618"/>
      <point x="431" y="426"/>
      <point x="429" y="329" type="qcurve"/>
      <point x="427" y="288"/>
      <point x="425" y="193"/>
      <point x="406" y="105"/>
      <point x="359" y="33"/>
      <point x="313" y="16" type="qcurve"/>
      <point x="271" y="-5"/>
      <point x="171" y="-10"/>
      <point x="126" y="0" type="qcurve"/>
      <point x="85" y="12"/>
      <point x="35" y="76"/>
      <point x="9" y="159"/>
      <point x="2" y="250"/>
      <point x="4" y="288" type="qcurve"/>
      <point x="17" y="291"/>
      <point x="56" y="293"/>
      <point x="98" y="293"/>
      <point x="141" y="289"/>
      <point x="159" y="286" type="qcurve"/>
      <point x="159" y="285" type="line"/>
      <point x="159" y="280" type="line"/>
      <point x="160" y="265"/>
      <point x="165" y="226"/>
      <point x="179" y="191"/>
      <point x="201" y="167"/>
      <point x="219" y="166" type="qcurve"/>
      <point x="234" y="163"/>
      <point x="256" y="173"/>
      <point x="271" y="194"/>
      <point x="279" y="221"/>
      <point x="280" y="236" type="qcurve"/>
      <point x="278" y="348"/>
      <point x="275" y="584"/>
      <point x="279" y="703" type="qcurve"/>
      <point x="279" y="710" type="line"/>
    </contour>
  </outline>
</glyph>
<glyph name="K" format="1">
  <advance width="459"/>
  <unicode hex="004B"/>
  <outline>
    <contour>
      <point x="463" y="4" type="line"/>
      <point x="431" y="-3"/>
      <point x="356" y="1"/>
      <point x="324" y="2" type="qcurve"/>
      <point x="303" y="26"/>
      <point x="267" y="93"/>
      <point x="234" y="165"/>
      <point x="202" y="235"/>
      <point x="186" y="263" type="qcurve"/>
      <point x="185" y="234"/>
      <point x="186" y="167"/>
      <point x="188" y="99"/>
      <point x="189" y="33"/>
      <point x="189" y="5" type="qcurve"/>
      <point x="175" y="1"/>
      <point x="137" y="-2"/>
      <point x="95" y="-2"/>
      <point x="56" y="2"/>
      <point x="43" y="5" type="qcurve"/>
      <point x="35" y="177"/>
      <point x="46" y="524"/>
      <point x="45" y="699" type="qcurve"/>
      <point x="78" y="700"/>
      <point x="147" y="697"/>
      <point x="179" y="697" type="qcurve"/>
      <point x="181" y="640"/>
      <point x="179" y="514"/>
      <point x="181" y="457" type="qcurve"/>
      <point x="181" y="456"/>
      <point x="184" y="461"/>
      <point x="186" y="463" type="qcurve"/>
      <point x="207" y="490"/>
      <point x="241" y="548"/>
      <point x="272" y="608"/>
      <point x="305" y="668"/>
      <point x="326" y="698" type="qcurve"/>
      <point x="358" y="696"/>
      <point x="430" y="700"/>
      <point x="462" y="695" type="qcurve"/>
      <point x="450" y="653"/>
      <point x="407" y="569"/>
      <point x="358" y="485"/>
      <point x="310" y="401"/>
      <point x="292" y="359" type="qcurve"/>
    </contour>
  </outline>
</glyph>
<glyph name="R" format="1">
  <advance width="518"/>
  <unicode hex="0052"/>
  <outline>
    <contour>
      <point x="517" y="3" type="line"/>
      <point x="482" y="3"/>
      <point x="396" y="-2"/>
      <point x="351" y="1" type="qcurve"/>
      <point x="350" y="1" type="line"/>
      <point x="340" y="24"/>
      <point x="310" y="88"/>
      <point x="274" y="158"/>
      <point x="232" y="226"/>
      <point x="211" y="252" type="qcurve"/>
      <point x="209" y="255" type="line"/>
      <point x="206" y="232"/>
      <point x="206" y="165"/>
      <point x="209" y="94"/>
      <point x="213" y="30"/>
      <point x="214" y="11" type="qcurve"/>
      <point x="197" y="4"/>
      <point x="142" y="0"/>
      <point x="88" y="-1"/>
      <point x="45" y="1"/>
      <point x="40" y="0" type="qcurve"/>
      <point x="42" y="0"/>
      <point x="44" y="55"/>
      <point x="44" y="145"/>
      <point x="44" y="262"/>
      <point x="43" y="387"/>
      <point x="40" y="510"/>
      <point x="38" y="613"/>
      <point x="35" y="686"/>
      <point x="33" y="699" type="qcurve"/>
      <point x="89" y="707"/>
      <point x="223" y="721"/>
      <point x="296" y="713" type="qcurve"/>
      <point x="355" y="710"/>
      <point x="449" y="648"/>
      <point x="501" y="556"/>
      <point x="504" y="445"/>
      <point x="473" y="393" type="qcurve"/>
      <point x="454" y="357"/>
      <point x="391" y="309"/>
      <point x="343" y="306" type="qcurve"/>
      <point x="339" y="306" type="line"/>
      <point x="338" y="306" type="line"/>
      <point x="338" y="305" type="line"/>
      <point x="359" y="268"/>
      <point x="409" y="195"/>
      <point x="457" y="121"/>
      <point x="501" y="44"/>
      <point x="516" y="3" type="qcurve"/>
    </contour>
    <contour>
      <point x="179" y="559" type="qcurve"/>
      <point x="180" y="546"/>
      <point x="181" y="513"/>
      <point x="181" y="479"/>
      <point x="182" y="447"/>
      <point x="184" y="436" type="qcurve"/>
      <point x="185" y="436" type="line"/>
      <point x="208" y="434"/>
      <point x="262" y="432"/>
      <point x="286" y="436" type="qcurve"/>
      <point x="305" y="440"/>
      <point x="326" y="471"/>
      <point x="330" y="508"/>
      <point x="318" y="545"/>
      <point x="304" y="556" type="qcurve"/>
      <point x="282" y="576"/>
      <point x="214" y="573"/>
    </contour>
  </outline>
</glyph>
<glyph name="V" format="1">
  <advance width="440"/>
  <unicode hex="0056"/>
  <outline>
    <contour>
      <point x="445" y="684" type="qcurve"/>
      <point x="428" y="595"/>
      <point x="389" y="425"/>
      <point x="347" y="257"/>
      <point x="303" y="88"/>
      <point x="279" y="1" type="qcurve"/>
      <point x="271" y="1"/>
      <point x="237" y="-3"/>
      <point x="216" y="-3" type="qcurve"/>
      <point x="194" y="-3"/>
      <point x="149" y="0"/>
      <point x="133" y="5" type="qcurve"/>
      <point x="88" y="167"/>
      <point x="30" y="508"/>
      <point x="16" y="681" type="qcurve"/>
      <point x="16" y="682" type="line"/>
      <point x="22" y="689"/>
      <point x="62" y="695"/>
      <point x="108" y="696"/>
      <point x="150" y="694"/>
      <point x="158" y="692" type="qcurve"/>
      <point x="162" y="672"/>
      <point x="164" y="582"/>
      <point x="172" y="456"/>
      <point x="191" y="304"/>
      <point x="211" y="223" type="qcurve"/>
      <point x="230" y="304"/>
      <point x="254" y="439"/>
      <point x="272" y="553"/>
      <point x="288" y="649"/>
      <point x="299" y="691" type="qcurve"/>
      <point x="299" y="693"/>
      <point x="301" y="693" type="qcurve"/>
      <point x="318" y="689"/>
      <point x="354" y="688"/>
      <point x="391" y="688"/>
      <point x="428" y="687"/>
    </contour>
  </outline>
</glyph>
<glyph name="backslash" format="1">
  <advance width="412"/>
  <unicode hex="005C"/>
  <outline>
    <contour>
      <point x="204" y="151" type="line"/>
      <point x="198" y="166"/>
      <point x="187" y="196"/>
      <point x="182" y="211" type="qcurve"/>
      <point x="162" y="265"/>
      <point x="127" y="373"/>
      <point x="108" y="428" type="qcurve"/>
      <point x="99" y="455"/>
      <point x="79" y="510"/>
      <point x="69" y="538" type="qcurve"/>
      <point x="49" y="604"/>
      <point x="29" y="669"/>
      <point x="25" y="683" type="qcurve"/>
      <point x="23" y="689"/>
      <point x="21" y="696"/>
      <point x="19" y="701" type="qcurve"/>
      <point x="31" y="707"/>
      <point x="65" y="709"/>
      <point x="101" y="707"/>
      <point x="137" y="706"/>
      <point x="151" y="709" type="qcurve"/>
      <point x="158" y="681"/>
      <point x="174" y="627"/>
      <point x="189" y="584"/>
      <point x="199" y="556"/>
      <point x="200" y="554" type="qcurve"/>
      <point x="210" y="525"/>
      <point x="227" y="467"/>
      <point x="238" y="438" type="qcurve"/>
      <point x="268" y="357"/>
      <point x="304" y="261"/>
      <point x="323" y="207"/>
      <point x="330" y="185"/>
      <point x="332" y="178" type="qcurve"/>
      <point x="342" y="156"/>
      <point x="357" y="112"/>
      <point x="364" y="90" type="qcurve"/>
      <point x="365" y="86"/>
      <point x="377" y="57"/>
      <point x="388" y="25"/>
      <point x="394" y="-1"/>
      <point x="390" y="-1" type="qcurve"/>
      <point x="389" y="-1" type="line"/>
      <point x="355" y="0"/>
      <point x="311" y="0"/>
      <point x="284" y="0"/>
      <point x="270" y="1"/>
      <point x="264" y="2" type="qcurve"/>
      <point x="263" y="3"/>
      <point x="261" y="7" type="qcurve"/>
    </contour>
  </outline>
</glyph>
<glyph name="asciicircum" format="1">
  <advance width="440"/>
  <unicode hex="005E"/>
  <outline>
    <contour>
      <point x="430" y="479" type="line"/>
      <point x="428" y="480"/>
      <point x="405" y="476"/>
      <point x="366" y="471"/>
      <point x="313" y="469"/>
      <point x="283" y="473" type="qcurve"/>
      <point x="278" y="473"/>
      <point x="261" y="490"/>
      <point x="242" y="512"/>
      <point x="223" y="532"/>
      <point x="217" y="535" type="qcurve"/>
      <point x="211" y="533"/>
      <point x="192" y="514"/>
      <point x="172" y="493"/>
      <point x="154" y="474"/>
      <point x="149" y="473" type="qcurve"/>
      <point x="137" y="472"/>
      <point x="123" y="471"/>
      <point x="99" y="473"/>
      <point x="54" y="476"/>
      <point x="11" y="478" type="qcurve"/>
      <point x="54" y="537"/>
      <point x="163" y="636"/>
      <point x="220" y="689" type="qcurve"/>
    </contour>
  </outline>
</glyph>
<glyph name="f" format="1">
  <advance width="379"/>
  <unicode hex="0066"/>
  <outline>
    <contour>
      <point x="216" y="4" type="line"/>
      <point x="199" y="6"/>
      <point x="165" y="4"/>
      <point x="131" y="1"/>
      <point x="100" y="-1"/>
      <point x="87" y="1" type="qcurve"/>
      <point x="85" y="13"/>
      <point x="84" y="68"/>
      <point x="83" y="137"/>
      <point x="83" y="213"/>
      <point x="84" y="284"/>
      <point x="85" y="340"/>
      <point x="85" y="355" type="qcurve"/>
      <point x="69" y="355"/>
      <point x="34" y="355"/>
      <point x="14" y="354" type="qcurve"/>
      <point x="11" y="476" type="line"/>
      <point x="32" y="476"/>
      <point x="67" y="476"/>
      <point x="83" y="475" type="qcurve"/>
      <point x="81" y="500"/>
      <point x="87" y="558"/>
      <point x="110" y="613"/>
      <point x="152" y="658"/>
      <point x="186" y="669" type="qcurve"/>
      <point x="228" y="683"/>
      <point x="327" y="690"/>
      <point x="374" y="688" type="qcurve"/>
      <point x="379" y="673"/>
      <point x="382" y="637"/>
      <point x="380" y="601"/>
      <point x="376" y="567"/>
      <point x="374" y="553" type="qcurve"/>
      <point x="362" y="554"/>
      <point x="331" y="552"/>
      <point x="297" y="548"/>
      <point x="263" y="543"/>
      <point x="249" y="541" type="qcurve"/>
      <point x="226" y="537"/>
      <point x="215" y="498"/>
      <point x="220" y="473" type="qcurve"/>
      <point x="373" y="473" type="line"/>
      <point x="371" y="462"/>
      <point x="373" y="441"/>
      <point x="372" y="427" type="qcurve"/>
      <point x="372" y="416"/>
      <point x="372" y="403"/>
      <point x="371" y="389"/>
      <point x="369" y="367"/>
      <point x="367" y="348" type="qcurve"/>
      <point x="316" y="351"/>
      <point x="247" y="355"/>
      <point x="216" y="356" type="qcurve"/>
      <point x="216" y="138" type="line"/>
    </contour>
  </outline>
</glyph>
<glyph name="h" format="1">
  <advance width="448"/>
  <unicode hex="0068"/>
  <outline>
    <contour>
      <point x="167" y="446" type="qcurve"/>
      <point x="172" y="449"/>
      <point x="187" y="457"/>
      <point x="192" y="461" type="qcurve"/>
      <point x="213" y="476"/>
      <point x="265" y="494"/>
      <point x="320" y="496"/>
      <point x="372" y="482"/>
      <point x="393" y="464" type="qcurve"/>
      <point x="403" y="455"/>
      <point x="414" y="398"/>
      <point x="417" y="318"/>
      <point x="416" y="223"/>
      <point x="414" y="126"/>
      <point x="412" y="36"/>
      <point x="414" y="2" type="qcurve"/>
      <point x="379" y="-3"/>
      <point x="324" y="-2"/>
      <point x="289" y="-2" type="qcurve"/>
      <point x="287" y="21"/>
      <point x="287" y="79"/>
      <point x="288" y="141"/>
      <point x="287" y="203"/>
      <point x="285" y="230" type="qcurve"/>
      <point x="284" y="242"/>
      <point x="282" y="271"/>
      <point x="277" y="299"/>
      <point x="268" y="321"/>
      <point x="260" y="327" type="qcurve"/>
      <point x="259" y="328"/>
      <point x="257" y="328"/>
      <point x="256" y="329" type="qcurve"/>
      <point x="248" y="333"/>
      <point x="217" y="338"/>
      <point x="187" y="329"/>
      <point x="163" y="302"/>
      <point x="161" y="275" type="qcurve"/>
      <point x="159" y="240"/>
      <point x="161" y="173"/>
      <point x="164" y="106"/>
      <point x="164" y="40"/>
      <point x="160" y="7" type="qcurve"/>
      <point x="160" y="3" type="line"/>
      <point x="143" y="-2"/>
      <point x="118" y="-4"/>
      <point x="92" y="-3"/>
      <point x="60" y="-1"/>
      <point x="36" y="-3" type="qcurve"/>
      <point x="36" y="38"/>
      <point x="35" y="153"/>
      <point x="34" y="285"/>
      <point x="34" y="426"/>
      <point x="34" y="560"/>
      <point x="35" y="679"/>
      <point x="36" y="723" type="qcurve"/>
      <point x="48" y="722"/>
      <point x="64" y="721"/>
      <point x="78" y="721"/>
      <point x="94" y="722"/>
      <point x="106" y="723" type="qcurve"/>
      <point x="110" y="723"/>
      <point x="130" y="726"/>
      <point x="150" y="728"/>
      <point x="166" y="727"/>
      <point x="166" y="724" type="qcurve"/>
      <point x="167" y="719"/>
      <point x="167" y="676"/>
      <point x="167" y="617"/>
      <point x="167" y="550"/>
      <point x="167" y="492"/>
      <point x="167" y="450"/>
    </contour>
  </outline>
</glyph>
<glyph name="j" format="1">
  <advance width="204"/>
  <unicode hex="006A"/>
  <outline>
    <contour>
      <point x="38" y="497" type="line"/>
      <point x="54" y="495"/>
      <point x="89" y="497"/>
      <point x="123" y="500"/>
      <point x="154" y="502"/>
      <point x="167" y="500" type="qcurve"/>
      <point x="170" y="476"/>
      <point x="170" y="409"/>
      <point x="169" y="342"/>
      <point x="167" y="281"/>
      <point x="169" y="263" type="qcurve"/>
      <point x="169" y="214"/>
      <point x="170" y="125"/>
      <point x="169" y="38"/>
      <point x="162" y="-51"/>
      <point x="154" y="-99" type="qcurve"/>
      <point x="141" y="-130"/>
      <point x="82" y="-166"/>
      <point x="6" y="-184"/>
      <point x="-80" y="-189"/>
      <point x="-120" y="-187" type="qcurve"/>
      <point x="-125" y="-172"/>
      <point x="-128" y="-136"/>
      <point x="-126" y="-100"/>
      <point x="-122" y="-66"/>
      <point x="-120" y="-52" type="qcurve"/>
      <point x="-103" y="-53"/>
      <point x="-58" y="-51"/>
      <point x="-14" y="-42"/>
      <point x="24" y="-26"/>
      <point x="34" y="-12" type="qcurve"/>
      <point x="35" y="30"/>
      <point x="35" y="128"/>
      <point x="35" y="228"/>
      <point x="36" y="324"/>
      <point x="38" y="363" type="qcurve"/>
    </contour>
    <contour>
      <point x="165" y="718" type="line"/>
      <point x="165" y="712"/>
      <point x="166" y="681"/>
      <point x="167" y="644"/>
      <point x="168" y="605"/>
      <point x="168" y="590" type="qcurve"/>
      <point x="164" y="584"/>
      <point x="136" y="580"/>
      <point x="99" y="581"/>
      <point x="55" y="584"/>
      <point x="36" y="583" type="qcurve"/>
      <point x="36" y="612"/>
      <point x="31" y="675"/>
      <point x="32" y="721" type="qcurve"/>
    </contour>
  </outline>
</glyph>
<glyph name="m" format="1">
  <advance width="684"/>
  <unicode hex="006D"/>
  <outline>
    <contour>
      <point x="168" y="446" type="qcurve"/>
      <point x="173" y="449"/>
      <point x="188" y="457"/>
      <point x="193" y="461" type="qcurve"/>
      <point x="214" y="476"/>
      <point x="266" y="494"/>
      <point x="321" y="496"/>
      <point x="373" y="482"/>
      <point x="394" y="464" type="qcurve"/>
      <point x="399" y="459"/>
      <point x="404" y="447" type="qcurve"/>
      <point x="409" y="450"/>
      <point x="423" y="457"/>
      <point x="428" y="461" type="qcurve"/>
      <point x="449" y="476"/>
      <point x="501" y="494"/>
      <point x="556" y="496"/>
      <point x="608" y="482"/>
      <point x="629" y="464" type="qcurve"/>
      <point x="639" y="455"/>
      <point x="650" y="398"/>
      <point x="653" y="318"/>
      <point x="652" y="223"/>
      <point x="650" y="126"/>
      <point x="648" y="36"/>
      <point x="650" y="2" type="qcurve"/>
      <point x="615" y="-3"/>
      <point x="560" y="-2"/>
      <point x="525" y="-2" type="qcurve"/>
      <point x="523" y="21"/>
      <point x="523" y="79"/>
      <point x="524" y="141"/>
      <point x="523" y="203"/>
      <point x="521" y="230" type="qcurve"/>
      <point x="520" y="242"/>
      <point x="518" y="271"/>
      <point x="513" y="299"/>
      <point x="504" y="321"/>
      <point x="496" y="327" type="qcurve"/>
      <point x="495" y="328"/>
      <point x="493" y="328"/>
      <point x="492" y="329" type="qcurve"/>
      <point x="486" y="332"/>
      <point x="468" y="336"/>
      <point x="447" y="336"/>
      <point x="426" y="329"/>
      <point x="417" y="322" type="qcurve"/>
      <point x="418" y="283"/>
      <point x="416" y="196"/>
      <point x="414" y="111"/>
      <point x="413" y="32"/>
      <point x="415" y="2" type="qcurve"/>
      <point x="380" y="-3"/>
      <point x="325" y="-2"/>
      <point x="290" y="-2" type="qcurve"/>
      <point x="288" y="21"/>
      <point x="288" y="79"/>
      <point x="289" y="141"/>
      <point x="288" y="203"/>
      <point x="286" y="230" type="qcurve"/>
      <point x="285" y="242"/>
      <point x="283" y="271"/>
      <point x="278" y="299"/>
      <point x="269" y="321"/>
      <point x="261" y="327" type="qcurve"/>
      <point x="260" y="328"/>
      <point x="258" y="328"/>
      <point x="257" y="329" type="qcurve"/>
      <point x="249" y="333"/>
      <point x="218" y="338"/>
      <point x="188" y="329"/>
      <point x="164" y="302"/>
      <point x="162" y="275" type="qcurve"/>
      <point x="160" y="240"/>
      <point x="162" y="173"/>
      <point x="165" y="106"/>
      <point x="165" y="40"/>
      <point x="161" y="7" type="qcurve"/>
      <point x="161" y="3" type="line"/>
      <point x="144" y="-2"/>
      <point x="119" y="-4"/>
      <point x="93" y="-3"/>
      <point x="61" y="-1"/>
      <point x="37" y="-3" type="qcurve"/>
      <point x="37" y="120"/>
      <point x="32" y="366"/>
      <point x="36" y="498" type="qcurve"/>
      <point x="48" y="497"/>
      <point x="64" y="496"/>
      <point x="78" y="496"/>
      <point x="94" y="497"/>
      <point x="106" y="498" type="qcurve"/>
      <point x="110" y="498"/>
      <point x="130" y="501"/>
      <point x="150" y="503"/>
      <point x="166" y="502"/>
      <point x="166" y="499" type="qcurve"/>
      <point x="168" y="482"/>
      <point x="167" y="460"/>
    </contour>
  </outline>
</glyph>
<glyph name="p" format="1">
  <advance width="464"/>
  <unicode hex="0070"/>
  <outline>
    <contour>
      <point x="167" y="-203" type="line"/>
      <point x="167" y="-204"/>
      <point x="140" y="-207"/>
      <point x="101" y="-208"/>
      <point x="57" y="-207"/>
      <point x="41" y="-204" type="qcurve"/>
      <point x="41" y="-138" type="line"/>
      <point x="41" y="-55"/>
      <point x="37" y="111"/>
      <point x="34" y="272"/>
      <point x="33" y="427"/>
      <point x="35" y="499" type="qcurve"/>
      <point x="66" y="499"/>
      <point x="140" y="502"/>
      <point x="170" y="498" type="qcurve"/>
      <point x="171" y="496"/>
      <point x="171" y="491" type="qcurve"/>
      <point x="171" y="481"/>
      <point x="172" y="469"/>
      <point x="172" y="458" type="qcurve"/>
      <point x="174" y="453"/>
      <point x="179" y="448"/>
      <point x="182" y="454" type="qcurve"/>
      <point x="197" y="484"/>
      <point x="247" y="501"/>
      <point x="275" y="497" type="qcurve"/>
      <point x="332" y="493"/>
      <point x="398" y="442"/>
      <point x="431" y="363"/>
      <point x="441" y="265"/>
      <point x="443" y="215" type="qcurve"/>
      <point x="443" y="180"/>
      <point x="434" y="114"/>
      <point x="415" y="59"/>
      <point x="384" y="20"/>
      <point x="362" y="12" type="qcurve"/>
      <point x="335" y="2"/>
      <point x="270" y="-3"/>
      <point x="212" y="2"/>
      <point x="172" y="16"/>
      <point x="170" y="25" type="qcurve"/>
      <point x="171" y="-22"/>
      <point x="171" y="-80"/>
      <point x="171" y="-115"/>
      <point x="170" y="-134"/>
      <point x="169" y="-151"/>
      <point x="168" y="-172"/>
      <point x="167" y="-192" type="qcurve"/>
    </contour>
    <contour>
      <point x="322" y="185" type="qcurve"/>
      <point x="327" y="199"/>
      <point x="329" y="229"/>
      <point x="329" y="243" type="qcurve"/>
      <point x="329" y="268"/>
      <point x="317" y="315"/>
      <point x="293" y="352"/>
      <point x="259" y="374"/>
      <point x="238" y="374" type="qcurve"/>
      <point x="212" y="374"/>
      <point x="184" y="352"/>
      <point x="169" y="314"/>
      <point x="166" y="260"/>
      <point x="166" y="229" type="qcurve"/>
      <point x="166" y="190"/>
      <point x="169" y="145"/>
      <point x="181" y="121"/>
      <point x="206" y="114"/>
      <point x="227" y="114" type="qcurve"/>
      <point x="268" y="114"/>
      <point x="317" y="150"/>
    </contour>
  </outline>
</glyph>
<glyph name="q" format="1">
  <advance width="463"/>
  <unicode hex="0071"/>
  <outline>
    <contour>
      <point x="297" y="-192" type="line"/>
      <point x="296" y="-172"/>
      <point x="295" y="-151"/>
      <point x="294" y="-134"/>
      <point x="293" y="-115"/>
      <point x="293" y="-80"/>
      <point x="293" y="-22"/>
      <point x="294" y="25" type="qcurve"/>
      <point x="292" y="16"/>
      <point x="252" y="2"/>
      <point x="194" y="-3"/>
      <point x="129" y="2"/>
      <point x="102" y="12" type="qcurve"/>
      <point x="80" y="20"/>
      <point x="49" y="59"/>
      <point x="30" y="114"/>
      <point x="21" y="180"/>
      <point x="21" y="215" type="qcurve"/>
      <point x="22" y="265"/>
      <point x="33" y="363"/>
      <point x="66" y="442"/>
      <point x="132" y="493"/>
      <point x="189" y="497" type="qcurve"/>
      <point x="217" y="501"/>
      <point x="267" y="484"/>
      <point x="282" y="454" type="qcurve"/>
      <point x="285" y="448"/>
      <point x="290" y="453"/>
      <point x="292" y="458" type="qcurve"/>
      <point x="292" y="469"/>
      <point x="293" y="481"/>
      <point x="293" y="491" type="qcurve"/>
      <point x="293" y="496"/>
      <point x="294" y="498" type="qcurve"/>
      <point x="324" y="502"/>
      <point x="398" y="499"/>
      <point x="429" y="499" type="qcurve"/>
      <point x="431" y="427"/>
      <point x="430" y="272"/>
      <point x="427" y="111"/>
      <point x="423" y="-55"/>
      <point x="423" y="-138" type="qcurve"/>
      <point x="423" y="-204" type="line"/>
      <point x="407" y="-207"/>
      <point x="363" y="-208"/>
      <point x="324" y="-207"/>
      <point x="297" y="-204"/>
      <point x="297" y="-203" type="qcurve"/>
    </contour>
    <contour>
      <point x="142" y="185" type="qcurve"/>
      <point x="147" y="150"/>
      <point x="196" y="114"/>
      <point x="237" y="114" type="qcurve"/>
      <point x="258" y="114"/>
      <point x="283" y="121"/>
      <point x="295" y="145"/>
      <point x="298" y="190"/>
      <point x="298" y="229" type="qcurve"/>
      <point x="298" y="260"/>
      <point x="295" y="314"/>
      <point x="280" y="352"/>
      <point x="251" y="374"/>
      <point x="226" y="374" type="qcurve"/>
      <point x="205" y="374"/>
      <point x="171" y="352"/>
      <point x="147" y="315"/>
      <point x="135" y="268"/>
      <point x="135" y="243" type="qcurve"/>
      <point x="135" y="229"/>
      <point x="137" y="199"/>
    </contour>
  </outline>
</glyph>
<glyph name="v" format="1">
  <advance width="429"/>
  <unicode hex="0076"/>
  <outline>
    <contour>
      <point x="150" y="497" type="qcurve"/>
      <point x="157" y="461"/>
      <point x="171" y="368"/>
      <point x="187" y="272"/>
      <point x="205" y="185"/>
      <point x="216" y="155" type="qcurve"/>
      <point x="227" y="185"/>
      <point x="245" y="276"/>
      <point x="262" y="374"/>
      <point x="282" y="466"/>
      <point x="294" y="496" type="qcurve"/>
      <point x="311" y="496"/>
      <point x="341" y="498"/>
      <point x="373" y="500"/>
      <point x="407" y="500"/>
      <point x="428" y="499" type="qcurve"/>
      <point x="407" y="442"/>
      <point x="376" y="319"/>
      <point x="348" y="191"/>
      <point x="320" y="62"/>
      <point x="303" y="-1" type="qcurve"/>
      <point x="283" y="-4"/>
      <point x="234" y="-5"/>
      <point x="183" y="-4"/>
      <point x="134" y="-3"/>
      <point x="115" y="-3" type="qcurve"/>
      <point x="95" y="122"/>
      <point x="43" y="382"/>
      <point x="11" y="500" type="qcurve"/>
      <point x="47" y="496"/>
      <point x="118" y="501"/>
    </contour>
  </outline>
</glyph>
<glyph name="braceright" format="1">
  <advance width="318"/>
  <unicode hex="007D"/>
  <outline>
    <contour>
      <point x="26" y="1" type="qcurve"/>
      <point x="24" y="24"/>
      <point x="25" y="80"/>
      <point x="25" y="103" type="qcurve"/>
      <point x="46" y="105"/>
      <point x="70" y="128"/>
      <point x="81" y="159"/>
      <point x="83" y="196"/>
      <point x="82" y="213" type="qcurve"/>
      <point x="80" y="255"/>
      <point x="102" y="324"/>
      <point x="135" y="342" type="qcurve"/>
      <point x="105" y="353"/>
      <point x="83" y="398"/>
      <point x="80" y="454"/>
      <point x="84" y="516"/>
      <point x="80" y="545" type="qcurve"/>
      <point x="76" y="564"/>
      <point x="44" y="580"/>
      <point x="28" y="585" type="qcurve"/>
      <point x="26" y="607"/>
      <point x="25" y="654"/>
      <point x="29" y="678" type="qcurve"/>
      <point x="53" y="680"/>
      <point x="97" y="679"/>
      <point x="126" y="676" type="qcurve"/>
      <point x="145" y="673"/>
      <point x="173" y="652"/>
      <point x="191" y="621"/>
      <point x="196" y="582"/>
      <point x="192" y="562" type="qcurve"/>
      <point x="189" y="531"/>
      <point x="193" y="468"/>
      <point x="217" y="418"/>
      <point x="264" y="389"/>
      <point x="303" y="393" type="qcurve"/>
      <point x="307" y="370"/>
      <point x="310" y="319"/>
      <point x="305" y="295" type="qcurve"/>
      <point x="303" y="294"/>
      <point x="297" y="294" type="qcurve"/>
      <point x="258" y="296"/>
      <point x="213" y="259"/>
      <point x="192" y="202"/>
      <point x="191" y="136"/>
      <point x="195" y="108" type="qcurve"/>
      <point x="196" y="85"/>
      <point x="174" y="43"/>
      <point x="131" y="12"/>
      <point x="68" y="-4"/>
    </contour>
  </outline>
</glyph>
<glyph name="exclamdown" format="1">
  <advance width="216"/>
  <unicode hex="00A1"/>
  <outline>
    <contour>
      <point x="166" y="631" type="line"/>
      <point x="169" y="631"/>
      <point x="169" y="605"/>
      <point x="167" y="568"/>
      <point x="163" y="528"/>
      <point x="163" y="514" type="qcurve"/>
      <point x="163" y="513" type="line"/>
      <point x="151" y="508"/>
      <point x="121" y="506"/>
      <point x="88" y="508"/>
      <point x="56" y="511"/>
      <point x="41" y="511" type="qcurve"/>
      <point x="42" y="539"/>
      <point x="44" y="602"/>
      <point x="44" y="631" type="qcurve"/>
      <point x="51" y="631" type="line"/>
      <point x="63" y="631"/>
      <point x="78" y="630"/>
      <point x="89" y="630" type="qcurve"/>
      <point x="91" y="630" type="line"/>
    </contour>
    <contour>
      <point x="166" y="-70" type="line"/>
      <point x="140" y="-72"/>
      <point x="71" y="-80"/>
      <point x="43" y="-72" type="qcurve"/>
      <point x="45" y="56"/>
      <point x="48" y="329"/>
      <point x="42" y="457" type="qcurve"/>
      <point x="68" y="460"/>
      <point x="142" y="461"/>
      <point x="171" y="462" type="qcurve"/>
      <point x="172" y="462" type="line"/>
      <point x="170" y="330"/>
      <point x="176" y="66"/>
      <point x="169" y="-70" type="qcurve"/>
    </contour>
  </outline>
</glyph>
<glyph name="dieresis" format="1">
  <advance width="349"/>
  <unicode hex="00A8"/>
  <outline>
    <contour>
      <point x="39" y="522" type="line"/>
      <point x="36" y="522" type="line"/>
      <point x="34" y="532"/>
      <point x="33" y="561"/>
      <point x="34" y="591"/>
      <point x="35" y="617"/>
      <point x="35" y="623" type="qcurve"/>
      <point x="44" y="626"/>
      <point x="75" y="630"/>
      <point x="108" y="630"/>
      <point x="137" y="627"/>
      <point x="144" y="624" type="qcurve"/>
      <point x="144" y="623"/>
      <point x="142" y="597"/>
      <point x="140" y="562"/>
      <point x="138" y="530"/>
      <point x="138" y="523" type="qcurve"/>
      <point x="138" y="522" type="line"/>
      <point x="138" y="521" type="line"/>
      <point x="136" y="521" type="line"/>
    </contour>
    <contour>
      <point x="213" y="522" type="line"/>
      <point x="210" y="522" type="line"/>
      <point x="208" y="532"/>
      <point x="207" y="561"/>
      <point x="208" y="591"/>
      <point x="209" y="617"/>
      <point x="209" y="623" type="qcurve"/>
      <point x="218" y="626"/>
      <point x="249" y="630"/>
      <point x="282" y="630"/>
      <point x="311" y="627"/>
      <point x="318" y="624" type="qcurve"/>
      <point x="318" y="623"/>
      <point x="316" y="597"/>
      <point x="314" y="562"/>
      <point x="312" y="530"/>
      <point x="312" y="523" type="qcurve"/>
      <point x="312" y="522" type="line"/>
      <point x="312" y="521" type="line"/>
      <point x="310" y="521" type="line"/>
    </contour>
  </outline>
</glyph>
<glyph name="copyright" format="1">
  <advance width="553"/>
  <unicode hex="00A9"/>
  <outline>
    <contour>
      <point x="506" y="249" type="qcurve"/>
      <point x="494" y="202"/>
      <point x="458" y="168" type="qcurve"/>
      <point x="438" y="148"/>
      <point x="390" y="127"/>
      <point x="336" y="118"/>
      <point x="281" y="115"/>
      <point x="255" y="113" type="qcurve"/>
      <point x="227" y="113"/>
      <point x="173" y="119"/>
      <point x="147" y="127" type="qcurve"/>
      <point x="103" y="147"/>
      <point x="50" y="205"/>
      <point x="45" y="247" type="qcurve"/>
      <point x="37" y="296"/>
      <point x="36" y="395"/>
      <point x="40" y="446" type="qcurve"/>
      <point x="44" y="493"/>
      <point x="77" y="532" type="qcurve"/>
      <point x="99" y="560"/>
      <point x="163" y="591"/>
      <point x="198" y="596" type="qcurve"/>
      <point x="239" y="598"/>
      <point x="321" y="601"/>
      <point x="361" y="593" type="qcurve"/>
      <point x="382" y="589"/>
      <point x="424" y="574"/>
      <point x="444" y="561" type="qcurve"/>
      <point x="447" y="559"/>
      <point x="453" y="555"/>
      <point x="456" y="553" type="qcurve"/>
      <point x="490" y="529"/>
      <point x="517" y="458"/>
      <point x="521" y="377"/>
      <point x="510" y="290"/>
    </contour>
    <contour>
      <point x="428" y="482" type="qcurve"/>
      <point x="417" y="496"/>
      <point x="372" y="518"/>
      <point x="346" y="523" type="qcurve"/>
      <point x="272" y="532"/>
      <point x="198" y="523" type="qcurve"/>
      <point x="196" y="523"/>
      <point x="195" y="522"/>
      <point x="193" y="522" type="qcurve"/>
      <point x="159" y="516"/>
      <point x="117" y="470"/>
      <point x="113" y="441" type="qcurve"/>
      <point x="107" y="396"/>
      <point x="112" y="306"/>
      <point x="115" y="263" type="qcurve"/>
      <point x="115" y="246"/>
      <point x="132" y="218"/>
      <point x="160" y="197"/>
      <point x="196" y="185"/>
      <point x="215" y="184" type="qcurve"/>
      <point x="248" y="187"/>
      <point x="326" y="188"/>
      <point x="361" y="195" type="qcurve"/>
      <point x="380" y="198"/>
      <point x="409" y="218"/>
      <point x="429" y="247"/>
      <point x="440" y="282"/>
      <point x="442" y="299" type="qcurve"/>
      <point x="444" y="325"/>
      <point x="447" y="379"/>
      <point x="446" y="406" type="qcurve"/>
      <point x="445" y="426"/>
      <point x="442" y="465"/>
    </contour>
    <contour>
      <point x="248" y="426" type="qcurve"/>
      <point x="247" y="425"/>
      <point x="246" y="422"/>
      <point x="245" y="420" type="qcurve"/>
      <point x="245" y="418"/>
      <point x="243" y="394"/>
      <point x="243" y="360"/>
      <point x="243" y="324"/>
      <point x="244" y="311" type="qcurve"/>
      <point x="245" y="299"/>
      <point x="254" y="279"/>
      <point x="265" y="275" type="qcurve"/>
      <point x="274" y="274"/>
      <point x="290" y="280"/>
      <point x="295" y="288" type="qcurve"/>
      <point x="297" y="297"/>
      <point x="297" y="316"/>
      <point x="298" y="326" type="qcurve"/>
      <point x="309" y="325"/>
      <point x="339" y="328"/>
      <point x="351" y="324" type="qcurve"/>
      <point x="357" y="304"/>
      <point x="351" y="264"/>
      <point x="330" y="233"/>
      <point x="296" y="212"/>
      <point x="275" y="212" type="qcurve"/>
      <point x="261" y="210"/>
      <point x="232" y="213"/>
      <point x="207" y="225"/>
      <point x="189" y="246"/>
      <point x="188" y="262" type="qcurve"/>
      <point x="186" y="290"/>
      <point x="185" y="362"/>
      <point x="186" y="424" type="qcurve"/>
      <point x="185" y="431"/>
      <point x="189" y="444"/>
      <point x="191" y="449" type="qcurve"/>
      <point x="199" y="471"/>
      <point x="212" y="483" type="qcurve"/>
      <point x="216" y="486"/>
      <point x="227" y="491"/>
      <point x="232" y="493" type="qcurve"/>
      <point x="258" y="501"/>
      <point x="309" y="488"/>
      <point x="345" y="454"/>
      <point x="361" y="405"/>
      <point x="352" y="378" type="qcurve"/>
      <point x="336" y="376"/>
      <point x="310" y="378"/>
      <point x="296" y="380" type="qcurve"/>
      <point x="295" y="388"/>
      <point x="294" y="407"/>
      <point x="289" y="423"/>
      <point x="278" y="433"/>
      <point x="267" y="433" type="qcurve"/>
      <point x="263" y="431"/>
      <point x="251" y="429"/>
    </contour>
  </outline>
</glyph>
<glyph name="ordfeminine" format="1">
  <advance width="276"/>
  <unicode hex="00AA"/>
  <outline>
    <contour>
      <point x="239" y="723" type="qcurve"/>
      <point x="239" y="720"/>
      <point x="241" y="714"/>
      <point x="241" y="711" type="qcurve"/>
      <point x="241" y="707" type="line"/>
      <point x="239" y="651"/>
      <point x="243" y="545"/>
      <point x="239" y="490" type="qcurve"/>
      <point x="239" y="483"/>
      <point x="239" y="470"/>
      <point x="232" y="469" type="qcurve"/>
      <point x="226" y="469" type="line"/>
      <point x="218" y="469"/>
      <point x="201" y="470"/>
      <point x="193" y="470" type="qcurve"/>
      <point x="187" y="470"/>
      <point x="176" y="469"/>
      <point x="170" y="469" type="qcurve"/>
      <point x="164" y="471"/>
      <point x="164" y="480" type="qcurve"/>
      <point x="164" y="486"/>
      <point x="167" y="493"/>
      <point x="167" y="498" type="qcurve"/>
      <point x="155" y="485"/>
      <point x="117" y="468"/>
      <point x="99" y="468" type="qcurve"/>
      <point x="79" y="468"/>
      <point x="51" y="495"/>
      <point x="33" y="536"/>
      <point x="25" y="584"/>
      <point x="25" y="605" type="qcurve"/>
      <point x="25" y="656"/>
      <point x="74" y="723"/>
      <point x="110" y="723" type="qcurve"/>
      <point x="127" y="723"/>
      <point x="156" y="717"/>
      <point x="162" y="699" type="qcurve"/>
      <point x="162" y="707"/>
      <point x="164" y="719"/>
      <point x="164" y="725" type="qcurve"/>
      <point x="164" y="727"/>
      <point x="186" y="725"/>
      <point x="189" y="726" type="qcurve"/>
      <point x="198" y="725"/>
      <point x="222" y="724"/>
    </contour>
    <contour>
      <point x="91" y="621" type="qcurve"/>
      <point x="88" y="615"/>
      <point x="87" y="602"/>
      <point x="87" y="595" type="qcurve"/>
      <point x="87" y="572"/>
      <point x="113" y="539"/>
      <point x="133" y="539" type="qcurve"/>
      <point x="158" y="539"/>
      <point x="164" y="573"/>
      <point x="164" y="602" type="qcurve"/>
      <point x="164" y="620"/>
      <point x="164" y="640"/>
      <point x="160" y="651"/>
      <point x="149" y="654"/>
      <point x="138" y="654" type="qcurve"/>
      <point x="117" y="654"/>
      <point x="93" y="635"/>
    </contour>
  </outline>
</glyph>
<glyph name="degree" format="1">
  <advance width="298"/>
  <unicode hex="00B0"/>
  <outline>
    <contour>
      <point x="79" y="410" type="qcurve"/>
      <point x="46" y="426"/>
      <point x="35" y="451" type="qcurve"/>
      <point x="32" y="459"/>
      <point x="30" y="473"/>
      <point x="29" y="480" type="qcurve"/>
      <point x="27" y="506"/>
      <point x="25" y="563"/>
      <point x="32" y="588" type="qcurve"/>
      <point x="40" y="613"/>
      <point x="81" y="643"/>
      <point x="108" y="648" type="qcurve"/>
      <point x="111" y="648"/>
      <point x="118" y="649"/>
      <point x="121" y="649" type="qcurve"/>
      <point x="132" y="650"/>
      <point x="150" y="650"/>
      <point x="160" y="650" type="qcurve"/>
      <point x="171" y="650"/>
      <point x="191" y="648"/>
      <point x="201" y="645" type="qcurve"/>
      <point x="206" y="643"/>
      <point x="214" y="640"/>
      <point x="219" y="638" type="qcurve"/>
      <point x="235" y="632"/>
      <point x="247" y="621" type="qcurve"/>
      <point x="258" y="612"/>
      <point x="269" y="588"/>
      <point x="271" y="574" type="qcurve"/>
      <point x="273" y="563"/>
      <point x="273" y="541"/>
      <point x="273" y="530" type="qcurve"/>
      <point x="273" y="512"/>
      <point x="268" y="476"/>
      <point x="254" y="443"/>
      <point x="231" y="418"/>
      <point x="212" y="411" type="qcurve"/>
      <point x="207" y="409"/>
      <point x="197" y="407"/>
      <point x="192" y="406" type="qcurve"/>
      <point x="163" y="401"/>
      <point x="106" y="402"/>
    </contour>
    <contour>
      <point x="113" y="588" type="qcurve"/>
      <point x="92" y="581"/>
      <point x="87" y="558" type="qcurve"/>
      <point x="85" y="542"/>
      <point x="86" y="512"/>
      <point x="86" y="497" type="qcurve"/>
      <point x="86" y="483"/>
      <point x="102" y="462"/>
      <point x="116" y="460" type="qcurve"/>
      <point x="130" y="459"/>
      <point x="156" y="460"/>
      <point x="170" y="462" type="qcurve"/>
      <point x="172" y="462"/>
      <point x="176" y="463"/>
      <point x="178" y="463" type="qcurve"/>
      <point x="179" y="463" type="line"/>
      <point x="196" y="465"/>
      <point x="209" y="486"/>
      <point x="211" y="500" type="qcurve"/>
      <point x="213" y="508"/>
      <point x="214" y="523"/>
      <point x="215" y="531" type="qcurve"/>
      <point x="217" y="542"/>
      <point x="215" y="564"/>
      <point x="207" y="574" type="qcurve"/>
      <point x="200" y="583"/>
      <point x="191" y="586" type="qcurve"/>
      <point x="171" y="592"/>
      <point x="131" y="591"/>
    </contour>
  </outline>
</glyph>
<glyph name="plusminus" format="1">
  <advance width="501"/>
  <unicode hex="00B1"/>
  <outline>
    <contour>
      <point x="168" y="256" type="qcurve"/>
      <point x="168" y="257"/>
      <point x="167" y="257"/>
      <point x="167" y="259" type="qcurve"/>
      <point x="165" y="274"/>
      <point x="165" y="297"/>
      <point x="166" y="319"/>
      <point x="166" y="343"/>
      <point x="165" y="361" type="qcurve"/>
      <point x="165" y="369"/>
      <point x="164" y="380"/>
      <point x="163" y="381" type="qcurve"/>
      <point x="161" y="381" type="line"/>
      <point x="155" y="381"/>
      <point x="123" y="383"/>
      <point x="86" y="385"/>
      <point x="54" y="389"/>
      <point x="50" y="391" type="qcurve"/>
      <point x="49" y="392"/>
      <point x="49" y="393" type="qcurve"/>
      <point x="50" y="404"/>
      <point x="49" y="446"/>
      <point x="47" y="489"/>
      <point x="45" y="523"/>
      <point x="45" y="526" type="qcurve"/>
      <point x="48" y="525"/>
      <point x="86" y="528"/>
      <point x="131" y="531"/>
      <point x="169" y="535"/>
      <point x="172" y="536" type="qcurve"/>
      <point x="172" y="547"/>
      <point x="173" y="578"/>
      <point x="174" y="599" type="qcurve"/>
      <point x="175" y="613"/>
      <point x="177" y="638"/>
      <point x="178" y="648" type="qcurve"/>
      <point x="179" y="654"/>
      <point x="180" y="661"/>
      <point x="181" y="666" type="qcurve"/>
      <point x="187" y="662"/>
      <point x="228" y="660"/>
      <point x="275" y="662"/>
      <point x="318" y="663"/>
      <point x="326" y="662" type="qcurve"/>
      <point x="326" y="651"/>
      <point x="326" y="613"/>
      <point x="326" y="574"/>
      <point x="326" y="543"/>
      <point x="328" y="538" type="qcurve"/>
      <point x="340" y="537"/>
      <point x="372" y="537"/>
      <point x="406" y="537"/>
      <point x="438" y="536"/>
      <point x="449" y="534" type="qcurve"/>
      <point x="447" y="492"/>
      <point x="449" y="426"/>
      <point x="445" y="389" type="qcurve"/>
      <point x="442" y="387"/>
      <point x="408" y="386"/>
      <point x="367" y="386"/>
      <point x="331" y="385"/>
      <point x="326" y="382" type="qcurve"/>
      <point x="327" y="373"/>
      <point x="325" y="339"/>
      <point x="322" y="301"/>
      <point x="319" y="267"/>
      <point x="319" y="260" type="qcurve"/>
      <point x="319" y="258" type="line"/>
      <point x="319" y="255"/>
      <point x="273" y="254"/>
      <point x="218" y="255"/>
      <point x="170" y="257"/>
    </contour>
    <contour>
      <point x="28" y="11" type="qcurve"/>
      <point x="28" y="23"/>
      <point x="29" y="73"/>
      <point x="30" y="126"/>
      <point x="31" y="168"/>
      <point x="31" y="171" type="qcurve"/>
      <point x="32" y="171"/>
      <point x="92" y="171"/>
      <point x="183" y="171"/>
      <point x="291" y="171"/>
      <point x="388" y="171"/>
      <point x="462" y="171"/>
      <point x="474" y="171" type="qcurve"/>
      <point x="475" y="129"/>
      <point x="470" y="45"/>
      <point x="477" y="4" type="qcurve"/>
      <point x="476" y="4" type="line"/>
      <point x="471" y="4"/>
      <point x="403" y="4"/>
      <point x="307" y="6"/>
      <point x="197" y="8"/>
      <point x="101" y="9"/>
      <point x="33" y="11"/>
    </contour>
  </outline>
</glyph>
<glyph name="mu" format="1">
  <advance width="458"/>
  <unicode hex="00B5"/>
  <outline>
    <contour>
      <point x="177" y="4" type="qcurve"/>
      <point x="177" y="-37"/>
      <point x="177" y="-86"/>
      <point x="178" y="-114"/>
      <point x="179" y="-127"/>
      <point x="180" y="-136"/>
      <point x="181" y="-146"/>
      <point x="181" y="-158" type="qcurve"/>
      <point x="176" y="-164"/>
      <point x="136" y="-165"/>
      <point x="89" y="-164"/>
      <point x="47" y="-162"/>
      <point x="40" y="-164" type="qcurve"/>
      <point x="40" y="-159"/>
      <point x="39" y="-107"/>
      <point x="39" y="-34"/>
      <point x="39" y="51"/>
      <point x="40" y="130"/>
      <point x="40" y="193"/>
      <point x="41" y="207" type="qcurve"/>
      <point x="41" y="244"/>
      <point x="43" y="324"/>
      <point x="45" y="400"/>
      <point x="45" y="470"/>
      <point x="44" y="498" type="qcurve"/>
      <point x="79" y="503"/>
      <point x="134" y="502"/>
      <point x="169" y="502" type="qcurve"/>
      <point x="171" y="479"/>
      <point x="171" y="421"/>
      <point x="170" y="359"/>
      <point x="171" y="297"/>
      <point x="173" y="270" type="qcurve"/>
      <point x="174" y="258"/>
      <point x="176" y="229"/>
      <point x="181" y="201"/>
      <point x="190" y="179"/>
      <point x="198" y="173" type="qcurve"/>
      <point x="199" y="172"/>
      <point x="201" y="172"/>
      <point x="202" y="171" type="qcurve"/>
      <point x="210" y="167"/>
      <point x="241" y="162"/>
      <point x="271" y="171"/>
      <point x="295" y="198"/>
      <point x="297" y="225" type="qcurve"/>
      <point x="299" y="259"/>
      <point x="296" y="329"/>
      <point x="292" y="397"/>
      <point x="291" y="464"/>
      <point x="296" y="497" type="qcurve"/>
      <point x="321" y="500"/>
      <point x="348" y="500"/>
      <point x="371" y="500"/>
      <point x="398" y="500"/>
      <point x="422" y="503" type="qcurve"/>
      <point x="422" y="380"/>
      <point x="427" y="134"/>
      <point x="423" y="2" type="qcurve"/>
      <point x="417" y="2"/>
      <point x="375" y="-1"/>
      <point x="330" y="-4"/>
      <point x="294" y="-4"/>
      <point x="293" y="1" type="qcurve"/>
      <point x="291" y="18"/>
      <point x="292" y="40"/>
      <point x="291" y="54" type="qcurve"/>
      <point x="282" y="39"/>
      <point x="257" y="21"/>
      <point x="226" y="11"/>
      <point x="193" y="6"/>
    </contour>
  </outline>
</glyph>
<glyph name="onesuperior" format="1">
  <advance width="187"/>
  <unicode hex="00B9"/>
  <outline>
    <contour>
      <point x="145" y="342" type="line"/>
      <point x="145" y="337"/>
      <point x="128" y="335"/>
      <point x="120" y="335" type="qcurve"/>
      <point x="109" y="335"/>
      <point x="86" y="337"/>
      <point x="77" y="338" type="qcurve"/>
      <point x="77" y="339" type="line"/>
      <point x="77" y="380" type="line"/>
      <point x="77" y="422"/>
      <point x="83" y="503"/>
      <point x="83" y="545" type="qcurve"/>
      <point x="83" y="553" type="line"/>
      <point x="81" y="553"/>
      <point x="77" y="546"/>
      <point x="72" y="537"/>
      <point x="67" y="529"/>
      <point x="63" y="529" type="qcurve"/>
      <point x="61" y="529"/>
      <point x="45" y="533"/>
      <point x="27" y="538"/>
      <point x="12" y="543"/>
      <point x="12" y="545" type="qcurve"/>
      <point x="12" y="552"/>
      <point x="28" y="583"/>
      <point x="46" y="615"/>
      <point x="62" y="639"/>
      <point x="63" y="641" type="qcurve"/>
      <point x="74" y="641"/>
      <point x="93" y="642"/>
      <point x="103" y="642" type="qcurve"/>
      <point x="114" y="642"/>
      <point x="137" y="641"/>
      <point x="148" y="640" type="qcurve"/>
      <point x="150" y="622"/>
      <point x="150" y="586"/>
      <point x="150" y="567" type="qcurve"/>
      <point x="150" y="519"/>
      <point x="145" y="423"/>
      <point x="145" y="372" type="qcurve"/>
    </contour>
  </outline>
</glyph>
<glyph name="onehalf" format="1">
  <advance width="602"/>
  <unicode hex="00BD"/>
  <outline>
    <contour>
      <point x="216" y="8" type="qcurve"/>
      <point x="215" y="7"/>
      <point x="214" y="5" type="qcurve"/>
      <point x="212" y="1" type="line"/>
      <point x="208" y="0"/>
      <point x="183" y="0"/>
      <point x="155" y="1"/>
      <point x="129" y="2"/>
      <point x="125" y="1" type="qcurve"/>
      <point x="155" y="92"/>
      <point x="219" y="270"/>
      <point x="283" y="445"/>
      <point x="341" y="620"/>
      <point x="365" y="709" type="qcurve"/>
      <point x="371" y="707"/>
      <point x="397" y="708"/>
      <point x="426" y="710"/>
      <point x="452" y="709"/>
      <point x="457" y="705" type="qcurve"/>
      <point x="457" y="704" type="line"/>
      <point x="397" y="527"/>
      <point x="280" y="173"/>
    </contour>
    <contour>
      <point x="380" y="2" type="line"/>
      <point x="357" y="2" type="line"/>
      <point x="357" y="3" type="line"/>
      <point x="358" y="20"/>
      <point x="358" y="53"/>
      <point x="360" y="85"/>
      <point x="366" y="114"/>
      <point x="374" y="127" type="qcurve"/>
      <point x="398" y="154"/>
      <point x="455" y="183"/>
      <point x="481" y="204" type="qcurve"/>
      <point x="491" y="210"/>
      <point x="500" y="233"/>
      <point x="497" y="256"/>
      <point x="484" y="274"/>
      <point x="472" y="275" type="qcurve"/>
      <point x="460" y="275"/>
      <point x="446" y="263"/>
      <point x="438" y="245"/>
      <point x="435" y="224"/>
      <point x="435" y="215" type="qcurve"/>
      <point x="435" y="214" type="line"/>
      <point x="412" y="212"/>
      <point x="378" y="209"/>
      <point x="361" y="211" type="qcurve"/>
      <point x="360" y="211" type="line"/>
      <point x="360" y="212" type="line"/>
      <point x="354" y="247"/>
      <point x="367" y="308"/>
      <point x="385" y="328" type="qcurve"/>
      <point x="395" y="341"/>
      <point x="432" y="355"/>
      <point x="474" y="359"/>
      <point x="514" y="355"/>
      <point x="528" y="349" type="qcurve"/>
      <point x="551" y="337"/>
      <point x="575" y="292"/>
      <point x="577" y="265" type="qcurve"/>
      <point x="578" y="254"/>
      <point x="579" y="231"/>
      <point x="578" y="220" type="qcurve"/>
      <point x="576" y="193"/>
      <point x="545" y="161"/>
      <point x="504" y="139"/>
      <point x="462" y="119"/>
      <point x="449" y="103" type="qcurve"/>
      <point x="447" y="98"/>
      <point x="440" y="76"/>
      <point x="444" y="74" type="qcurve"/>
      <point x="478" y="73"/>
      <point x="535" y="75"/>
      <point x="567" y="75" type="qcurve"/>
      <point x="572" y="64"/>
      <point x="571" y="39"/>
      <point x="571" y="27" type="qcurve"/>
      <point x="571" y="21"/>
      <point x="570" y="10"/>
      <point x="572" y="5" type="qcurve"/>
      <point x="572" y="4"/>
      <point x="570" y="4" type="qcurve"/>
    </contour>
    <contour>
      <point x="170" y="312" type="qcurve"/>
      <point x="170" y="307"/>
      <point x="149" y="303"/>
      <point x="139" y="303" type="qcurve"/>
      <point x="127" y="303"/>
      <point x="102" y="306"/>
      <point x="91" y="306" type="qcurve"/>
      <point x="91" y="307" type="line"/>
      <point x="91" y="355" type="line"/>
      <point x="91" y="403"/>
      <point x="97" y="497"/>
      <point x="97" y="545" type="qcurve"/>
      <point x="97" y="551"/>
      <point x="96" y="555" type="qcurve"/>
      <point x="94" y="555"/>
      <point x="90" y="547"/>
      <point x="85" y="536"/>
      <point x="79" y="527"/>
      <point x="75" y="527" type="qcurve"/>
      <point x="73" y="527"/>
      <point x="53" y="531"/>
      <point x="32" y="537"/>
      <point x="15" y="543"/>
      <point x="15" y="545" type="qcurve"/>
      <point x="16" y="554"/>
      <point x="34" y="589"/>
      <point x="55" y="626"/>
      <point x="73" y="654"/>
      <point x="75" y="656" type="qcurve"/>
      <point x="86" y="656"/>
      <point x="109" y="657"/>
      <point x="120" y="657" type="qcurve"/>
      <point x="133" y="657"/>
      <point x="159" y="656"/>
      <point x="172" y="655" type="qcurve"/>
      <point x="174" y="634"/>
      <point x="174" y="592"/>
      <point x="174" y="572" type="qcurve"/>
      <point x="174" y="515"/>
      <point x="169" y="404"/>
      <point x="169" y="347" type="qcurve"/>
      <point x="169" y="338"/>
      <point x="169" y="321"/>
    </contour>
  </outline>
</glyph>
<glyph name="threequarters" format="1">
  <advance width="626"/>
  <unicode hex="00BE"/>
  <outline>
    <contour>
      <point x="249" y="8" type="qcurve"/>
      <point x="248" y="7"/>
      <point x="247" y="5" type="qcurve"/>
      <point x="245" y="1" type="line"/>
      <point x="241" y="0"/>
      <point x="216" y="0"/>
      <point x="188" y="1"/>
      <point x="162" y="2"/>
      <point x="158" y="1" type="qcurve"/>
      <point x="188" y="92"/>
      <point x="252" y="270"/>
      <point x="316" y="445"/>
      <point x="374" y="620"/>
      <point x="398" y="709" type="qcurve"/>
      <point x="404" y="707"/>
      <point x="430" y="708"/>
      <point x="459" y="710"/>
      <point x="485" y="709"/>
      <point x="490" y="705" type="qcurve"/>
      <point x="490" y="704" type="line"/>
      <point x="430" y="527"/>
      <point x="313" y="173"/>
    </contour>
    <contour>
      <point x="605" y="104" type="line"/>
      <point x="604" y="104" type="line"/>
      <point x="597" y="102"/>
      <point x="585" y="104"/>
      <point x="578" y="102" type="qcurve"/>
      <point x="577" y="102" type="line"/>
      <point x="577" y="102"/>
      <point x="575" y="75"/>
      <point x="572" y="40"/>
      <point x="569" y="9"/>
      <point x="569" y="6" type="qcurve"/>
      <point x="566" y="3"/>
      <point x="529" y="3"/>
      <point x="494" y="3" type="qcurve"/>
      <point x="494" y="4"/>
      <point x="494" y="36"/>
      <point x="494" y="75"/>
      <point x="495" y="108"/>
      <point x="495" y="110" type="qcurve"/>
      <point x="492" y="111"/>
      <point x="460" y="111"/>
      <point x="423" y="111"/>
      <point x="393" y="111"/>
      <point x="392" y="112" type="qcurve"/>
      <point x="392" y="113" type="line"/>
      <point x="391" y="116"/>
      <point x="386" y="156"/>
      <point x="387" y="185" type="qcurve"/>
      <point x="387" y="186" type="line"/>
      <point x="388" y="187"/>
      <point x="390" y="190" type="qcurve"/>
      <point x="393" y="195"/>
      <point x="407" y="217"/>
      <point x="432" y="256"/>
      <point x="470" y="314"/>
      <point x="497" y="355" type="qcurve"/>
      <point x="499" y="355"/>
      <point x="522" y="356"/>
      <point x="549" y="356"/>
      <point x="573" y="356"/>
      <point x="577" y="356" type="qcurve"/>
      <point x="578" y="356" type="line"/>
      <point x="578" y="356"/>
      <point x="578" y="332"/>
      <point x="578" y="295"/>
      <point x="578" y="252"/>
      <point x="578" y="214"/>
      <point x="579" y="185"/>
      <point x="580" y="182" type="qcurve"/>
      <point x="587" y="184"/>
      <point x="602" y="180"/>
      <point x="608" y="180" type="qcurve"/>
    </contour>
    <contour>
      <point x="515" y="252" type="line"/>
      <point x="515" y="256"/>
      <point x="499" y="236"/>
      <point x="480" y="208"/>
      <point x="463" y="182"/>
      <point x="462" y="181" type="qcurve"/>
      <point x="462" y="181"/>
      <point x="475" y="180"/>
      <point x="492" y="180"/>
      <point x="509" y="181"/>
      <point x="512" y="181" type="qcurve"/>
      <point x="513" y="181" type="line"/>
      <point x="513" y="182" type="line"/>
    </contour>
    <contour>
      <point x="44" y="324" type="qcurve"/>
      <point x="30" y="340"/>
      <point x="28" y="360" type="qcurve"/>
      <point x="26" y="371"/>
      <point x="25" y="396"/>
      <point x="23" y="411" type="qcurve"/>
      <point x="23" y="412"/>
      <point x="24" y="412" type="qcurve"/>
      <point x="39" y="411"/>
      <point x="71" y="417"/>
      <point x="89" y="416" type="qcurve"/>
      <point x="90" y="416" type="line"/>
      <point x="93" y="407"/>
      <point x="110" y="391"/>
      <point x="129" y="383"/>
      <point x="149" y="386"/>
      <point x="157" y="397" type="qcurve"/>
      <point x="163" y="407"/>
      <point x="160" y="432"/>
      <point x="149" y="440" type="qcurve"/>
      <point x="138" y="448"/>
      <point x="107" y="449"/>
      <point x="94" y="447" type="qcurve"/>
      <point x="88" y="460"/>
      <point x="93" y="502"/>
      <point x="92" y="516" type="qcurve"/>
      <point x="101" y="519"/>
      <point x="125" y="519"/>
      <point x="147" y="522"/>
      <point x="162" y="534"/>
      <point x="161" y="550" type="qcurve"/>
      <point x="161" y="567"/>
      <point x="141" y="578"/>
      <point x="116" y="574"/>
      <point x="93" y="557"/>
      <point x="89" y="547" type="qcurve"/>
      <point x="85" y="547"/>
      <point x="64" y="546"/>
      <point x="42" y="546"/>
      <point x="24" y="546"/>
      <point x="23" y="546" type="qcurve"/>
      <point x="23" y="547" type="line"/>
      <point x="23" y="557"/>
      <point x="21" y="582"/>
      <point x="25" y="593" type="qcurve"/>
      <point x="34" y="623"/>
      <point x="91" y="654"/>
      <point x="156" y="658"/>
      <point x="216" y="636"/>
      <point x="229" y="614" type="qcurve"/>
      <point x="234" y="606"/>
      <point x="237" y="587"/>
      <point x="236" y="578" type="qcurve"/>
      <point x="237" y="536"/>
      <point x="237" y="453"/>
      <point x="235" y="412" type="qcurve"/>
      <point x="234" y="398"/>
      <point x="233" y="368"/>
      <point x="227" y="354" type="qcurve"/>
      <point x="213" y="320"/>
      <point x="177" y="308" type="qcurve"/>
      <point x="158" y="303"/>
      <point x="115" y="302"/>
      <point x="95" y="304" type="qcurve"/>
      <point x="88" y="305"/>
      <point x="75" y="309"/>
      <point x="68" y="311" type="qcurve"/>
      <point x="57" y="314"/>
      <point x="46" y="323"/>
    </contour>
  </outline>
</glyph>
<glyph name="Atilde" format="1">
  <advance width="434"/>
  <unicode hex="00C3"/>
  <outline>
    <contour>
      <point x="134" y="754" type="line"/>
      <point x="124" y="756"/>
      <point x="86" y="758"/>
      <point x="66" y="758" type="qcurve"/>
      <point x="43" y="758"/>
      <point x="17" y="757" type="qcurve"/>
      <point x="20" y="768"/>
      <point x="33" y="803"/>
      <point x="49" y="841"/>
      <point x="67" y="875"/>
      <point x="77" y="886" type="qcurve"/>
      <point x="90" y="899"/>
      <point x="124" y="917"/>
      <point x="160" y="923"/>
      <point x="196" y="916"/>
      <point x="212" y="905" type="qcurve"/>
      <point x="228" y="895"/>
      <point x="246" y="865"/>
      <point x="259" y="857" type="qcurve"/>
      <point x="274" y="844"/>
      <point x="299" y="851"/>
      <point x="320" y="872"/>
      <point x="333" y="901"/>
      <point x="336" y="910" type="qcurve"/>
      <point x="356" y="912"/>
      <point x="397" y="912"/>
      <point x="418" y="913" type="qcurve"/>
      <point x="419" y="912" type="line"/>
      <point x="419" y="911"/>
      <point x="420" y="911" type="qcurve"/>
      <point x="420" y="910" type="line"/>
      <point x="423" y="887"/>
      <point x="414" y="834"/>
      <point x="390" y="788"/>
      <point x="351" y="755"/>
      <point x="325" y="751" type="qcurve"/>
      <point x="294" y="746"/>
      <point x="236" y="769"/>
      <point x="223" y="800" type="qcurve"/>
      <point x="217" y="810"/>
      <point x="201" y="822"/>
      <point x="188" y="823" type="qcurve"/>
      <point x="177" y="823"/>
      <point x="145" y="814"/>
      <point x="137" y="801" type="qcurve"/>
      <point x="134" y="795" type="line"/>
      <point x="130" y="784"/>
      <point x="130" y="767"/>
      <point x="134" y="755" type="qcurve"/>
    </contour>
    <contour>
      <point x="437" y="1" type="line"/>
      <point x="437" y="0" type="line"/>
      <point x="407" y="-6"/>
      <point x="335" y="-3"/>
      <point x="303" y="4" type="qcurve"/>
      <point x="302" y="4" type="line"/>
      <point x="296" y="20"/>
      <point x="285" y="64"/>
      <point x="274" y="110"/>
      <point x="262" y="152"/>
      <point x="255" y="167" type="qcurve"/>
      <point x="242" y="169"/>
      <point x="228" y="169"/>
      <point x="217" y="169"/>
      <point x="204" y="168"/>
      <point x="193" y="168" type="qcurve"/>
      <point x="186" y="152"/>
      <point x="177" y="109"/>
      <point x="168" y="62"/>
      <point x="158" y="18"/>
      <point x="149" y="1" type="qcurve"/>
      <point x="148" y="1"/>
      <point x="147" y="0"/>
      <point x="146" y="0" type="qcurve"/>
      <point x="138" y="-2"/>
      <point x="74" y="2"/>
      <point x="6" y="1" type="qcurve"/>
      <point x="5" y="1"/>
      <point x="4" y="2" type="qcurve"/>
      <point x="6" y="9"/>
      <point x="16" y="73"/>
      <point x="34" y="175"/>
      <point x="59" y="308"/>
      <point x="93" y="458"/>
      <point x="133" y="620"/>
      <point x="157" y="700" type="qcurve"/>
      <point x="164" y="701"/>
      <point x="180" y="701"/>
      <point x="206" y="701"/>
      <point x="247" y="702"/>
      <point x="280" y="705" type="qcurve"/>
      <point x="284" y="692"/>
      <point x="296" y="639"/>
      <point x="311" y="572"/>
      <point x="328" y="496"/>
      <point x="344" y="426"/>
      <point x="358" y="368"/>
      <point x="362" y="351" type="qcurve"/>
    </contour>
    <contour>
      <point x="260" y="286" type="qcurve"/>
      <point x="250" y="372"/>
      <point x="235" y="468"/>
      <point x="224" y="502"/>
      <point x="213" y="483"/>
      <point x="204" y="425"/>
      <point x="193" y="337"/>
      <point x="186" y="286" type="qcurve"/>
      <point x="203" y="285"/>
      <point x="241" y="286"/>
    </contour>
  </outline>
</glyph>
<glyph name="Ntilde" format="1">
  <advance width="516"/>
  <unicode hex="00D1"/>
  <outline>
    <contour>
      <point x="475" y="3" type="line"/>
      <point x="471" y="-6"/>
      <point x="435" y="-8"/>
      <point x="390" y="-5"/>
      <point x="343" y="-2"/>
      <point x="328" y="-5" type="qcurve"/>
      <point x="327" y="-5" type="line"/>
      <point x="294" y="68"/>
      <point x="233" y="225"/>
      <point x="207" y="294" type="qcurve"/>
      <point x="202" y="219"/>
      <point x="199" y="78"/>
      <point x="202" y="0" type="qcurve"/>
      <point x="202" y="-1"/>
      <point x="201" y="-1" type="qcurve"/>
      <point x="186" y="-6"/>
      <point x="146" y="-5"/>
      <point x="103" y="-1"/>
      <point x="61" y="3"/>
      <point x="43" y="0" type="qcurve"/>
      <point x="42" y="0"/>
      <point x="42" y="1" type="qcurve"/>
      <point x="43" y="86"/>
      <point x="40" y="261"/>
      <point x="38" y="437"/>
      <point x="41" y="611"/>
      <point x="48" y="695" type="qcurve"/>
      <point x="60" y="700"/>
      <point x="97" y="702"/>
      <point x="138" y="699"/>
      <point x="179" y="692"/>
      <point x="194" y="688" type="qcurve"/>
      <point x="194" y="687" type="line"/>
      <point x="196" y="677"/>
      <point x="225" y="626"/>
      <point x="262" y="563"/>
      <point x="302" y="498"/>
      <point x="316" y="474" type="qcurve"/>
      <point x="321" y="492"/>
      <point x="319" y="545"/>
      <point x="314" y="605"/>
      <point x="313" y="668"/>
      <point x="318" y="696" type="qcurve"/>
      <point x="318" y="699" type="line"/>
      <point x="336" y="703"/>
      <point x="385" y="706"/>
      <point x="432" y="706"/>
      <point x="468" y="703"/>
      <point x="474" y="702" type="qcurve"/>
      <point x="473" y="382" type="line"/>
      <point x="475" y="291"/>
      <point x="473" y="107"/>
      <point x="476" y="17" type="qcurve"/>
    </contour>
    <contour>
      <point x="176" y="752" type="line"/>
      <point x="166" y="754"/>
      <point x="128" y="756"/>
      <point x="108" y="756" type="qcurve"/>
      <point x="85" y="756"/>
      <point x="59" y="755" type="qcurve"/>
      <point x="62" y="766"/>
      <point x="75" y="801"/>
      <point x="91" y="839"/>
      <point x="109" y="873"/>
      <point x="119" y="884" type="qcurve"/>
      <point x="132" y="897"/>
      <point x="166" y="915"/>
      <point x="202" y="921"/>
      <point x="238" y="914"/>
      <point x="254" y="903" type="qcurve"/>
      <point x="270" y="893"/>
      <point x="288" y="863"/>
      <point x="301" y="855" type="qcurve"/>
      <point x="316" y="842"/>
      <point x="341" y="849"/>
      <point x="362" y="870"/>
      <point x="375" y="899"/>
      <point x="378" y="908" type="qcurve"/>
      <point x="398" y="910"/>
      <point x="439" y="910"/>
      <point x="460" y="911" type="qcurve"/>
      <point x="461" y="910" type="line"/>
      <point x="461" y="909"/>
      <point x="462" y="909" type="qcurve"/>
      <point x="469" y="877"/>
      <point x="444" y="808"/>
      <point x="426" y="782" type="qcurve"/>
      <point x="408" y="761"/>
      <point x="386" y="754" type="qcurve"/>
      <point x="369" y="748"/>
      <point x="333" y="747"/>
      <point x="300" y="758"/>
      <point x="272" y="780"/>
      <point x="265" y="798" type="qcurve"/>
      <point x="258" y="809"/>
      <point x="241" y="821"/>
      <point x="226" y="821" type="qcurve"/>
      <point x="218" y="821"/>
      <point x="201" y="816"/>
      <point x="191" y="812" type="qcurve"/>
      <point x="186" y="808"/>
      <point x="178" y="799"/>
      <point x="176" y="793" type="qcurve"/>
      <point x="172" y="782"/>
      <point x="172" y="765"/>
      <point x="176" y="753" type="qcurve"/>
    </contour>
  </outline>
</glyph>
<glyph name="Ograve" format="1">
  <advance width="485"/>
  <unicode hex="00D2"/>
  <outline>
    <contour>
      <point x="135" y="917" type="line"/>
      <point x="153" y="903"/>
      <point x="197" y="862"/>
      <point x="242" y="815"/>
      <point x="285" y="770"/>
      <point x="302" y="754" type="qcurve"/>
      <point x="295" y="752"/>
      <point x="263" y="749"/>
      <point x="224" y="747"/>
      <point x="184" y="748"/>
      <point x="168" y="750" type="qcurve"/>
      <point x="163" y="758"/>
      <point x="136" y="784"/>
      <point x="104" y="813"/>
      <point x="74" y="839"/>
      <point x="67" y="846" type="qcurve"/>
      <point x="66" y="847" type="line"/>
    </contour>
    <contour>
      <point x="438" y="597" type="qcurve"/>
      <point x="445" y="582"/>
      <point x="452" y="551"/>
      <point x="454" y="535" type="qcurve"/>
      <point x="456" y="510"/>
      <point x="457" y="461"/>
      <point x="456" y="436" type="qcurve"/>
      <point x="453" y="383"/>
      <point x="455" y="283"/>
      <point x="451" y="231" type="qcurve"/>
      <point x="448" y="198" type="line"/>
      <point x="446" y="163"/>
      <point x="428" y="92"/>
      <point x="410" y="63" type="qcurve"/>
      <point x="393" y="39"/>
      <point x="338" y="10"/>
      <point x="307" y="2" type="qcurve"/>
      <point x="279" y="-6"/>
      <point x="222" y="-10"/>
      <point x="193" y="-8" type="qcurve"/>
      <point x="172" y="-6"/>
      <point x="133" y="1"/>
      <point x="98" y="17"/>
      <point x="70" y="42"/>
      <point x="61" y="62" type="qcurve"/>
      <point x="47" y="87"/>
      <point x="38" y="144"/>
      <point x="37" y="173" type="qcurve"/>
      <point x="34" y="251"/>
      <point x="27" y="408"/>
      <point x="32" y="487" type="qcurve"/>
      <point x="33" y="532"/>
      <point x="54" y="623"/>
      <point x="85" y="658" type="qcurve"/>
      <point x="95" y="668"/>
      <point x="108" y="676" type="qcurve"/>
      <point x="141" y="692"/>
      <point x="218" y="707"/>
      <point x="295" y="703"/>
      <point x="368" y="680"/>
      <point x="397" y="658" type="qcurve"/>
      <point x="426" y="632"/>
    </contour>
    <contour>
      <point x="329" y="421" type="line"/>
      <point x="329" y="422"/>
      <point x="326" y="461"/>
      <point x="325" y="478" type="qcurve"/>
      <point x="323" y="506"/>
      <point x="296" y="552"/>
      <point x="273" y="563" type="qcurve"/>
      <point x="253" y="571"/>
      <point x="211" y="561"/>
      <point x="195" y="549" type="qcurve"/>
      <point x="160" y="522"/>
      <point x="148" y="480" type="qcurve"/>
      <point x="140" y="442"/>
      <point x="137" y="358"/>
      <point x="139" y="316" type="qcurve"/>
      <point x="144" y="281"/>
      <point x="148" y="208"/>
      <point x="158" y="175" type="qcurve"/>
      <point x="168" y="155"/>
      <point x="206" y="133"/>
      <point x="250" y="130"/>
      <point x="294" y="145"/>
      <point x="309" y="162" type="qcurve"/>
      <point x="318" y="174"/>
      <point x="326" y="189"/>
      <point x="328" y="207"/>
      <point x="327" y="232"/>
      <point x="329" y="253" type="qcurve"/>
      <point x="330" y="273"/>
      <point x="331" y="303"/>
      <point x="331" y="305" type="qcurve"/>
      <point x="331" y="353" type="line"/>
    </contour>
  </outline>
</glyph>
<glyph name="Otilde" format="1">
  <advance width="484"/>
  <unicode hex="00D5"/>
  <outline>
    <contour>
      <point x="437" y="597" type="qcurve"/>
      <point x="444" y="582"/>
      <point x="451" y="551"/>
      <point x="453" y="535" type="qcurve"/>
      <point x="455" y="510"/>
      <point x="456" y="461"/>
      <point x="455" y="436" type="qcurve"/>
      <point x="452" y="383"/>
      <point x="454" y="283"/>
      <point x="450" y="231" type="qcurve"/>
      <point x="447" y="198" type="line"/>
      <point x="445" y="163"/>
      <point x="427" y="92"/>
      <point x="409" y="63" type="qcurve"/>
      <point x="392" y="39"/>
      <point x="337" y="10"/>
      <point x="306" y="2" type="qcurve"/>
      <point x="278" y="-6"/>
      <point x="221" y="-10"/>
      <point x="192" y="-8" type="qcurve"/>
      <point x="171" y="-6"/>
      <point x="132" y="1"/>
      <point x="97" y="17"/>
      <point x="69" y="42"/>
      <point x="60" y="62" type="qcurve"/>
      <point x="46" y="87"/>
      <point x="37" y="144"/>
      <point x="36" y="173" type="qcurve"/>
      <point x="33" y="251"/>
      <point x="26" y="408"/>
      <point x="31" y="487" type="qcurve"/>
      <point x="32" y="532"/>
      <point x="53" y="623"/>
      <point x="84" y="658" type="qcurve"/>
      <point x="94" y="668"/>
      <point x="107" y="676" type="qcurve"/>
      <point x="140" y="692"/>
      <point x="217" y="707"/>
      <point x="294" y="703"/>
      <point x="367" y="680"/>
      <point x="396" y="658" type="qcurve"/>
      <point x="425" y="632"/>
    </contour>
    <contour>
      <point x="328" y="421" type="line"/>
      <point x="328" y="422"/>
      <point x="325" y="461"/>
      <point x="324" y="478" type="qcurve"/>
      <point x="322" y="506"/>
      <point x="295" y="552"/>
      <point x="272" y="563" type="qcurve"/>
      <point x="252" y="571"/>
      <point x="210" y="561"/>
      <point x="194" y="549" type="qcurve"/>
      <point x="159" y="522"/>
      <point x="147" y="480" type="qcurve"/>
      <point x="139" y="442"/>
      <point x="136" y="358"/>
      <point x="138" y="316" type="qcurve"/>
      <point x="143" y="281"/>
      <point x="147" y="208"/>
      <point x="157" y="175" type="qcurve"/>
      <point x="167" y="155"/>
      <point x="205" y="133"/>
      <point x="249" y="130"/>
      <point x="293" y="145"/>
      <point x="308" y="162" type="qcurve"/>
      <point x="317" y="174"/>
      <point x="325" y="189"/>
      <point x="327" y="207"/>
      <point x="326" y="232"/>
      <point x="328" y="253" type="qcurve"/>
      <point x="329" y="273"/>
      <point x="330" y="303"/>
      <point x="330" y="305" type="qcurve"/>
      <point x="330" y="353" type="line"/>
    </contour>
    <contour>
      <point x="156" y="743" type="line"/>
      <point x="146" y="745"/>
      <point x="108" y="747"/>
      <point x="88" y="747" type="qcurve"/>
      <point x="65" y="747"/>
      <point x="39" y="746" type="qcurve"/>
      <point x="42" y="757"/>
      <point x="55" y="792"/>
      <point x="71" y="830"/>
      <point x="89" y="864"/>
      <point x="99" y="875" type="qcurve"/>
      <point x="112" y="888"/>
      <point x="146" y="906"/>
      <point x="182" y="912"/>
      <point x="218" y="905"/>
      <point x="234" y="894" type="qcurve"/>
      <point x="250" y="884"/>
      <point x="268" y="854"/>
      <point x="281" y="846" type="qcurve"/>
      <point x="296" y="833"/>
      <point x="321" y="840"/>
      <point x="342" y="861"/>
      <point x="355" y="890"/>
      <point x="358" y="899" type="qcurve"/>
      <point x="378" y="901"/>
      <point x="419" y="901"/>
      <point x="440" y="902" type="qcurve"/>
      <point x="441" y="901" type="line"/>
      <point x="441" y="900"/>
      <point x="442" y="900" type="qcurve"/>
      <point x="449" y="868"/>
      <point x="424" y="799"/>
      <point x="406" y="773" type="qcurve"/>
      <point x="388" y="752"/>
      <point x="366" y="745" type="qcurve"/>
      <point x="349" y="739"/>
      <point x="313" y="738"/>
      <point x="280" y="749"/>
      <point x="252" y="771"/>
      <point x="245" y="789" type="qcurve"/>
      <point x="238" y="800"/>
      <point x="221" y="812"/>
      <point x="206" y="812" type="qcurve"/>
      <point x="198" y="812"/>
      <point x="181" y="807"/>
      <point x="171" y="803" type="qcurve"/>
      <point x="166" y="799"/>
      <point x="158" y="790"/>
      <point x="156" y="784" type="qcurve"/>
      <point x="152" y="773"/>
      <point x="152" y="756"/>
      <point x="156" y="744" type="qcurve"/>
    </contour>
  </outline>
</glyph>
<glyph name="Ucircumflex" format="1">
  <advance width="505"/>
  <unicode hex="00DB"/>
  <outline>
    <contour>
      <point x="411" y="756" type="line"/>
      <point x="410" y="757"/>
      <point x="392" y="754"/>
      <point x="361" y="750"/>
      <point x="320" y="748"/>
      <point x="296" y="751" type="qcurve"/>
      <point x="293" y="751"/>
      <point x="279" y="764"/>
      <point x="264" y="781"/>
      <point x="250" y="797"/>
      <point x="245" y="800" type="qcurve"/>
      <point x="241" y="798"/>
      <point x="227" y="783"/>
      <point x="211" y="766"/>
      <point x="197" y="752"/>
      <point x="193" y="751" type="qcurve"/>
      <point x="184" y="750"/>
      <point x="173" y="750"/>
      <point x="154" y="751"/>
      <point x="119" y="753"/>
      <point x="86" y="755" type="qcurve"/>
      <point x="120" y="801"/>
      <point x="204" y="877"/>
      <point x="248" y="918" type="qcurve"/>
    </contour>
    <contour>
      <point x="469" y="669" type="line"/>
      <point x="475" y="541"/>
      <point x="471" y="280"/>
      <point x="457" y="151" type="qcurve"/>
      <point x="449" y="85"/>
      <point x="365" y="-7"/>
      <point x="293" y="-14" type="qcurve"/>
      <point x="251" y="-18"/>
      <point x="161" y="-3"/>
      <point x="88" y="36"/>
      <point x="39" y="101"/>
      <point x="37" y="147" type="qcurve"/>
      <point x="37" y="279"/>
      <point x="43" y="547"/>
      <point x="41" y="679" type="qcurve"/>
      <point x="40" y="680" type="line"/>
      <point x="41" y="680" type="line"/>
      <point x="56" y="680"/>
      <point x="93" y="682"/>
      <point x="131" y="682"/>
      <point x="167" y="679"/>
      <point x="182" y="675" type="qcurve"/>
      <point x="182" y="674" type="line"/>
      <point x="171" y="432"/>
      <point x="191" y="183" type="qcurve"/>
      <point x="198" y="159"/>
      <point x="235" y="137"/>
      <point x="275" y="139"/>
      <point x="309" y="165"/>
      <point x="314" y="188" type="qcurve"/>
      <point x="319" y="308"/>
      <point x="320" y="556"/>
      <point x="323" y="672" type="qcurve"/>
      <point x="336" y="673"/>
      <point x="376" y="677"/>
      <point x="418" y="680"/>
      <point x="457" y="677"/>
      <point x="469" y="670" type="qcurve"/>
    </contour>
  </outline>
</glyph>
<glyph name="germandbls" format="1">
  <advance width="470"/>
  <unicode hex="00DF"/>
  <outline>
    <contour>
      <point x="238" y="355" type="qcurve"/>
      <point x="246" y="401"/>
      <point x="301" y="452"/>
      <point x="311" y="494"/>
      <point x="303" y="510" type="qcurve"/>
      <point x="295" y="526"/>
      <point x="270" y="543"/>
      <point x="254" y="547" type="qcurve"/>
      <point x="234" y="551"/>
      <point x="177" y="552"/>
      <point x="162" y="544" type="qcurve"/>
      <point x="160" y="514"/>
      <point x="157" y="455"/>
      <point x="162" y="359"/>
      <point x="163" y="303"/>
      <point x="164" y="240"/>
      <point x="166" y="189"/>
      <point x="168" y="-1"/>
      <point x="158" y="0" type="qcurve"/>
      <point x="96" y="0"/>
      <point x="60" y="1" type="qcurve"/>
      <point x="54" y="1"/>
      <point x="43" y="1"/>
      <point x="38" y="3" type="qcurve"/>
      <point x="32" y="177"/>
      <point x="38" y="518"/>
      <point x="35" y="692" type="qcurve"/>
      <point x="36" y="693" type="line"/>
      <point x="76" y="704"/>
      <point x="166" y="716"/>
      <point x="254" y="712"/>
      <point x="335" y="690"/>
      <point x="397" y="641"/>
      <point x="433" y="564"/>
      <point x="433" y="508" type="qcurve"/>
      <point x="433" y="466"/>
      <point x="404" y="386"/>
      <point x="384" y="352" type="qcurve"/>
      <point x="380" y="345"/>
      <point x="384" y="337"/>
      <point x="389" y="331" type="qcurve"/>
      <point x="405" y="311"/>
      <point x="434" y="272"/>
      <point x="455" y="229"/>
      <point x="463" y="177"/>
      <point x="457" y="145" type="qcurve"/>
      <point x="449" y="98"/>
      <point x="404" y="39"/>
      <point x="340" y="7"/>
      <point x="282" y="-4"/>
      <point x="229" y="0" type="qcurve"/>
      <point x="217" y="43"/>
      <point x="226" y="122" type="qcurve"/>
      <point x="231" y="140"/>
      <point x="258" y="142" type="qcurve"/>
      <point x="322" y="152"/>
      <point x="303" y="246"/>
      <point x="270" y="276" type="curve"/>
      <point x="235" y="312"/>
    </contour>
  </outline>
</glyph>
<glyph name="aring" format="1">
  <advance width="476"/>
  <unicode hex="00E5"/>
  <outline>
    <contour>
      <point x="327" y="594" type="qcurve"/>
      <point x="318" y="580"/>
      <point x="284" y="571"/>
      <point x="267" y="570" type="qcurve"/>
      <point x="253" y="568"/>
      <point x="225" y="568"/>
      <point x="211" y="569" type="qcurve"/>
      <point x="197" y="570"/>
      <point x="171" y="585"/>
      <point x="166" y="598" type="qcurve"/>
      <point x="161" y="626"/>
      <point x="158" y="685"/>
      <point x="165" y="712" type="qcurve"/>
      <point x="168" y="722"/>
      <point x="176" y="732" type="qcurve"/>
      <point x="190" y="745"/>
      <point x="231" y="754"/>
      <point x="254" y="752" type="qcurve"/>
      <point x="275" y="751"/>
      <point x="322" y="739"/>
      <point x="333" y="723" type="qcurve"/>
      <point x="342" y="692"/>
      <point x="339" y="624"/>
    </contour>
    <contour>
      <point x="221" y="702" type="qcurve"/>
      <point x="209" y="695"/>
      <point x="206" y="682" type="qcurve"/>
      <point x="204" y="672"/>
      <point x="204" y="665" type="qcurve"/>
      <point x="204" y="654"/>
      <point x="206" y="629"/>
      <point x="214" y="621" type="qcurve"/>
      <point x="224" y="612"/>
      <point x="239" y="612" type="qcurve"/>
      <point x="249" y="612" type="line"/>
      <point x="260" y="613"/>
      <point x="287" y="616"/>
      <point x="292" y="627" type="qcurve"/>
      <point x="294" y="637"/>
      <point x="298" y="661"/>
      <point x="297" y="672" type="qcurve"/>
      <point x="295" y="686"/>
      <point x="290" y="694" type="qcurve"/>
      <point x="282" y="702"/>
      <point x="262" y="708"/>
      <point x="251" y="708" type="qcurve"/>
      <point x="234" y="708"/>
    </contour>
    <contour>
      <point x="439" y="498" type="qcurve"/>
      <point x="440" y="492"/>
      <point x="441" y="480"/>
      <point x="441" y="474" type="qcurve"/>
      <point x="441" y="464" type="line"/>
      <point x="438" y="356"/>
      <point x="446" y="147"/>
      <point x="439" y="40" type="qcurve"/>
      <point x="439" y="27"/>
      <point x="438" y="1"/>
      <point x="426" y="-1" type="qcurve"/>
      <point x="414" y="-1" type="line"/>
      <point x="398" y="-1"/>
      <point x="365" y="2"/>
      <point x="349" y="2" type="qcurve"/>
      <point x="338" y="2"/>
      <point x="317" y="-1"/>
      <point x="306" y="-1" type="qcurve"/>
      <point x="299" y="1"/>
      <point x="294" y="13"/>
      <point x="294" y="21" type="qcurve"/>
      <point x="294" y="32"/>
      <point x="298" y="46"/>
      <point x="298" y="56" type="qcurve"/>
      <point x="274" y="32"/>
      <point x="201" y="-2"/>
      <point x="166" y="-2" type="qcurve"/>
      <point x="127" y="-2"/>
      <point x="72" y="52"/>
      <point x="36" y="132"/>
      <point x="19" y="226"/>
      <point x="19" y="266" type="qcurve"/>
      <point x="19" y="316"/>
      <point x="45" y="400"/>
      <point x="90" y="461"/>
      <point x="152" y="496"/>
      <point x="187" y="497" type="qcurve"/>
      <point x="205" y="497"/>
      <point x="236" y="496"/>
      <point x="262" y="487"/>
      <point x="282" y="468"/>
      <point x="289" y="451" type="qcurve"/>
      <point x="288" y="467"/>
      <point x="293" y="490"/>
      <point x="293" y="502" type="qcurve"/>
      <point x="293" y="503"/>
      <point x="306" y="504"/>
      <point x="322" y="503"/>
      <point x="338" y="503"/>
      <point x="341" y="503" type="qcurve"/>
      <point x="358" y="502"/>
      <point x="407" y="500"/>
    </contour>
    <contour>
      <point x="148" y="299" type="qcurve"/>
      <point x="144" y="286"/>
      <point x="142" y="259"/>
      <point x="142" y="246" type="qcurve"/>
      <point x="142" y="201"/>
      <point x="189" y="138"/>
      <point x="231" y="138" type="qcurve"/>
      <point x="256" y="138"/>
      <point x="281" y="155"/>
      <point x="292" y="186"/>
      <point x="293" y="231"/>
      <point x="293" y="259" type="qcurve"/>
      <point x="293" y="294"/>
      <point x="292" y="335"/>
      <point x="283" y="357"/>
      <point x="262" y="363"/>
      <point x="241" y="363" type="qcurve"/>
      <point x="200" y="363"/>
      <point x="153" y="324"/>
    </contour>
  </outline>
</glyph>
<glyph name="ccedilla" format="1">
  <advance width="443"/>
  <unicode hex="00E7"/>
  <outline>
    <contour>
      <point x="281" y="-12" type="qcurve"/>
      <point x="278" y="-23"/>
      <point x="265" y="-61"/>
      <point x="250" y="-102"/>
      <point x="237" y="-138"/>
      <point x="235" y="-147" type="qcurve"/>
      <point x="235" y="-148" type="line"/>
      <point x="227" y="-148"/>
      <point x="191" y="-148"/>
      <point x="154" y="-148"/>
      <point x="126" y="-148"/>
      <point x="126" y="-147" type="qcurve"/>
      <point x="141" y="-107"/>
      <point x="155" y="-68"/>
      <point x="162" y="-46"/>
      <point x="168" y="-28"/>
      <point x="174" y="-10" type="qcurve"/>
      <point x="161" y="-9" type="line"/>
      <point x="110" y="0"/>
      <point x="75" y="35" type="qcurve"/>
      <point x="48" y="59"/>
      <point x="28" y="131"/>
      <point x="24" y="210"/>
      <point x="27" y="290"/>
      <point x="23" y="323" type="qcurve"/>
      <point x="23" y="359"/>
      <point x="29" y="395" type="qcurve"/>
      <point x="30" y="406"/>
      <point x="42" y="444"/>
      <point x="45" y="454" type="qcurve"/>
      <point x="52" y="469"/>
      <point x="83" y="491"/>
      <point x="124" y="506"/>
      <point x="171" y="512"/>
      <point x="195" y="512" type="qcurve"/>
      <point x="215" y="510"/>
      <point x="252" y="513"/>
      <point x="273" y="511" type="qcurve"/>
      <point x="305" y="509"/>
      <point x="363" y="489"/>
      <point x="384" y="469" type="qcurve"/>
      <point x="398" y="459"/>
      <point x="413" y="425"/>
      <point x="421" y="379"/>
      <point x="422" y="322"/>
      <point x="423" y="289" type="qcurve"/>
      <point x="410" y="286"/>
      <point x="377" y="286"/>
      <point x="342" y="288"/>
      <point x="309" y="292"/>
      <point x="296" y="294" type="qcurve"/>
      <point x="291" y="329"/>
      <point x="243" y="368"/>
      <point x="204" y="358" type="qcurve"/>
      <point x="183" y="352"/>
      <point x="170" y="336" type="qcurve"/>
      <point x="164" y="332"/>
      <point x="161" y="316" type="qcurve"/>
      <point x="157" y="285"/>
      <point x="157" y="221"/>
      <point x="155" y="186" type="qcurve"/>
      <point x="153" y="163"/>
      <point x="180" y="137"/>
      <point x="218" y="128"/>
      <point x="258" y="133"/>
      <point x="270" y="141" type="qcurve"/>
      <point x="280" y="148"/>
      <point x="291" y="181"/>
      <point x="294" y="194" type="qcurve"/>
      <point x="304" y="193"/>
      <point x="338" y="194"/>
      <point x="376" y="196"/>
      <point x="410" y="195"/>
      <point x="421" y="192" type="qcurve"/>
      <point x="419" y="166"/>
      <point x="415" y="116"/>
      <point x="409" y="73"/>
      <point x="400" y="42"/>
      <point x="393" y="35" type="qcurve"/>
      <point x="375" y="9"/>
      <point x="316" y="-10"/>
    </contour>
    <contour>
      <point x="425" y="-90" type="line"/>
      <point x="424" y="-90"/>
      <point x="424" y="-89" type="qcurve"/>
      <point x="424" y="-88" type="line"/>
    </contour>
  </outline>
</glyph>
<glyph name="edieresis" format="1">
  <advance width="444"/>
  <unicode hex="00EB"/>
  <outline>
    <contour>
      <point x="198" y="757" type="line"/>
      <point x="198" y="751"/>
      <point x="199" y="720"/>
      <point x="200" y="683"/>
      <point x="201" y="644"/>
      <point x="201" y="629" type="qcurve"/>
      <point x="197" y="623"/>
      <point x="168" y="619"/>
      <point x="129" y="620"/>
      <point x="85" y="623"/>
      <point x="66" y="622" type="qcurve"/>
      <point x="66" y="651"/>
      <point x="61" y="714"/>
      <point x="62" y="760" type="qcurve"/>
    </contour>
    <contour>
      <point x="382" y="757" type="line"/>
      <point x="382" y="751"/>
      <point x="383" y="720"/>
      <point x="384" y="683"/>
      <point x="385" y="644"/>
      <point x="385" y="629" type="qcurve"/>
      <point x="381" y="623"/>
      <point x="352" y="619"/>
      <point x="313" y="620"/>
      <point x="269" y="623"/>
      <point x="250" y="622" type="qcurve"/>
      <point x="250" y="651"/>
      <point x="245" y="714"/>
      <point x="246" y="760" type="qcurve"/>
    </contour>
    <contour>
      <point x="156" y="251" type="qcurve"/>
      <point x="156" y="233" type="line"/>
      <point x="157" y="203"/>
      <point x="160" y="165"/>
      <point x="171" y="147" type="qcurve"/>
      <point x="183" y="124"/>
      <point x="227" y="102"/>
      <point x="269" y="110"/>
      <point x="298" y="151"/>
      <point x="296" y="192" type="qcurve"/>
      <point x="306" y="191"/>
      <point x="340" y="192"/>
      <point x="377" y="194"/>
      <point x="411" y="193"/>
      <point x="422" y="190" type="qcurve"/>
      <point x="420" y="164"/>
      <point x="416" y="114"/>
      <point x="410" y="71"/>
      <point x="401" y="40"/>
      <point x="394" y="34" type="qcurve"/>
      <point x="377" y="10"/>
      <point x="323" y="-10"/>
      <point x="259" y="-14"/>
      <point x="192" y="-10"/>
      <point x="164" y="-10" type="qcurve"/>
      <point x="136" y="-6"/>
      <point x="112" y="8" type="qcurve"/>
      <point x="85" y="27"/>
      <point x="49" y="88"/>
      <point x="27" y="161"/>
      <point x="19" y="243"/>
      <point x="21" y="284" type="qcurve"/>
      <point x="24" y="321"/>
      <point x="31" y="390"/>
      <point x="43" y="423" type="qcurve"/>
      <point x="56" y="452"/>
      <point x="110" y="493"/>
      <point x="178" y="514"/>
      <point x="254" y="516"/>
      <point x="290" y="507" type="qcurve"/>
      <point x="336" y="499"/>
      <point x="392" y="451"/>
      <point x="421" y="383"/>
      <point x="427" y="301"/>
      <point x="424" y="259" type="qcurve"/>
      <point x="417" y="257"/>
      <point x="378" y="253"/>
      <point x="325" y="249"/>
      <point x="265" y="247"/>
      <point x="210" y="247"/>
      <point x="166" y="249"/>
    </contour>
    <contour>
      <point x="277" y="406" type="qcurve"/>
      <point x="269" y="411"/>
      <point x="253" y="416"/>
      <point x="242" y="416" type="qcurve"/>
      <point x="218" y="416"/>
      <point x="188" y="406"/>
      <point x="170" y="388"/>
      <point x="161" y="364"/>
      <point x="159" y="351" type="qcurve"/>
      <point x="157" y="340"/>
      <point x="158" y="331"/>
      <point x="176" y="328"/>
      <point x="215" y="329"/>
      <point x="253" y="329" type="qcurve"/>
      <point x="279" y="329"/>
      <point x="305" y="327"/>
      <point x="316" y="328"/>
      <point x="316" y="333"/>
      <point x="316" y="341" type="qcurve"/>
      <point x="316" y="361"/>
      <point x="295" y="397"/>
    </contour>
  </outline>
</glyph>
<glyph name="iacute" format="1">
  <advance width="207"/>
  <unicode hex="00ED"/>
  <outline>
    <contour>
      <point x="49" y="503" type="line"/>
      <point x="81" y="502"/>
      <point x="127" y="504"/>
      <point x="140" y="505" type="qcurve"/>
      <point x="145" y="505"/>
      <point x="164" y="507"/>
      <point x="168" y="506" type="qcurve"/>
      <point x="168" y="505" type="line"/>
      <point x="174" y="446"/>
      <point x="174" y="321"/>
      <point x="170" y="193"/>
      <point x="169" y="63"/>
      <point x="174" y="0" type="qcurve"/>
      <point x="167" y="2"/>
      <point x="125" y="0"/>
      <point x="78" y="-1"/>
      <point x="38" y="0"/>
      <point x="33" y="6" type="qcurve"/>
      <point x="40" y="127"/>
      <point x="33" y="379"/>
      <point x="32" y="500" type="qcurve"/>
      <point x="32" y="503" type="line"/>
    </contour>
    <contour>
      <point x="263" y="684" type="line"/>
      <point x="262" y="683" type="line"/>
      <point x="255" y="676"/>
      <point x="225" y="650"/>
      <point x="193" y="621"/>
      <point x="165" y="595"/>
      <point x="161" y="587" type="qcurve"/>
      <point x="145" y="585"/>
      <point x="104" y="584"/>
      <point x="65" y="586"/>
      <point x="34" y="589"/>
      <point x="27" y="591" type="qcurve"/>
      <point x="44" y="607"/>
      <point x="87" y="652"/>
      <point x="132" y="699"/>
      <point x="176" y="740"/>
      <point x="194" y="754" type="qcurve"/>
    </contour>
  </outline>
</glyph>
<glyph name="icircumflex" format="1">
  <advance width="207"/>
  <unicode hex="00EE"/>
  <outline>
    <contour>
      <point x="175" y="503" type="line"/>
      <point x="175" y="500" type="line"/>
      <point x="174" y="379"/>
      <point x="167" y="127"/>
      <point x="174" y="6" type="qcurve"/>
      <point x="169" y="0"/>
      <point x="129" y="-1"/>
      <point x="82" y="0"/>
      <point x="40" y="2"/>
      <point x="33" y="0" type="qcurve"/>
      <point x="38" y="63"/>
      <point x="37" y="193"/>
      <point x="33" y="321"/>
      <point x="33" y="446"/>
      <point x="39" y="505" type="qcurve"/>
      <point x="39" y="506" type="line"/>
      <point x="43" y="507"/>
      <point x="62" y="505"/>
      <point x="67" y="505" type="qcurve"/>
      <point x="80" y="504"/>
      <point x="126" y="502"/>
      <point x="158" y="503" type="qcurve"/>
    </contour>
    <contour>
      <point x="271" y="595" type="line"/>
      <point x="270" y="596"/>
      <point x="252" y="593"/>
      <point x="221" y="589"/>
      <point x="180" y="587"/>
      <point x="156" y="590" type="qcurve"/>
      <point x="153" y="590"/>
      <point x="139" y="603"/>
      <point x="124" y="620"/>
      <point x="110" y="636"/>
      <point x="105" y="639" type="qcurve"/>
      <point x="101" y="637"/>
      <point x="87" y="622"/>
      <point x="71" y="605"/>
      <point x="57" y="591"/>
      <point x="53" y="590" type="qcurve"/>
      <point x="44" y="589"/>
      <point x="33" y="589"/>
      <point x="14" y="590"/>
      <point x="-21" y="592"/>
      <point x="-54" y="594" type="qcurve"/>
      <point x="-20" y="640"/>
      <point x="64" y="716"/>
      <point x="108" y="757" type="qcurve"/>
    </contour>
  </outline>
</glyph>
<glyph name="ntilde" format="1">
  <advance width="450"/>
  <unicode hex="00F1"/>
  <outline>
    <contour>
      <point x="169" y="446" type="qcurve"/>
      <point x="174" y="449"/>
      <point x="189" y="457"/>
      <point x="194" y="461" type="qcurve"/>
      <point x="215" y="476"/>
      <point x="267" y="494"/>
      <point x="322" y="496"/>
      <point x="374" y="482"/>
      <point x="395" y="464" type="qcurve"/>
      <point x="405" y="455"/>
      <point x="416" y="398"/>
      <point x="419" y="318"/>
      <point x="418" y="223"/>
      <point x="416" y="126"/>
      <point x="414" y="36"/>
      <point x="416" y="2" type="qcurve"/>
      <point x="381" y="-3"/>
      <point x="326" y="-2"/>
      <point x="291" y="-2" type="qcurve"/>
      <point x="289" y="21"/>
      <point x="289" y="79"/>
      <point x="290" y="141"/>
      <point x="289" y="203"/>
      <point x="287" y="230" type="qcurve"/>
      <point x="286" y="242"/>
      <point x="284" y="271"/>
      <point x="279" y="299"/>
      <point x="270" y="321"/>
      <point x="262" y="327" type="qcurve"/>
      <point x="261" y="328"/>
      <point x="259" y="328"/>
      <point x="258" y="329" type="qcurve"/>
      <point x="250" y="333"/>
      <point x="219" y="338"/>
      <point x="189" y="329"/>
      <point x="165" y="302"/>
      <point x="163" y="275" type="qcurve"/>
      <point x="161" y="240"/>
      <point x="163" y="173"/>
      <point x="166" y="106"/>
      <point x="166" y="40"/>
      <point x="162" y="7" type="qcurve"/>
      <point x="162" y="3" type="line"/>
      <point x="145" y="-2"/>
      <point x="120" y="-4"/>
      <point x="94" y="-3"/>
      <point x="62" y="-1"/>
      <point x="38" y="-3" type="qcurve"/>
      <point x="38" y="120"/>
      <point x="33" y="366"/>
      <point x="37" y="498" type="qcurve"/>
      <point x="49" y="497"/>
      <point x="65" y="496"/>
      <point x="79" y="496"/>
      <point x="95" y="497"/>
      <point x="107" y="498" type="qcurve"/>
      <point x="111" y="498"/>
      <point x="131" y="501"/>
      <point x="151" y="503"/>
      <point x="167" y="502"/>
      <point x="167" y="499" type="qcurve"/>
      <point x="169" y="482"/>
      <point x="168" y="460"/>
    </contour>
    <contour>
      <point x="142" y="589" type="line"/>
      <point x="132" y="591"/>
      <point x="94" y="593"/>
      <point x="74" y="593" type="qcurve"/>
      <point x="51" y="593"/>
      <point x="25" y="592" type="qcurve"/>
      <point x="28" y="603"/>
      <point x="41" y="638"/>
      <point x="57" y="676"/>
      <point x="75" y="710"/>
      <point x="85" y="721" type="qcurve"/>
      <point x="98" y="734"/>
      <point x="132" y="752"/>
      <point x="168" y="758"/>
      <point x="204" y="751"/>
      <point x="220" y="740" type="qcurve"/>
      <point x="236" y="730"/>
      <point x="254" y="700"/>
      <point x="267" y="692" type="qcurve"/>
      <point x="282" y="679"/>
      <point x="307" y="686"/>
      <point x="328" y="707"/>
      <point x="341" y="736"/>
      <point x="344" y="745" type="qcurve"/>
      <point x="364" y="747"/>
      <point x="405" y="747"/>
      <point x="426" y="748" type="qcurve"/>
      <point x="427" y="747" type="line"/>
      <point x="427" y="746"/>
      <point x="428" y="746" type="qcurve"/>
      <point x="428" y="745" type="line"/>
      <point x="431" y="722"/>
      <point x="422" y="669"/>
      <point x="398" y="623"/>
      <point x="359" y="590"/>
      <point x="333" y="586" type="qcurve"/>
      <point x="302" y="581"/>
      <point x="244" y="604"/>
      <point x="231" y="635" type="qcurve"/>
      <point x="225" y="645"/>
      <point x="209" y="657"/>
      <point x="196" y="658" type="qcurve"/>
      <point x="185" y="658"/>
      <point x="153" y="649"/>
      <point x="145" y="636" type="qcurve"/>
      <point x="142" y="630" type="line"/>
      <point x="138" y="619"/>
      <point x="138" y="602"/>
      <point x="142" y="590" type="qcurve"/>
    </contour>
  </outline>
</glyph>
<glyph name="oacute" format="1">
  <advance width="448"/>
  <unicode hex="00F3"/>
  <outline>
    <contour>
      <point x="380" y="684" type="line"/>
      <point x="379" y="683" type="line"/>
      <point x="372" y="676"/>
      <point x="342" y="650"/>
      <point x="310" y="621"/>
      <point x="282" y="595"/>
      <point x="278" y="587" type="qcurve"/>
      <point x="262" y="585"/>
      <point x="221" y="584"/>
      <point x="182" y="586"/>
      <point x="151" y="589"/>
      <point x="144" y="591" type="qcurve"/>
      <point x="161" y="607"/>
      <point x="204" y="652"/>
      <point x="249" y="699"/>
      <point x="293" y="740"/>
      <point x="311" y="754" type="qcurve"/>
    </contour>
    <contour>
      <point x="45" y="456" type="qcurve"/>
      <point x="52" y="471"/>
      <point x="83" y="493"/>
      <point x="124" y="508"/>
      <point x="171" y="514"/>
      <point x="195" y="514" type="qcurve"/>
      <point x="215" y="512"/>
      <point x="252" y="515"/>
      <point x="273" y="513" type="qcurve"/>
      <point x="305" y="511"/>
      <point x="363" y="490"/>
      <point x="384" y="470" type="qcurve"/>
      <point x="398" y="461"/>
      <point x="414" y="421"/>
      <point x="422" y="368"/>
      <point x="424" y="305"/>
      <point x="425" y="272" type="qcurve"/>
      <point x="424" y="243"/>
      <point x="421" y="169"/>
      <point x="414" y="101"/>
      <point x="403" y="47"/>
      <point x="393" y="37" type="qcurve"/>
      <point x="376" y="13"/>
      <point x="321" y="-7"/>
      <point x="257" y="-12"/>
      <point x="189" y="-7"/>
      <point x="161" y="-7" type="qcurve"/>
      <point x="110" y="2"/>
      <point x="75" y="37" type="qcurve"/>
      <point x="48" y="61"/>
      <point x="28" y="133"/>
      <point x="24" y="212"/>
      <point x="27" y="292"/>
      <point x="24" y="325" type="qcurve"/>
      <point x="24" y="343"/>
      <point x="26" y="378"/>
      <point x="29" y="397" type="qcurve"/>
      <point x="30" y="408"/>
      <point x="42" y="445"/>
    </contour>
    <contour>
      <point x="170" y="338" type="qcurve"/>
      <point x="164" y="334"/>
      <point x="161" y="318" type="qcurve"/>
      <point x="157" y="286"/>
      <point x="157" y="223"/>
      <point x="155" y="188" type="qcurve"/>
      <point x="154" y="165"/>
      <point x="180" y="140"/>
      <point x="217" y="131"/>
      <point x="257" y="136"/>
      <point x="270" y="143" type="qcurve"/>
      <point x="287" y="151"/>
      <point x="293" y="176" type="qcurve"/>
      <point x="297" y="208"/>
      <point x="302" y="273"/>
      <point x="296" y="302" type="qcurve"/>
      <point x="291" y="337"/>
      <point x="243" y="369"/>
      <point x="204" y="360" type="qcurve"/>
      <point x="183" y="354"/>
    </contour>
  </outline>
</glyph>
<glyph name="otilde" format="1">
  <advance width="448"/>
  <unicode hex="00F5"/>
  <outline>
    <contour>
      <point x="140" y="589" type="line"/>
      <point x="130" y="591"/>
      <point x="92" y="593"/>
      <point x="72" y="593" type="qcurve"/>
      <point x="49" y="593"/>
      <point x="23" y="592" type="qcurve"/>
      <point x="26" y="603"/>
      <point x="39" y="638"/>
      <point x="55" y="676"/>
      <point x="73" y="710"/>
      <point x="83" y="721" type="qcurve"/>
      <point x="96" y="734"/>
      <point x="130" y="752"/>
      <point x="166" y="758"/>
      <point x="202" y="751"/>
      <point x="218" y="740" type="qcurve"/>
      <point x="234" y="730"/>
      <point x="252" y="700"/>
      <point x="265" y="692" type="qcurve"/>
      <point x="280" y="679"/>
      <point x="305" y="686"/>
      <point x="326" y="707"/>
      <point x="339" y="736"/>
      <point x="342" y="745" type="qcurve"/>
      <point x="362" y="747"/>
      <point x="403" y="747"/>
      <point x="424" y="748" type="qcurve"/>
      <point x="425" y="747" type="line"/>
      <point x="425" y="746"/>
      <point x="426" y="746" type="qcurve"/>
      <point x="426" y="745" type="line"/>
      <point x="429" y="722"/>
      <point x="420" y="669"/>
      <point x="396" y="623"/>
      <point x="357" y="590"/>
      <point x="331" y="586" type="qcurve"/>
      <point x="300" y="581"/>
      <point x="242" y="604"/>
      <point x="229" y="635" type="qcurve"/>
      <point x="223" y="645"/>
      <point x="207" y="657"/>
      <point x="194" y="658" type="qcurve"/>
      <point x="183" y="658"/>
      <point x="151" y="649"/>
      <point x="143" y="636" type="qcurve"/>
      <point x="140" y="630" type="line"/>
      <point x="136" y="619"/>
      <point x="136" y="602"/>
      <point x="140" y="590" type="qcurve"/>
    </contour>
    <contour>
      <point x="45" y="456" type="qcurve"/>
      <point x="52" y="471"/>
      <point x="83" y="493"/>
      <point x="124" y="508"/>
      <point x="171" y="514"/>
      <point x="195" y="514" type="qcurve"/>
      <point x="215" y="512"/>
      <point x="252" y="515"/>
      <point x="273" y="513" type="qcurve"/>
      <point x="305" y="511"/>
      <point x="363" y="490"/>
      <point x="384" y="470" type="qcurve"/>
      <point x="398" y="461"/>
      <point x="414" y="421"/>
      <point x="422" y="368"/>
      <point x="424" y="305"/>
      <point x="425" y="272" type="qcurve"/>
      <point x="424" y="243"/>
      <point x="421" y="169"/>
      <point x="414" y="101"/>
      <point x="403" y="47"/>
      <point x="393" y="37" type="qcurve"/>
      <point x="376" y="13"/>
      <point x="321" y="-7"/>
      <point x="257" y="-12"/>
      <point x="189" y="-7"/>
      <point x="161" y="-7" type="qcurve"/>
      <point x="110" y="2"/>
      <point x="75" y="37" type="qcurve"/>
      <point x="48" y="61"/>
      <point x="28" y="133"/>
      <point x="24" y="212"/>
      <point x="27" y="292"/>
      <point x="24" y="325" type="qcurve"/>
      <point x="24" y="343"/>
      <point x="26" y="378"/>
      <point x="29" y="397" type="qcurve"/>
      <point x="30" y="408"/>
      <point x="42" y="445"/>
    </contour>
    <contour>
      <point x="170" y="338" type="qcurve"/>
      <point x="164" y="334"/>
      <point x="161" y="318" type="qcurve"/>
      <point x="157" y="286"/>
      <point x="157" y="223"/>
      <point x="155" y="188" type="qcurve"/>
      <point x="154" y="165"/>
      <point x="180" y="140"/>
      <point x="217" y="131"/>
      <point x="257" y="136"/>
      <point x="270" y="143" type="qcurve"/>
      <point x="287" y="151"/>
      <point x="293" y="176" type="qcurve"/>
      <point x="297" y="208"/>
      <point x="302" y="273"/>
      <point x="296" y="302" type="qcurve"/>
      <point x="291" y="337"/>
      <point x="243" y="369"/>
      <point x="204" y="360" type="qcurve"/>
      <point x="183" y="354"/>
    </contour>
  </outline>
</glyph>
<glyph name="divide" format="1">
  <advance width="466"/>
  <unicode hex="00F7"/>
  <outline>
    <contour>
      <point x="22" y="171" type="qcurve"/>
      <point x="22" y="180"/>
      <point x="22" y="216"/>
      <point x="23" y="254"/>
      <point x="24" y="285"/>
      <point x="24" y="287" type="qcurve"/>
      <point x="25" y="287"/>
      <point x="83" y="287"/>
      <point x="170" y="287"/>
      <point x="274" y="287"/>
      <point x="367" y="287"/>
      <point x="435" y="287"/>
      <point x="443" y="287" type="qcurve"/>
      <point x="444" y="257"/>
      <point x="440" y="195"/>
      <point x="445" y="166" type="qcurve"/>
      <point x="444" y="166" type="line"/>
      <point x="440" y="166"/>
      <point x="377" y="166"/>
      <point x="285" y="167"/>
      <point x="181" y="168"/>
      <point x="89" y="170"/>
      <point x="26" y="171"/>
    </contour>
    <contour>
      <point x="171" y="1" type="line"/>
      <point x="168" y="1" type="line"/>
      <point x="166" y="12"/>
      <point x="165" y="46"/>
      <point x="166" y="80"/>
      <point x="167" y="110"/>
      <point x="167" y="117" type="qcurve"/>
      <point x="177" y="121"/>
      <point x="214" y="125"/>
      <point x="252" y="125"/>
      <point x="285" y="122"/>
      <point x="292" y="119" type="qcurve"/>
      <point x="292" y="118"/>
      <point x="290" y="87"/>
      <point x="288" y="47"/>
      <point x="286" y="9"/>
      <point x="286" y="2" type="qcurve"/>
      <point x="286" y="1" type="line"/>
      <point x="286" y="0" type="line"/>
      <point x="284" y="0" type="line"/>
    </contour>
    <contour>
      <point x="171" y="337" type="line"/>
      <point x="168" y="337" type="line"/>
      <point x="166" y="348"/>
      <point x="165" y="382"/>
      <point x="166" y="416"/>
      <point x="167" y="446"/>
      <point x="167" y="453" type="qcurve"/>
      <point x="177" y="457"/>
      <point x="214" y="461"/>
      <point x="252" y="461"/>
      <point x="285" y="458"/>
      <point x="292" y="455" type="qcurve"/>
      <point x="292" y="454"/>
      <point x="290" y="423"/>
      <point x="288" y="383"/>
      <point x="286" y="345"/>
      <point x="286" y="338" type="qcurve"/>
      <point x="286" y="337" type="line"/>
      <point x="286" y="336" type="line"/>
      <point x="284" y="336" type="line"/>
    </contour>
  </outline>
</glyph>
<glyph name="udieresis" format="1">
  <advance width="449"/>
  <unicode hex="00FC"/>
  <outline>
    <contour>
      <point x="193" y="757" type="line"/>
      <point x="193" y="751"/>
      <point x="194" y="720"/>
      <point x="195" y="683"/>
      <point x="196" y="644"/>
      <point x="196" y="629" type="qcurve"/>
      <point x="192" y="623"/>
      <point x="163" y="619"/>
      <point x="124" y="620"/>
      <point x="80" y="623"/>
      <point x="61" y="622" type="qcurve"/>
      <point x="61" y="651"/>
      <point x="56" y="714"/>
      <point x="57" y="760" type="qcurve"/>
    </contour>
    <contour>
      <point x="377" y="757" type="line"/>
      <point x="377" y="751"/>
      <point x="378" y="720"/>
      <point x="379" y="683"/>
      <point x="380" y="644"/>
      <point x="380" y="629" type="qcurve"/>
      <point x="376" y="623"/>
      <point x="347" y="619"/>
      <point x="308" y="620"/>
      <point x="264" y="623"/>
      <point x="245" y="622" type="qcurve"/>
      <point x="245" y="651"/>
      <point x="240" y="714"/>
      <point x="241" y="760" type="qcurve"/>
    </contour>
    <contour>
      <point x="281" y="54" type="qcurve"/>
      <point x="276" y="51"/>
      <point x="261" y="43"/>
      <point x="256" y="39" type="qcurve"/>
      <point x="235" y="24"/>
      <point x="183" y="6"/>
      <point x="128" y="4"/>
      <point x="76" y="18"/>
      <point x="55" y="36" type="qcurve"/>
      <point x="44" y="45"/>
      <point x="34" y="102"/>
      <point x="31" y="182"/>
      <point x="32" y="277"/>
      <point x="34" y="374"/>
      <point x="36" y="464"/>
      <point x="34" y="498" type="qcurve"/>
      <point x="69" y="503"/>
      <point x="124" y="502"/>
      <point x="159" y="502" type="qcurve"/>
      <point x="161" y="479"/>
      <point x="161" y="421"/>
      <point x="160" y="359"/>
      <point x="161" y="297"/>
      <point x="163" y="270" type="qcurve"/>
      <point x="164" y="258"/>
      <point x="166" y="229"/>
      <point x="171" y="201"/>
      <point x="180" y="179"/>
      <point x="188" y="173" type="qcurve"/>
      <point x="189" y="172"/>
      <point x="191" y="172"/>
      <point x="192" y="171" type="qcurve"/>
      <point x="200" y="167"/>
      <point x="231" y="162"/>
      <point x="261" y="171"/>
      <point x="285" y="198"/>
      <point x="287" y="225" type="qcurve"/>
      <point x="289" y="259"/>
      <point x="287" y="327"/>
      <point x="284" y="394"/>
      <point x="283" y="460"/>
      <point x="288" y="493" type="qcurve"/>
      <point x="288" y="497" type="line"/>
      <point x="305" y="502"/>
      <point x="330" y="504"/>
      <point x="356" y="503"/>
      <point x="388" y="501"/>
      <point x="412" y="503" type="qcurve"/>
      <point x="412" y="380"/>
      <point x="417" y="134"/>
      <point x="413" y="2" type="qcurve"/>
      <point x="401" y="3"/>
      <point x="385" y="4"/>
      <point x="371" y="4"/>
      <point x="355" y="3"/>
      <point x="343" y="2" type="qcurve"/>
      <point x="339" y="2"/>
      <point x="319" y="-1"/>
      <point x="299" y="-3"/>
      <point x="283" y="-2"/>
      <point x="283" y="1" type="qcurve"/>
      <point x="281" y="18"/>
      <point x="282" y="40"/>
    </contour>
  </outline>
</glyph>
<glyph name="ij" format="1">
  <advance width="500"/>
  <unicode hex="0133"/>
  <outline>
    <contour>
      <point x="175" y="503" type="line"/>
      <point x="175" y="500" type="line"/>
      <point x="174" y="379"/>
      <point x="167" y="127"/>
      <point x="174" y="6" type="qcurve"/>
      <point x="169" y="0"/>
      <point x="129" y="-1"/>
      <point x="82" y="0"/>
      <point x="40" y="2"/>
      <point x="33" y="0" type="qcurve"/>
      <point x="38" y="63"/>
      <point x="37" y="193"/>
      <point x="33" y="321"/>
      <point x="33" y="446"/>
      <point x="39" y="505" type="qcurve"/>
      <point x="39" y="506" type="line"/>
      <point x="43" y="507"/>
      <point x="62" y="505"/>
      <point x="67" y="505" type="qcurve"/>
      <point x="80" y="504"/>
      <point x="126" y="502"/>
      <point x="158" y="503" type="qcurve"/>
    </contour>
    <contour>
      <point x="171" y="718" type="line"/>
      <point x="171" y="712"/>
      <point x="172" y="681"/>
      <point x="173" y="644"/>
      <point x="174" y="605"/>
      <point x="174" y="590" type="qcurve"/>
      <point x="170" y="584"/>
      <point x="141" y="580"/>
      <point x="102" y="581"/>
      <point x="58" y="584"/>
      <point x="39" y="583" type="qcurve"/>
      <point x="39" y="612"/>
      <point x="34" y="675"/>
      <point x="35" y="721" type="qcurve"/>
    </contour>
    <contour>
      <point x="334" y="497" type="line"/>
      <point x="350" y="495"/>
      <point x="385" y="497"/>
      <point x="419" y="500"/>
      <point x="450" y="502"/>
      <point x="463" y="500" type="qcurve"/>
      <point x="466" y="476"/>
      <point x="466" y="409"/>
      <point x="465" y="342"/>
      <point x="463" y="281"/>
      <point x="465" y="263" type="qcurve"/>
      <point x="465" y="214"/>
      <point x="466" y="125"/>
      <point x="465" y="38"/>
      <point x="458" y="-51"/>
      <point x="450" y="-99" type="qcurve"/>
      <point x="437" y="-130"/>
      <point x="378" y="-166"/>
      <point x="302" y="-184"/>
      <point x="216" y="-189"/>
      <point x="176" y="-187" type="qcurve"/>
      <point x="171" y="-172"/>
      <point x="168" y="-136"/>
      <point x="170" y="-100"/>
      <point x="174" y="-66"/>
      <point x="176" y="-52" type="qcurve"/>
      <point x="193" y="-53"/>
      <point x="238" y="-51"/>
      <point x="282" y="-42"/>
      <point x="320" y="-26"/>
      <point x="330" y="-12" type="qcurve"/>
      <point x="331" y="30"/>
      <point x="331" y="128"/>
      <point x="331" y="228"/>
      <point x="332" y="324"/>
      <point x="334" y="363" type="qcurve"/>
    </contour>
    <contour>
      <point x="461" y="718" type="line"/>
      <point x="461" y="712"/>
      <point x="462" y="681"/>
      <point x="463" y="644"/>
      <point x="464" y="605"/>
      <point x="464" y="590" type="qcurve"/>
      <point x="460" y="584"/>
      <point x="432" y="580"/>
      <point x="395" y="581"/>
      <point x="351" y="584"/>
      <point x="332" y="583" type="qcurve"/>
      <point x="332" y="612"/>
      <point x="327" y="675"/>
      <point x="328" y="721" type="qcurve"/>
    </contour>
  </outline>
</glyph>
<glyph name="scaron" format="1">
  <advance width="450"/>
  <unicode hex="0161"/>
  <outline>
    <contour>
      <point x="57" y="713" type="line"/>
      <point x="58" y="712"/>
      <point x="76" y="715"/>
      <point x="107" y="719"/>
      <point x="148" y="721"/>
      <point x="172" y="718" type="qcurve"/>
      <point x="175" y="718"/>
      <point x="189" y="705"/>
      <point x="204" y="688"/>
      <point x="218" y="672"/>
      <point x="223" y="669" type="qcurve"/>
      <point x="227" y="671"/>
      <point x="241" y="686"/>
      <point x="257" y="703"/>
      <point x="271" y="717"/>
      <point x="275" y="718" type="qcurve"/>
      <point x="284" y="719"/>
      <point x="295" y="719"/>
      <point x="314" y="718"/>
      <point x="349" y="716"/>
      <point x="382" y="714" type="qcurve"/>
      <point x="348" y="668"/>
      <point x="264" y="592"/>
      <point x="220" y="551" type="qcurve"/>
    </contour>
    <component base="s" xOffset="-37"/>
  </outline>
</glyph>
<glyph name="Zcaron" format="1">
  <advance width="474"/>
  <unicode hex="017D"/>
  <outline>
    <contour>
      <point x="408" y="910" type="line"/>
      <point x="407" y="909"/>
      <point x="389" y="912"/>
      <point x="358" y="916"/>
      <point x="317" y="918"/>
      <point x="293" y="915" type="qcurve"/>
      <point x="290" y="915"/>
      <point x="276" y="902"/>
      <point x="261" y="885"/>
      <point x="247" y="869"/>
      <point x="242" y="866" type="qcurve"/>
      <point x="238" y="868"/>
      <point x="224" y="883"/>
      <point x="208" y="900"/>
      <point x="194" y="914"/>
      <point x="190" y="915" type="qcurve"/>
      <point x="181" y="916"/>
      <point x="170" y="916"/>
      <point x="151" y="915"/>
      <point x="116" y="913"/>
      <point x="83" y="911" type="qcurve"/>
      <point x="117" y="865"/>
      <point x="201" y="789"/>
      <point x="245" y="748" type="qcurve"/>
    </contour>
    <component base="Z" xOffset="-15"/>
  </outline>
</glyph>
<glyph name="tilde" format="1">
  <advance width="449"/>
  <unicode hex="02DC"/>
  <outline>
    <contour>
      <point x="134" y="498" type="qcurve"/>
      <point x="124" y="500"/>
      <point x="86" y="501"/>
      <point x="66" y="501" type="qcurve"/>
      <point x="43" y="501"/>
      <point x="17" y="500" type="qcurve"/>
      <point x="20" y="511"/>
      <point x="33" y="546"/>
      <point x="49" y="584"/>
      <point x="68" y="618"/>
      <point x="77" y="629" type="qcurve"/>
      <point x="90" y="642"/>
      <point x="124" y="660"/>
      <point x="161" y="666"/>
      <point x="198" y="659"/>
      <point x="213" y="648" type="qcurve"/>
      <point x="229" y="637"/>
      <point x="248" y="610"/>
      <point x="262" y="601" type="qcurve"/>
      <point x="275" y="588"/>
      <point x="301" y="594"/>
      <point x="321" y="615"/>
      <point x="335" y="643"/>
      <point x="338" y="652" type="qcurve"/>
      <point x="359" y="654"/>
      <point x="398" y="654"/>
      <point x="420" y="655" type="qcurve"/>
      <point x="422" y="655"/>
      <point x="422" y="653" type="qcurve"/>
      <point x="426" y="638"/>
      <point x="422" y="604"/>
      <point x="411" y="572"/>
      <point x="394" y="541"/>
      <point x="384" y="529" type="qcurve"/>
      <point x="376" y="518"/>
      <point x="359" y="504"/>
      <point x="346" y="499" type="qcurve"/>
      <point x="328" y="493"/>
      <point x="292" y="492"/>
      <point x="259" y="503"/>
      <point x="232" y="525"/>
      <point x="224" y="542" type="qcurve"/>
      <point x="216" y="552"/>
      <point x="199" y="566"/>
      <point x="183" y="565" type="qcurve"/>
      <point x="170" y="565"/>
      <point x="151" y="555" type="qcurve"/>
      <point x="139" y="547"/>
      <point x="134" y="536" type="qcurve"/>
      <point x="130" y="528"/>
      <point x="131" y="511"/>
    </contour>
  </outline>
</glyph>
<glyph name="quoteleft" format="1">
  <advance width="207"/>
  <unicode hex="2018"/>
  <outline>
    <contour>
      <point x="126" y="464" type="line"/>
      <point x="122" y="464"/>
      <point x="88" y="460"/>
      <point x="50" y="457"/>
      <point x="19" y="457"/>
      <point x="18" y="462" type="qcurve"/>
      <point x="21" y="473"/>
      <point x="32" y="515"/>
      <point x="45" y="567"/>
      <point x="59" y="622"/>
      <point x="72" y="669"/>
      <point x="81" y="703"/>
      <point x="82" y="708" type="qcurve"/>
      <point x="82" y="708"/>
      <point x="109" y="708"/>
      <point x="147" y="709"/>
      <point x="185" y="709"/>
      <point x="195" y="709" type="qcurve"/>
      <point x="195" y="708" type="line"/>
      <point x="183" y="663"/>
      <point x="168" y="602"/>
      <point x="154" y="551"/>
      <point x="140" y="501"/>
      <point x="128" y="466" type="qcurve"/>
      <point x="128" y="466"/>
      <point x="127" y="464" type="qcurve"/>
    </contour>
  </outline>
</glyph>
<glyph name="quotesinglbase" format="1">
  <advance width="196"/>
  <unicode hex="201A"/>
  <outline>
    <contour>
      <point x="104" y="-92" type="line"/>
      <point x="100" y="-92"/>
      <point x="66" y="-96"/>
      <point x="28" y="-99"/>
      <point x="-3" y="-99"/>
      <point x="-4" y="-94" type="qcurve"/>
      <point x="-1" y="-83"/>
      <point x="10" y="-41"/>
      <point x="23" y="11"/>
      <point x="37" y="66"/>
      <point x="50" y="113"/>
      <point x="59" y="147"/>
      <point x="60" y="152" type="qcurve"/>
      <point x="60" y="152"/>
      <point x="87" y="152"/>
      <point x="125" y="153"/>
      <point x="163" y="153"/>
      <point x="173" y="153" type="qcurve"/>
      <point x="173" y="152" type="line"/>
      <point x="161" y="107"/>
      <point x="146" y="46"/>
      <point x="132" y="-5"/>
      <point x="118" y="-55"/>
      <point x="106" y="-90" type="qcurve"/>
      <point x="106" y="-90"/>
      <point x="105" y="-92" type="qcurve"/>
    </contour>
  </outline>
</glyph>
<glyph name="quotedblleft" format="1">
  <advance width="367"/>
  <unicode hex="201C"/>
  <outline>
    <contour>
      <point x="86" y="702" type="line"/>
      <point x="90" y="702"/>
      <point x="124" y="706"/>
      <point x="162" y="709"/>
      <point x="193" y="708"/>
      <point x="194" y="704" type="qcurve"/>
      <point x="190" y="687"/>
      <point x="170" y="612"/>
      <point x="149" y="531"/>
      <point x="132" y="465"/>
      <point x="130" y="458" type="qcurve"/>
      <point x="130" y="458"/>
      <point x="103" y="458"/>
      <point x="65" y="457"/>
      <point x="27" y="457"/>
      <point x="17" y="457" type="qcurve"/>
      <point x="17" y="458" type="line"/>
      <point x="29" y="503"/>
      <point x="44" y="564"/>
      <point x="58" y="615"/>
      <point x="72" y="665"/>
      <point x="84" y="700" type="qcurve"/>
      <point x="84" y="700"/>
      <point x="85" y="702" type="qcurve"/>
    </contour>
    <contour>
      <point x="246" y="702" type="line"/>
      <point x="250" y="702"/>
      <point x="284" y="706"/>
      <point x="322" y="709"/>
      <point x="353" y="708"/>
      <point x="354" y="704" type="qcurve"/>
      <point x="350" y="687"/>
      <point x="330" y="612"/>
      <point x="309" y="531"/>
      <point x="292" y="465"/>
      <point x="290" y="458" type="qcurve"/>
      <point x="290" y="458"/>
      <point x="263" y="458"/>
      <point x="225" y="457"/>
      <point x="187" y="457"/>
      <point x="177" y="457" type="qcurve"/>
      <point x="177" y="458" type="line"/>
      <point x="189" y="503"/>
      <point x="204" y="564"/>
      <point x="218" y="615"/>
      <point x="232" y="665"/>
      <point x="244" y="700" type="qcurve"/>
      <point x="244" y="700"/>
      <point x="245" y="702" type="qcurve"/>
    </contour>
  </outline>
</glyph>
<glyph name="dagger" format="1">
  <advance width="271"/>
  <unicode hex="2020"/>
  <outline>
    <contour>
      <point x="172" y="242" type="line"/>
      <point x="159" y="241"/>
      <point x="120" y="241"/>
      <point x="106" y="239" type="qcurve"/>
      <point x="103" y="261"/>
      <point x="102" y="328"/>
      <point x="103" y="401"/>
      <point x="103" y="473"/>
      <point x="102" y="500" type="qcurve"/>
      <point x="94" y="501"/>
      <point x="73" y="500"/>
      <point x="51" y="499"/>
      <point x="29" y="500"/>
      <point x="20" y="505" type="qcurve"/>
      <point x="18" y="519"/>
      <point x="20" y="567"/>
      <point x="19" y="581" type="qcurve"/>
      <point x="39" y="584"/>
      <point x="85" y="581"/>
      <point x="102" y="586" type="qcurve"/>
      <point x="102" y="613"/>
      <point x="104" y="668"/>
      <point x="106" y="692" type="qcurve"/>
      <point x="118" y="696"/>
      <point x="155" y="699"/>
      <point x="171" y="695" type="qcurve"/>
      <point x="168" y="667"/>
      <point x="172" y="617"/>
      <point x="170" y="586" type="qcurve"/>
      <point x="170" y="584" type="line"/>
      <point x="191" y="585"/>
      <point x="231" y="587"/>
      <point x="251" y="584" type="qcurve"/>
      <point x="250" y="567"/>
      <point x="250" y="524"/>
      <point x="252" y="507" type="qcurve"/>
      <point x="252" y="506" type="line"/>
      <point x="238" y="507"/>
      <point x="190" y="503"/>
      <point x="169" y="504" type="qcurve"/>
      <point x="168" y="504" type="line"/>
      <point x="170" y="438"/>
      <point x="169" y="298"/>
      <point x="172" y="243" type="qcurve"/>
    </contour>
  </outline>
</glyph>
<glyph name="daggerdbl" format="1">
  <advance width="286"/>
  <unicode hex="2021"/>
  <outline>
    <contour>
      <point x="27" y="426" type="qcurve"/>
      <point x="49" y="429"/>
      <point x="90" y="428"/>
      <point x="109" y="429" type="qcurve"/>
      <point x="110" y="449"/>
      <point x="111" y="480"/>
      <point x="109" y="502" type="qcurve"/>
      <point x="109" y="503" type="line"/>
      <point x="94" y="505"/>
      <point x="48" y="500"/>
      <point x="30" y="506" type="qcurve"/>
      <point x="27" y="512"/>
      <point x="26" y="533"/>
      <point x="27" y="555"/>
      <point x="28" y="576"/>
      <point x="27" y="583" type="qcurve"/>
      <point x="48" y="586"/>
      <point x="91" y="585"/>
      <point x="109" y="587" type="qcurve"/>
      <point x="108" y="614"/>
      <point x="111" y="666"/>
      <point x="112" y="692" type="qcurve"/>
      <point x="112" y="693" type="line"/>
      <point x="124" y="697"/>
      <point x="161" y="700"/>
      <point x="177" y="696" type="qcurve"/>
      <point x="176" y="668"/>
      <point x="179" y="617"/>
      <point x="178" y="587" type="qcurve"/>
      <point x="199" y="588"/>
      <point x="239" y="590"/>
      <point x="258" y="587" type="qcurve"/>
      <point x="258" y="570"/>
      <point x="258" y="525"/>
      <point x="259" y="509" type="qcurve"/>
      <point x="247" y="511"/>
      <point x="199" y="504"/>
      <point x="178" y="506" type="qcurve"/>
      <point x="177" y="506" type="line"/>
      <point x="175" y="489"/>
      <point x="177" y="446"/>
      <point x="179" y="430" type="qcurve"/>
      <point x="196" y="432"/>
      <point x="244" y="433"/>
      <point x="258" y="431" type="qcurve"/>
      <point x="259" y="414"/>
      <point x="258" y="370"/>
      <point x="260" y="354" type="qcurve"/>
      <point x="260" y="353" type="line"/>
      <point x="246" y="352"/>
      <point x="202" y="349"/>
      <point x="179" y="349" type="qcurve"/>
      <point x="177" y="349" type="line"/>
      <point x="179" y="330"/>
      <point x="177" y="275"/>
      <point x="179" y="245" type="qcurve"/>
      <point x="162" y="242"/>
      <point x="128" y="242"/>
      <point x="111" y="242" type="qcurve"/>
      <point x="110" y="242" type="line"/>
      <point x="110" y="248"/>
      <point x="110" y="274"/>
      <point x="109" y="304"/>
      <point x="108" y="334"/>
      <point x="109" y="345" type="qcurve"/>
      <point x="101" y="347"/>
      <point x="81" y="347"/>
      <point x="59" y="346"/>
      <point x="38" y="347"/>
      <point x="29" y="350" type="qcurve"/>
      <point x="27" y="356"/>
      <point x="27" y="376"/>
      <point x="27" y="398"/>
      <point x="28" y="419"/>
    </contour>
  </outline>
</glyph>
<glyph name="bullet" format="1">
  <advance width="289"/>
  <unicode hex="2022"/>
  <outline>
    <contour>
      <point x="62" y="201" type="qcurve"/>
      <point x="57" y="209"/>
      <point x="55" y="219" type="qcurve"/>
      <point x="50" y="249"/>
      <point x="52" y="279" type="qcurve"/>
      <point x="52" y="292"/>
      <point x="54" y="319"/>
      <point x="56" y="331" type="qcurve"/>
      <point x="57" y="333"/>
      <point x="57" y="337"/>
      <point x="59" y="339" type="qcurve"/>
      <point x="64" y="350"/>
      <point x="71" y="355" type="qcurve"/>
      <point x="78" y="360"/>
      <point x="85" y="363" type="qcurve"/>
      <point x="90" y="365"/>
      <point x="100" y="367" type="qcurve"/>
      <point x="102" y="367"/>
      <point x="107" y="368"/>
      <point x="109" y="368" type="qcurve"/>
      <point x="120" y="369"/>
      <point x="144" y="368"/>
      <point x="156" y="368" type="qcurve"/>
      <point x="165" y="368"/>
      <point x="183" y="368"/>
      <point x="191" y="365" type="qcurve"/>
      <point x="208" y="360"/>
      <point x="236" y="336"/>
      <point x="238" y="319" type="qcurve"/>
      <point x="241" y="297"/>
      <point x="237" y="253"/>
      <point x="235" y="231" type="qcurve"/>
      <point x="232" y="217"/>
      <point x="218" y="193"/>
      <point x="204" y="187" type="qcurve"/>
      <point x="196" y="183"/>
      <point x="177" y="181"/>
      <point x="168" y="180" type="qcurve"/>
      <point x="154" y="179"/>
      <point x="126" y="179"/>
      <point x="111" y="177" type="qcurve"/>
      <point x="110" y="177" type="line"/>
      <point x="96" y="175"/>
      <point x="70" y="190"/>
    </contour>
  </outline>
</glyph>
<glyph name="ellipsis" format="1">
  <advance width="520"/>
  <unicode hex="2026"/>
  <outline>
    <contour>
      <point x="37" y="1" type="line"/>
      <point x="34" y="1" type="line"/>
      <point x="32" y="12"/>
      <point x="31" y="46"/>
      <point x="32" y="80"/>
      <point x="33" y="110"/>
      <point x="33" y="117" type="qcurve"/>
      <point x="43" y="121"/>
      <point x="80" y="125"/>
      <point x="118" y="125"/>
      <point x="151" y="122"/>
      <point x="158" y="119" type="qcurve"/>
      <point x="158" y="118"/>
      <point x="156" y="87"/>
      <point x="154" y="47"/>
      <point x="152" y="9"/>
      <point x="152" y="2" type="qcurve"/>
      <point x="152" y="1" type="line"/>
      <point x="152" y="0" type="line"/>
      <point x="150" y="0" type="line"/>
    </contour>
    <contour>
      <point x="202" y="1" type="line"/>
      <point x="199" y="1" type="line"/>
      <point x="197" y="13"/>
      <point x="196" y="46"/>
      <point x="197" y="80"/>
      <point x="198" y="109"/>
      <point x="198" y="117" type="qcurve"/>
      <point x="208" y="121"/>
      <point x="245" y="125"/>
      <point x="283" y="125"/>
      <point x="316" y="122"/>
      <point x="323" y="119" type="qcurve"/>
      <point x="323" y="118"/>
      <point x="321" y="87"/>
      <point x="319" y="47"/>
      <point x="317" y="9"/>
      <point x="317" y="2" type="qcurve"/>
      <point x="317" y="1" type="line"/>
      <point x="317" y="0" type="line"/>
      <point x="315" y="0" type="line"/>
    </contour>
    <contour>
      <point x="368" y="1" type="line"/>
      <point x="365" y="1" type="line"/>
      <point x="363" y="12"/>
      <point x="362" y="46"/>
      <point x="363" y="80"/>
      <point x="364" y="110"/>
      <point x="364" y="117" type="qcurve"/>
      <point x="374" y="121"/>
      <point x="411" y="125"/>
      <point x="449" y="125"/>
      <point x="482" y="122"/>
      <point x="489" y="119" type="qcurve"/>
      <point x="489" y="118"/>
      <point x="487" y="87"/>
      <point x="485" y="47"/>
      <point x="483" y="9"/>
      <point x="483" y="2" type="qcurve"/>
      <point x="483" y="1" type="line"/>
      <point x="483" y="0" type="line"/>
      <point x="481" y="0" type="line"/>
    </contour>
  </outline>
</glyph>
<glyph name="perthousand" format="1">
  <advance width="853"/>
  <unicode hex="2030"/>
  <outline>
    <contour>
      <point x="240" y="7" type="line"/>
      <point x="238" y="3"/>
      <point x="237" y="2" type="qcurve"/>
      <point x="231" y="1"/>
      <point x="216" y="0"/>
      <point x="189" y="0"/>
      <point x="146" y="0"/>
      <point x="112" y="-1" type="qcurve"/>
      <point x="111" y="-1" type="line"/>
      <point x="107" y="-1"/>
      <point x="113" y="25"/>
      <point x="124" y="57"/>
      <point x="136" y="86"/>
      <point x="137" y="90" type="qcurve"/>
      <point x="144" y="112"/>
      <point x="159" y="156"/>
      <point x="169" y="178" type="qcurve"/>
      <point x="171" y="185"/>
      <point x="178" y="207"/>
      <point x="197" y="261"/>
      <point x="233" y="357"/>
      <point x="263" y="438" type="qcurve"/>
      <point x="274" y="467"/>
      <point x="291" y="525"/>
      <point x="301" y="554" type="qcurve"/>
      <point x="302" y="556"/>
      <point x="312" y="584"/>
      <point x="327" y="627"/>
      <point x="343" y="681"/>
      <point x="350" y="709" type="qcurve"/>
      <point x="364" y="706"/>
      <point x="400" y="707"/>
      <point x="436" y="709"/>
      <point x="470" y="707"/>
      <point x="482" y="701" type="qcurve"/>
      <point x="480" y="696"/>
      <point x="478" y="689"/>
      <point x="476" y="683" type="qcurve"/>
      <point x="472" y="669"/>
      <point x="452" y="604"/>
      <point x="432" y="538" type="qcurve"/>
      <point x="422" y="510"/>
      <point x="402" y="455"/>
      <point x="393" y="428" type="qcurve"/>
      <point x="374" y="373"/>
      <point x="339" y="265"/>
      <point x="319" y="211" type="qcurve"/>
      <point x="314" y="196"/>
      <point x="303" y="166"/>
      <point x="297" y="151" type="qcurve"/>
    </contour>
    <contour>
      <point x="19" y="513" type="line"/>
      <point x="21" y="538" type="line"/>
      <point x="25" y="566"/>
      <point x="33" y="623"/>
      <point x="53" y="645" type="qcurve"/>
      <point x="67" y="662"/>
      <point x="104" y="682"/>
      <point x="127" y="683" type="qcurve"/>
      <point x="152" y="684"/>
      <point x="191" y="667"/>
      <point x="219" y="637"/>
      <point x="236" y="599"/>
      <point x="240" y="579" type="qcurve"/>
      <point x="242" y="563"/>
      <point x="245" y="535"/>
      <point x="244" y="521" type="qcurve"/>
      <point x="245" y="492"/>
      <point x="234" y="428"/>
      <point x="206" y="375"/>
      <point x="159" y="340"/>
      <point x="125" y="342" type="qcurve"/>
      <point x="100" y="343"/>
      <point x="77" y="355" type="qcurve"/>
      <point x="54" y="370"/>
      <point x="33" y="404"/>
      <point x="28" y="428" type="qcurve"/>
      <point x="26" y="444"/>
      <point x="22" y="473"/>
      <point x="20" y="487" type="qcurve"/>
      <point x="20" y="488" type="line"/>
    </contour>
    <contour>
      <point x="103" y="479" type="line"/>
      <point x="104" y="469"/>
      <point x="104" y="451"/>
      <point x="105" y="441" type="qcurve"/>
      <point x="105" y="429"/>
      <point x="126" y="418"/>
      <point x="137" y="422" type="qcurve"/>
      <point x="152" y="427"/>
      <point x="159" y="450"/>
      <point x="161" y="462" type="qcurve"/>
      <point x="161" y="465"/>
      <point x="162" y="470"/>
      <point x="162" y="473" type="qcurve"/>
      <point x="164" y="502"/>
      <point x="161" y="563"/>
      <point x="153" y="592" type="qcurve"/>
      <point x="152" y="594"/>
      <point x="151" y="595"/>
      <point x="150" y="597" type="qcurve"/>
      <point x="145" y="604"/>
      <point x="130" y="610"/>
      <point x="120" y="605" type="qcurve"/>
      <point x="111" y="602"/>
      <point x="104" y="592" type="qcurve"/>
      <point x="99" y="584"/>
      <point x="97" y="564"/>
      <point x="98" y="553" type="qcurve"/>
      <point x="98" y="552" type="line"/>
    </contour>
    <contour>
      <point x="362" y="174" type="line"/>
      <point x="364" y="199" type="line"/>
      <point x="368" y="227"/>
      <point x="376" y="284"/>
      <point x="396" y="306" type="qcurve"/>
      <point x="410" y="323"/>
      <point x="447" y="343"/>
      <point x="470" y="344" type="qcurve"/>
      <point x="495" y="345"/>
      <point x="534" y="328"/>
      <point x="562" y="298"/>
      <point x="579" y="260"/>
      <point x="583" y="240" type="qcurve"/>
      <point x="585" y="224"/>
      <point x="588" y="196"/>
      <point x="587" y="182" type="qcurve"/>
      <point x="588" y="153"/>
      <point x="577" y="89"/>
      <point x="549" y="36"/>
      <point x="502" y="1"/>
      <point x="468" y="3" type="qcurve"/>
      <point x="443" y="4"/>
      <point x="420" y="16" type="qcurve"/>
      <point x="397" y="31"/>
      <point x="376" y="65"/>
      <point x="371" y="89" type="qcurve"/>
      <point x="369" y="105"/>
      <point x="365" y="134"/>
      <point x="363" y="148" type="qcurve"/>
      <point x="363" y="149" type="line"/>
    </contour>
    <contour>
      <point x="446" y="140" type="line"/>
      <point x="447" y="130"/>
      <point x="447" y="112"/>
      <point x="448" y="102" type="qcurve"/>
      <point x="448" y="90"/>
      <point x="469" y="79"/>
      <point x="480" y="83" type="qcurve"/>
      <point x="495" y="88"/>
      <point x="502" y="111"/>
      <point x="504" y="123" type="qcurve"/>
      <point x="504" y="126"/>
      <point x="505" y="131"/>
      <point x="505" y="134" type="qcurve"/>
      <point x="507" y="163"/>
      <point x="504" y="224"/>
      <point x="496" y="253" type="qcurve"/>
      <point x="495" y="255"/>
      <point x="494" y="256"/>
      <point x="493" y="258" type="qcurve"/>
      <point x="488" y="265"/>
      <point x="473" y="271"/>
      <point x="463" y="266" type="qcurve"/>
      <point x="454" y="263"/>
      <point x="447" y="253" type="qcurve"/>
      <point x="442" y="245"/>
      <point x="440" y="225"/>
      <point x="441" y="214" type="qcurve"/>
      <point x="441" y="213" type="line"/>
    </contour>
    <contour>
      <point x="610" y="174" type="line"/>
      <point x="612" y="199" type="line"/>
      <point x="616" y="227"/>
      <point x="624" y="284"/>
      <point x="644" y="306" type="qcurve"/>
      <point x="658" y="323"/>
      <point x="695" y="343"/>
      <point x="718" y="344" type="qcurve"/>
      <point x="743" y="345"/>
      <point x="782" y="328"/>
      <point x="810" y="298"/>
      <point x="827" y="260"/>
      <point x="831" y="240" type="qcurve"/>
      <point x="833" y="224"/>
      <point x="836" y="196"/>
      <point x="835" y="182" type="qcurve"/>
      <point x="836" y="153"/>
      <point x="825" y="89"/>
      <point x="797" y="36"/>
      <point x="750" y="1"/>
      <point x="716" y="3" type="qcurve"/>
      <point x="691" y="4"/>
      <point x="668" y="16" type="qcurve"/>
      <point x="645" y="31"/>
      <point x="624" y="65"/>
      <point x="619" y="89" type="qcurve"/>
      <point x="617" y="105"/>
      <point x="613" y="134"/>
      <point x="611" y="148" type="qcurve"/>
      <point x="611" y="149" type="line"/>
    </contour>
    <contour>
      <point x="694" y="140" type="line"/>
      <point x="695" y="130"/>
      <point x="695" y="112"/>
      <point x="696" y="102" type="qcurve"/>
      <point x="696" y="90"/>
      <point x="717" y="79"/>
      <point x="728" y="83" type="qcurve"/>
      <point x="743" y="88"/>
      <point x="750" y="111"/>
      <point x="752" y="123" type="qcurve"/>
      <point x="752" y="126"/>
      <point x="753" y="131"/>
      <point x="753" y="134" type="qcurve"/>
      <point x="755" y="163"/>
      <point x="752" y="224"/>
      <point x="744" y="253" type="qcurve"/>
      <point x="743" y="255"/>
      <point x="742" y="256"/>
      <point x="741" y="258" type="qcurve"/>
      <point x="736" y="265"/>
      <point x="721" y="271"/>
      <point x="711" y="266" type="qcurve"/>
      <point x="702" y="263"/>
      <point x="695" y="253" type="qcurve"/>
      <point x="690" y="245"/>
      <point x="688" y="225"/>
      <point x="689" y="214" type="qcurve"/>
      <point x="689" y="213" type="line"/>
    </contour>
  </outline>
</glyph>
<glyph name="guilsinglright" format="1">
  <advance width="362"/>
  <unicode hex="203A"/>
  <outline>
    <contour>
      <point x="19" y="85" type="line"/>
      <point x="67" y="124"/>
      <point x="157" y="218"/>
      <point x="204" y="259" type="qcurve"/>
      <point x="184" y="283"/>
      <point x="136" y="335"/>
      <point x="87" y="386"/>
      <point x="43" y="432"/>
      <point x="28" y="451" type="qcurve"/>
      <point x="37" y="457"/>
      <point x="57" y="476"/>
      <point x="76" y="496"/>
      <point x="95" y="515"/>
      <point x="104" y="520" type="qcurve"/>
      <point x="118" y="506"/>
      <point x="146" y="477"/>
      <point x="161" y="461" type="qcurve"/>
      <point x="184" y="437"/>
      <point x="234" y="386"/>
      <point x="284" y="335"/>
      <point x="330" y="286"/>
      <point x="349" y="262" type="qcurve"/>
      <point x="320" y="224"/>
      <point x="257" y="160"/>
      <point x="193" y="100"/>
      <point x="128" y="43"/>
      <point x="98" y="12" type="qcurve"/>
      <point x="97" y="11" type="line"/>
      <point x="82" y="24"/>
      <point x="64" y="41"/>
      <point x="53" y="51"/>
      <point x="48" y="57"/>
      <point x="46" y="59" type="qcurve"/>
      <point x="30" y="75" type="line"/>
    </contour>
  </outline>
</glyph>
<glyph name="fiveeighths" format="1">
  <advance width="625"/>
  <unicode hex="215D"/>
  <outline>
    <contour>
      <point x="259" y="8" type="qcurve"/>
      <point x="258" y="7"/>
      <point x="257" y="5" type="qcurve"/>
      <point x="255" y="1" type="line"/>
      <point x="251" y="0"/>
      <point x="226" y="0"/>
      <point x="198" y="1"/>
      <point x="172" y="2"/>
      <point x="168" y="1" type="qcurve"/>
      <point x="198" y="92"/>
      <point x="262" y="270"/>
      <point x="326" y="445"/>
      <point x="384" y="620"/>
      <point x="408" y="709" type="qcurve"/>
      <point x="414" y="707"/>
      <point x="440" y="708"/>
      <point x="469" y="710"/>
      <point x="495" y="709"/>
      <point x="500" y="705" type="qcurve"/>
      <point x="500" y="704" type="line"/>
      <point x="440" y="527"/>
      <point x="323" y="173"/>
    </contour>
    <contour>
      <point x="606" y="250" type="line"/>
      <point x="606" y="229"/>
      <point x="588" y="191"/>
      <point x="573" y="177" type="qcurve"/>
      <point x="589" y="163"/>
      <point x="605" y="122"/>
      <point x="605" y="101" type="qcurve"/>
      <point x="605" y="60"/>
      <point x="560" y="2"/>
      <point x="512" y="2" type="qcurve"/>
      <point x="464" y="2"/>
      <point x="416" y="59"/>
      <point x="416" y="104" type="qcurve"/>
      <point x="416" y="124"/>
      <point x="428" y="165"/>
      <point x="442" y="180" type="qcurve"/>
      <point x="419" y="208"/>
      <point x="419" y="251" type="qcurve"/>
      <point x="419" y="269"/>
      <point x="429" y="306"/>
      <point x="447" y="335"/>
      <point x="474" y="354"/>
      <point x="492" y="355" type="qcurve"/>
      <point x="512" y="356"/>
      <point x="550" y="353"/>
      <point x="569" y="343" type="qcurve"/>
      <point x="573" y="341"/>
      <point x="586" y="328"/>
      <point x="598" y="308"/>
      <point x="606" y="281"/>
      <point x="606" y="264" type="qcurve"/>
    </contour>
    <contour>
      <point x="482" y="271" type="line"/>
      <point x="481" y="267"/>
      <point x="481" y="259" type="qcurve"/>
      <point x="481" y="244"/>
      <point x="495" y="221"/>
      <point x="513" y="220" type="qcurve"/>
      <point x="527" y="220"/>
      <point x="543" y="242"/>
      <point x="543" y="257" type="qcurve"/>
      <point x="543" y="271"/>
      <point x="527" y="295"/>
      <point x="510" y="295" type="qcurve"/>
      <point x="505" y="295"/>
      <point x="488" y="290"/>
      <point x="483" y="276" type="qcurve"/>
    </contour>
    <contour>
      <point x="480" y="125" type="qcurve"/>
      <point x="479" y="120"/>
      <point x="479" y="111" type="qcurve"/>
      <point x="479" y="95"/>
      <point x="495" y="68"/>
      <point x="510" y="68" type="qcurve"/>
      <point x="524" y="68"/>
      <point x="539" y="91"/>
      <point x="539" y="105" type="qcurve"/>
      <point x="539" y="120"/>
      <point x="522" y="144"/>
      <point x="505" y="144" type="qcurve"/>
      <point x="497" y="144"/>
      <point x="483" y="134"/>
    </contour>
    <contour>
      <point x="99" y="417" type="line"/>
      <point x="99" y="414" type="line"/>
      <point x="101" y="396"/>
      <point x="119" y="384"/>
      <point x="130" y="386" type="qcurve"/>
      <point x="147" y="389"/>
      <point x="164" y="416"/>
      <point x="164" y="448"/>
      <point x="149" y="476"/>
      <point x="134" y="480" type="qcurve"/>
      <point x="108" y="485"/>
      <point x="48" y="479"/>
      <point x="27" y="480" type="qcurve"/>
      <point x="26" y="480"/>
      <point x="26" y="481" type="qcurve"/>
      <point x="26" y="530"/>
      <point x="26" y="606"/>
      <point x="25" y="653" type="qcurve"/>
      <point x="26" y="653" type="line"/>
      <point x="27" y="653"/>
      <point x="58" y="654"/>
      <point x="103" y="655"/>
      <point x="155" y="656"/>
      <point x="201" y="656"/>
      <point x="234" y="656"/>
      <point x="237" y="655" type="qcurve"/>
      <point x="237" y="655"/>
      <point x="237" y="632"/>
      <point x="236" y="605"/>
      <point x="235" y="582"/>
      <point x="235" y="582" type="qcurve"/>
      <point x="230" y="581"/>
      <point x="190" y="580"/>
      <point x="144" y="579"/>
      <point x="104" y="579"/>
      <point x="100" y="579" type="qcurve"/>
      <point x="99" y="579" type="line"/>
      <point x="99" y="577" type="line"/>
      <point x="99" y="576"/>
      <point x="100" y="576"/>
      <point x="100" y="575" type="qcurve"/>
      <point x="101" y="571"/>
      <point x="101" y="562"/>
      <point x="103" y="559" type="qcurve"/>
      <point x="104" y="559" type="line"/>
      <point x="104" y="558" type="line"/>
      <point x="105" y="558" type="line"/>
      <point x="132" y="562"/>
      <point x="156" y="559" type="qcurve"/>
      <point x="186" y="554"/>
      <point x="223" y="517"/>
      <point x="241" y="465"/>
      <point x="244" y="403"/>
      <point x="240" y="374" type="qcurve"/>
      <point x="235" y="351"/>
      <point x="199" y="319"/>
      <point x="151" y="303"/>
      <point x="98" y="303"/>
      <point x="54" y="321"/>
      <point x="25" y="357"/>
      <point x="26" y="385" type="qcurve"/>
      <point x="26" y="392"/>
      <point x="27" y="405"/>
      <point x="28" y="413" type="qcurve"/>
      <point x="28" y="414" type="line"/>
    </contour>
  </outline>
</glyph>
<glyph name="seveneighths" format="1">
  <advance width="616"/>
  <unicode hex="215E"/>
  <outline>
    <contour>
      <point x="250" y="8" type="qcurve"/>
      <point x="249" y="7"/>
      <point x="248" y="5" type="qcurve"/>
      <point x="246" y="1" type="line"/>
      <point x="242" y="0"/>
      <point x="217" y="0"/>
      <point x="189" y="1"/>
      <point x="163" y="2"/>
      <point x="159" y="1" type="qcurve"/>
      <point x="189" y="92"/>
      <point x="253" y="270"/>
      <point x="317" y="445"/>
      <point x="375" y="620"/>
      <point x="399" y="709" type="qcurve"/>
      <point x="405" y="707"/>
      <point x="431" y="708"/>
      <point x="460" y="710"/>
      <point x="486" y="709"/>
      <point x="491" y="705" type="qcurve"/>
      <point x="491" y="704" type="line"/>
      <point x="431" y="527"/>
      <point x="314" y="173"/>
    </contour>
    <contour>
      <point x="597" y="250" type="line"/>
      <point x="597" y="229"/>
      <point x="579" y="191"/>
      <point x="564" y="177" type="qcurve"/>
      <point x="580" y="163"/>
      <point x="596" y="122"/>
      <point x="596" y="101" type="qcurve"/>
      <point x="596" y="60"/>
      <point x="551" y="2"/>
      <point x="503" y="2" type="qcurve"/>
      <point x="455" y="2"/>
      <point x="407" y="59"/>
      <point x="407" y="104" type="qcurve"/>
      <point x="407" y="124"/>
      <point x="419" y="165"/>
      <point x="433" y="180" type="qcurve"/>
      <point x="410" y="208"/>
      <point x="410" y="251" type="qcurve"/>
      <point x="410" y="269"/>
      <point x="420" y="306"/>
      <point x="438" y="335"/>
      <point x="465" y="354"/>
      <point x="483" y="355" type="qcurve"/>
      <point x="503" y="356"/>
      <point x="541" y="353"/>
      <point x="560" y="343" type="qcurve"/>
      <point x="564" y="341"/>
      <point x="577" y="328"/>
      <point x="589" y="308"/>
      <point x="597" y="281"/>
      <point x="597" y="264" type="qcurve"/>
    </contour>
    <contour>
      <point x="473" y="271" type="line"/>
      <point x="472" y="267"/>
      <point x="472" y="259" type="qcurve"/>
      <point x="472" y="244"/>
      <point x="486" y="221"/>
      <point x="504" y="220" type="qcurve"/>
      <point x="518" y="220"/>
      <point x="534" y="242"/>
      <point x="534" y="257" type="qcurve"/>
      <point x="534" y="271"/>
      <point x="518" y="295"/>
      <point x="501" y="295" type="qcurve"/>
      <point x="496" y="295"/>
      <point x="479" y="290"/>
      <point x="474" y="276" type="qcurve"/>
    </contour>
    <contour>
      <point x="471" y="125" type="qcurve"/>
      <point x="470" y="120"/>
      <point x="470" y="111" type="qcurve"/>
      <point x="470" y="95"/>
      <point x="486" y="68"/>
      <point x="501" y="68" type="qcurve"/>
      <point x="515" y="68"/>
      <point x="530" y="91"/>
      <point x="530" y="105" type="qcurve"/>
      <point x="530" y="120"/>
      <point x="513" y="144"/>
      <point x="496" y="144" type="qcurve"/>
      <point x="488" y="144"/>
      <point x="474" y="134"/>
    </contour>
    <contour>
      <point x="22" y="565" type="line"/>
      <point x="24" y="580"/>
      <point x="25" y="615"/>
      <point x="25" y="629" type="qcurve"/>
      <point x="74" y="631"/>
      <point x="182" y="633"/>
      <point x="228" y="628" type="qcurve"/>
      <point x="227" y="610"/>
      <point x="228" y="581"/>
      <point x="228" y="563" type="qcurve"/>
      <point x="200" y="498"/>
      <point x="124" y="369"/>
      <point x="91" y="303" type="qcurve"/>
      <point x="77" y="303"/>
      <point x="34" y="299"/>
      <point x="20" y="303" type="qcurve"/>
      <point x="52" y="371"/>
      <point x="115" y="498"/>
      <point x="142" y="561" type="qcurve"/>
      <point x="115" y="562"/>
      <point x="47" y="566"/>
      <point x="24" y="565" type="qcurve"/>
    </contour>
  </outline>
</glyph>
<glyph name="H18533" format="1">
  <advance width="579"/>
  <unicode hex="25CF"/>
  <outline>
    <contour>
      <point x="517" y="130" type="qcurve"/>
      <point x="503" y="91"/>
      <point x="472" y="61" type="qcurve"/>
      <point x="452" y="41"/>
      <point x="404" y="20"/>
      <point x="350" y="11"/>
      <point x="295" y="8"/>
      <point x="269" y="6" type="qcurve"/>
      <point x="241" y="6"/>
      <point x="187" y="12"/>
      <point x="161" y="20" type="qcurve"/>
      <point x="117" y="40"/>
      <point x="64" y="98"/>
      <point x="59" y="140" type="qcurve"/>
      <point x="51" y="189"/>
      <point x="50" y="288"/>
      <point x="54" y="339" type="qcurve"/>
      <point x="58" y="386"/>
      <point x="91" y="425" type="qcurve"/>
      <point x="113" y="453"/>
      <point x="177" y="484"/>
      <point x="212" y="489" type="qcurve"/>
      <point x="253" y="491"/>
      <point x="335" y="494"/>
      <point x="375" y="486" type="qcurve"/>
      <point x="396" y="482"/>
      <point x="438" y="467"/>
      <point x="458" y="454" type="qcurve"/>
      <point x="461" y="452"/>
      <point x="467" y="448"/>
      <point x="470" y="446" type="qcurve"/>
      <point x="501" y="423"/>
      <point x="529" y="360"/>
      <point x="536" y="286"/>
      <point x="528" y="206"/>
      <point x="523" y="167" type="qcurve"/>
      <point x="521" y="158"/>
      <point x="520" y="139"/>
    </contour>
  </outline>
</glyph>
